SplineFontDB: 3.2
FontName: XBFWINLucidaTypewriter24H-Bold
FullName: XBF WIN Lucida Typewriter 24H Bold
FamilyName: XBF WIN Lucida Typewriter 24H
Weight: Bold
Copyright: Copyright Bigelow & Holmes 1986, 1985.
UComments: "2022-3-11: Created with FontForge (http://fontforge.org)"
Version: 001.000
ItalicAngle: 0
UnderlinePosition: -100
UnderlineWidth: 50
Ascent: 816
Descent: 184
InvalidEm: 0
LayerCount: 2
Layer: 0 0 "Back" 1
Layer: 1 0 "Fore" 0
XUID: [1021 33 -1902947975 3294464]
StyleMap: 0x0020
FSType: 0
OS2Version: 0
OS2_WeightWidthSlopeOnly: 0
OS2_UseTypoMetrics: 1
CreationTime: 1646981320
ModificationTime: 1646981322
PfmFamily: 48
TTFWeight: 700
TTFWidth: 5
LineGap: 0
VLineGap: 90
Panose: 2 0 8 9 0 0 0 0 0 0
OS2TypoAscent: 816
OS2TypoAOffset: 0
OS2TypoDescent: -184
OS2TypoDOffset: 0
OS2TypoLinegap: 0
OS2WinAscent: 816
OS2WinAOffset: 0
OS2WinDescent: 184
OS2WinDOffset: 0
HheadAscent: 816
HheadAOffset: 0
HheadDescent: -184
HheadDOffset: 0
OS2SubXSize: 650
OS2SubYSize: 700
OS2SubXOff: 0
OS2SubYOff: 140
OS2SupXSize: 650
OS2SupYSize: 700
OS2SupXOff: 0
OS2SupYOff: 480
OS2StrikeYSize: 49
OS2StrikeYPos: 258
OS2Vendor: 'PfEd'
MacStyle: 1
DEI: 91125
Encoding: UnicodeBmp
UnicodeInterp: none
NameList: AGL For New Fonts
DisplaySize: 34
AntiAlias: 1
FitToEm: 0
BeginChars: 65536 881

StartChar: char0
Encoding: 0 0 0
Width: 571
Flags: HW
LayerCount: 2
Back
Fore
SplineSet
57 686 m 1
 57 714 l 1
 86 714 l 1
 86 686 l 1
 57 686 l 1
114 686 m 1
 114 714 l 1
 143 714 l 1
 143 686 l 1
 114 686 l 1
171 686 m 1
 171 714 l 1
 200 714 l 1
 200 686 l 1
 171 686 l 1
229 686 m 1
 229 714 l 1
 257 714 l 1
 257 686 l 1
 229 686 l 1
286 686 m 1
 286 714 l 1
 314 714 l 1
 314 686 l 1
 286 686 l 1
343 686 m 1
 343 714 l 1
 371 714 l 1
 371 686 l 1
 343 686 l 1
400 686 m 1
 400 714 l 1
 429 714 l 1
 429 686 l 1
 400 686 l 1
457 686 m 1
 457 714 l 1
 486 714 l 1
 486 686 l 1
 457 686 l 1
514 686 m 1
 514 714 l 1
 543 714 l 1
 543 686 l 1
 514 686 l 1
57 629 m 1
 57 657 l 1
 86 657 l 1
 86 629 l 1
 57 629 l 1
514 629 m 1
 514 657 l 1
 543 657 l 1
 543 629 l 1
 514 629 l 1
57 571 m 1
 57 600 l 1
 86 600 l 1
 86 571 l 1
 57 571 l 1
514 571 m 1
 514 600 l 1
 543 600 l 1
 543 571 l 1
 514 571 l 1
57 514 m 1
 57 543 l 1
 86 543 l 1
 86 514 l 1
 57 514 l 1
514 514 m 1
 514 543 l 1
 543 543 l 1
 543 514 l 1
 514 514 l 1
57 457 m 1
 57 486 l 1
 86 486 l 1
 86 457 l 1
 57 457 l 1
514 457 m 1
 514 486 l 1
 543 486 l 1
 543 457 l 1
 514 457 l 1
57 400 m 1
 57 429 l 1
 86 429 l 1
 86 400 l 1
 57 400 l 1
514 400 m 1
 514 429 l 1
 543 429 l 1
 543 400 l 1
 514 400 l 1
57 343 m 1
 57 371 l 1
 86 371 l 1
 86 343 l 1
 57 343 l 1
514 343 m 1
 514 371 l 1
 543 371 l 1
 543 343 l 1
 514 343 l 1
57 286 m 1
 57 314 l 1
 86 314 l 1
 86 286 l 1
 57 286 l 1
514 286 m 1
 514 314 l 1
 543 314 l 1
 543 286 l 1
 514 286 l 1
57 229 m 1
 57 257 l 1
 86 257 l 1
 86 229 l 1
 57 229 l 1
514 229 m 1
 514 257 l 1
 543 257 l 1
 543 229 l 1
 514 229 l 1
57 171 m 1
 57 200 l 1
 86 200 l 1
 86 171 l 1
 57 171 l 1
514 171 m 1
 514 200 l 1
 543 200 l 1
 543 171 l 1
 514 171 l 1
57 114 m 1
 57 143 l 1
 86 143 l 1
 86 114 l 1
 57 114 l 1
514 114 m 1
 514 143 l 1
 543 143 l 1
 543 114 l 1
 514 114 l 1
57 57 m 1
 57 86 l 1
 86 86 l 1
 86 57 l 1
 57 57 l 1
514 57 m 1
 514 86 l 1
 543 86 l 1
 543 57 l 1
 514 57 l 1
57 0 m 1
 57 29 l 1
 86 29 l 1
 86 0 l 1
 57 0 l 1
114 0 m 1
 114 29 l 1
 143 29 l 1
 143 0 l 1
 114 0 l 1
171 0 m 1
 171 29 l 1
 200 29 l 1
 200 0 l 1
 171 0 l 1
229 0 m 1
 229 29 l 1
 257 29 l 1
 257 0 l 1
 229 0 l 1
286 0 m 1
 286 29 l 1
 314 29 l 1
 314 0 l 1
 286 0 l 1
343 0 m 1
 343 29 l 1
 371 29 l 1
 371 0 l 1
 343 0 l 1
400 0 m 1
 400 29 l 1
 429 29 l 1
 429 0 l 1
 400 0 l 1
457 0 m 1
 457 29 l 1
 486 29 l 1
 486 0 l 1
 457 0 l 1
514 0 m 1
 514 29 l 1
 543 29 l 1
 543 0 l 1
 514 0 l 1
EndSplineSet
EndChar

StartChar: exclam
Encoding: 33 33 2
Width: 571
Flags: HW
LayerCount: 2
Back
Fore
SplineSet
229 686 m 1
 229 714 l 1
 371 714 l 1
 371 686 l 1
 229 686 l 1
229 657 m 1
 229 686 l 1
 371 686 l 1
 371 657 l 1
 229 657 l 1
229 629 m 1
 229 657 l 1
 371 657 l 1
 371 629 l 1
 229 629 l 1
229 600 m 1
 229 629 l 1
 371 629 l 1
 371 600 l 1
 229 600 l 1
229 571 m 1
 229 600 l 1
 371 600 l 1
 371 571 l 1
 229 571 l 1
229 543 m 1
 229 571 l 1
 371 571 l 1
 371 543 l 1
 229 543 l 1
229 514 m 1
 229 543 l 1
 371 543 l 1
 371 514 l 1
 229 514 l 1
229 486 m 1
 229 514 l 1
 371 514 l 1
 371 486 l 1
 229 486 l 1
229 457 m 1
 229 486 l 1
 371 486 l 1
 371 457 l 1
 229 457 l 1
229 429 m 1
 229 457 l 1
 371 457 l 1
 371 429 l 1
 229 429 l 1
229 400 m 1
 229 429 l 1
 371 429 l 1
 371 400 l 1
 229 400 l 1
257 371 m 1
 257 400 l 1
 343 400 l 1
 343 371 l 1
 257 371 l 1
257 343 m 1
 257 371 l 1
 343 371 l 1
 343 343 l 1
 257 343 l 1
257 314 m 1
 257 343 l 1
 343 343 l 1
 343 314 l 1
 257 314 l 1
257 286 m 1
 257 314 l 1
 343 314 l 1
 343 286 l 1
 257 286 l 1
257 257 m 1
 257 286 l 1
 343 286 l 1
 343 257 l 1
 257 257 l 1
257 229 m 1
 257 257 l 1
 343 257 l 1
 343 229 l 1
 257 229 l 1
229 86 m 1
 229 114 l 1
 371 114 l 1
 371 86 l 1
 229 86 l 1
229 57 m 1
 229 86 l 1
 371 86 l 1
 371 57 l 1
 229 57 l 1
229 29 m 1
 229 57 l 1
 371 57 l 1
 371 29 l 1
 229 29 l 1
229 0 m 1
 229 29 l 1
 371 29 l 1
 371 0 l 1
 229 0 l 1
EndSplineSet
EndChar

StartChar: quotedbl
Encoding: 34 34 3
Width: 571
Flags: HW
LayerCount: 2
Back
Fore
SplineSet
86 714 m 1
 86 743 l 1
 229 743 l 1
 229 714 l 1
 86 714 l 1
343 714 m 1
 343 743 l 1
 486 743 l 1
 486 714 l 1
 343 714 l 1
86 686 m 1
 86 714 l 1
 229 714 l 1
 229 686 l 1
 86 686 l 1
343 686 m 1
 343 714 l 1
 486 714 l 1
 486 686 l 1
 343 686 l 1
86 657 m 1
 86 686 l 1
 229 686 l 1
 229 657 l 1
 86 657 l 1
343 657 m 1
 343 686 l 1
 486 686 l 1
 486 657 l 1
 343 657 l 1
86 629 m 1
 86 657 l 1
 229 657 l 1
 229 629 l 1
 86 629 l 1
343 629 m 1
 343 657 l 1
 486 657 l 1
 486 629 l 1
 343 629 l 1
86 600 m 1
 86 629 l 1
 229 629 l 1
 229 600 l 1
 86 600 l 1
343 600 m 1
 343 629 l 1
 486 629 l 1
 486 600 l 1
 343 600 l 1
114 571 m 1
 114 600 l 1
 200 600 l 1
 200 571 l 1
 114 571 l 1
371 571 m 1
 371 600 l 1
 457 600 l 1
 457 571 l 1
 371 571 l 1
114 543 m 1
 114 571 l 1
 200 571 l 1
 200 543 l 1
 114 543 l 1
371 543 m 1
 371 571 l 1
 457 571 l 1
 457 543 l 1
 371 543 l 1
114 514 m 1
 114 543 l 1
 200 543 l 1
 200 514 l 1
 114 514 l 1
371 514 m 1
 371 543 l 1
 457 543 l 1
 457 514 l 1
 371 514 l 1
114 486 m 1
 114 514 l 1
 200 514 l 1
 200 486 l 1
 114 486 l 1
371 486 m 1
 371 514 l 1
 457 514 l 1
 457 486 l 1
 371 486 l 1
114 457 m 1
 114 486 l 1
 200 486 l 1
 200 457 l 1
 114 457 l 1
371 457 m 1
 371 486 l 1
 457 486 l 1
 457 457 l 1
 371 457 l 1
EndSplineSet
EndChar

StartChar: numbersign
Encoding: 35 35 4
Width: 571
Flags: HW
LayerCount: 2
Back
Fore
SplineSet
229 686 m 1
 229 714 l 1
 343 714 l 1
 343 686 l 1
 229 686 l 1
400 686 m 1
 400 714 l 1
 514 714 l 1
 514 686 l 1
 400 686 l 1
229 657 m 1
 229 686 l 1
 314 686 l 1
 314 657 l 1
 229 657 l 1
400 657 m 1
 400 686 l 1
 486 686 l 1
 486 657 l 1
 400 657 l 1
229 629 m 1
 229 657 l 1
 314 657 l 1
 314 629 l 1
 229 629 l 1
400 629 m 1
 400 657 l 1
 486 657 l 1
 486 629 l 1
 400 629 l 1
229 600 m 1
 229 629 l 1
 314 629 l 1
 314 600 l 1
 229 600 l 1
400 600 m 1
 400 629 l 1
 486 629 l 1
 486 600 l 1
 400 600 l 1
200 571 m 1
 200 600 l 1
 314 600 l 1
 314 571 l 1
 200 571 l 1
371 571 m 1
 371 600 l 1
 457 600 l 1
 457 571 l 1
 371 571 l 1
200 543 m 1
 200 571 l 1
 286 571 l 1
 286 543 l 1
 200 543 l 1
371 543 m 1
 371 571 l 1
 457 571 l 1
 457 543 l 1
 371 543 l 1
200 514 m 1
 200 543 l 1
 286 543 l 1
 286 514 l 1
 200 514 l 1
371 514 m 1
 371 543 l 1
 457 543 l 1
 457 514 l 1
 371 514 l 1
86 486 m 1
 86 514 l 1
 543 514 l 1
 543 486 l 1
 86 486 l 1
86 457 m 1
 86 486 l 1
 543 486 l 1
 543 457 l 1
 86 457 l 1
57 429 m 1
 57 457 l 1
 543 457 l 1
 543 429 l 1
 57 429 l 1
171 400 m 1
 171 429 l 1
 257 429 l 1
 257 400 l 1
 171 400 l 1
343 400 m 1
 343 429 l 1
 429 429 l 1
 429 400 l 1
 343 400 l 1
171 371 m 1
 171 400 l 1
 257 400 l 1
 257 371 l 1
 171 371 l 1
343 371 m 1
 343 400 l 1
 429 400 l 1
 429 371 l 1
 343 371 l 1
143 343 m 1
 143 371 l 1
 257 371 l 1
 257 343 l 1
 143 343 l 1
314 343 m 1
 314 371 l 1
 400 371 l 1
 400 343 l 1
 314 343 l 1
143 314 m 1
 143 343 l 1
 229 343 l 1
 229 314 l 1
 143 314 l 1
314 314 m 1
 314 343 l 1
 400 343 l 1
 400 314 l 1
 314 314 l 1
143 286 m 1
 143 314 l 1
 229 314 l 1
 229 286 l 1
 143 286 l 1
314 286 m 1
 314 314 l 1
 400 314 l 1
 400 286 l 1
 314 286 l 1
29 257 m 1
 29 286 l 1
 514 286 l 1
 514 257 l 1
 29 257 l 1
29 229 m 1
 29 257 l 1
 486 257 l 1
 486 229 l 1
 29 229 l 1
29 200 m 1
 29 229 l 1
 486 229 l 1
 486 200 l 1
 29 200 l 1
114 171 m 1
 114 200 l 1
 200 200 l 1
 200 171 l 1
 114 171 l 1
286 171 m 1
 286 200 l 1
 371 200 l 1
 371 171 l 1
 286 171 l 1
114 143 m 1
 114 171 l 1
 200 171 l 1
 200 143 l 1
 114 143 l 1
286 143 m 1
 286 171 l 1
 371 171 l 1
 371 143 l 1
 286 143 l 1
114 114 m 1
 114 143 l 1
 200 143 l 1
 200 114 l 1
 114 114 l 1
257 114 m 1
 257 143 l 1
 343 143 l 1
 343 114 l 1
 257 114 l 1
86 86 m 1
 86 114 l 1
 171 114 l 1
 171 86 l 1
 86 86 l 1
257 86 m 1
 257 114 l 1
 343 114 l 1
 343 86 l 1
 257 86 l 1
86 57 m 1
 86 86 l 1
 171 86 l 1
 171 57 l 1
 86 57 l 1
257 57 m 1
 257 86 l 1
 343 86 l 1
 343 57 l 1
 257 57 l 1
86 29 m 1
 86 57 l 1
 171 57 l 1
 171 29 l 1
 86 29 l 1
257 29 m 1
 257 57 l 1
 343 57 l 1
 343 29 l 1
 257 29 l 1
57 0 m 1
 57 29 l 1
 171 29 l 1
 171 0 l 1
 57 0 l 1
229 0 m 1
 229 29 l 1
 314 29 l 1
 314 0 l 1
 229 0 l 1
EndSplineSet
EndChar

StartChar: dollar
Encoding: 36 36 5
Width: 571
Flags: HW
LayerCount: 2
Back
Fore
SplineSet
257 771 m 1
 257 800 l 1
 343 800 l 1
 343 771 l 1
 257 771 l 1
257 743 m 1
 257 771 l 1
 343 771 l 1
 343 743 l 1
 257 743 l 1
257 714 m 1
 257 743 l 1
 343 743 l 1
 343 714 l 1
 257 714 l 1
229 686 m 1
 229 714 l 1
 457 714 l 1
 457 686 l 1
 229 686 l 1
200 657 m 1
 200 686 l 1
 486 686 l 1
 486 657 l 1
 200 657 l 1
143 629 m 1
 143 657 l 1
 486 657 l 1
 486 629 l 1
 143 629 l 1
143 600 m 1
 143 629 l 1
 286 629 l 1
 286 600 l 1
 143 600 l 1
400 600 m 1
 400 629 l 1
 486 629 l 1
 486 600 l 1
 400 600 l 1
114 571 m 1
 114 600 l 1
 257 600 l 1
 257 571 l 1
 114 571 l 1
457 571 m 1
 457 600 l 1
 486 600 l 1
 486 571 l 1
 457 571 l 1
114 543 m 1
 114 571 l 1
 257 571 l 1
 257 543 l 1
 114 543 l 1
114 514 m 1
 114 543 l 1
 257 543 l 1
 257 514 l 1
 114 514 l 1
114 486 m 1
 114 514 l 1
 257 514 l 1
 257 486 l 1
 114 486 l 1
114 457 m 1
 114 486 l 1
 286 486 l 1
 286 457 l 1
 114 457 l 1
143 429 m 1
 143 457 l 1
 343 457 l 1
 343 429 l 1
 143 429 l 1
143 400 m 1
 143 429 l 1
 371 429 l 1
 371 400 l 1
 143 400 l 1
171 371 m 1
 171 400 l 1
 400 400 l 1
 400 371 l 1
 171 371 l 1
200 343 m 1
 200 371 l 1
 429 371 l 1
 429 343 l 1
 200 343 l 1
257 314 m 1
 257 343 l 1
 457 343 l 1
 457 314 l 1
 257 314 l 1
286 286 m 1
 286 314 l 1
 486 314 l 1
 486 286 l 1
 286 286 l 1
314 257 m 1
 314 286 l 1
 486 286 l 1
 486 257 l 1
 314 257 l 1
343 229 m 1
 343 257 l 1
 514 257 l 1
 514 229 l 1
 343 229 l 1
371 200 m 1
 371 229 l 1
 514 229 l 1
 514 200 l 1
 371 200 l 1
371 171 m 1
 371 200 l 1
 514 200 l 1
 514 171 l 1
 371 171 l 1
371 143 m 1
 371 171 l 1
 514 171 l 1
 514 143 l 1
 371 143 l 1
86 114 m 1
 86 143 l 1
 114 143 l 1
 114 114 l 1
 86 114 l 1
371 114 m 1
 371 143 l 1
 514 143 l 1
 514 114 l 1
 371 114 l 1
86 86 m 1
 86 114 l 1
 200 114 l 1
 200 86 l 1
 86 86 l 1
343 86 m 1
 343 114 l 1
 486 114 l 1
 486 86 l 1
 343 86 l 1
86 57 m 1
 86 86 l 1
 486 86 l 1
 486 57 l 1
 86 57 l 1
86 29 m 1
 86 57 l 1
 457 57 l 1
 457 29 l 1
 86 29 l 1
143 0 m 1
 143 29 l 1
 400 29 l 1
 400 0 l 1
 143 0 l 1
257 -29 m 1
 257 0 l 1
 343 0 l 1
 343 -29 l 1
 257 -29 l 1
257 -57 m 1
 257 -29 l 1
 343 -29 l 1
 343 -57 l 1
 257 -57 l 1
257 -86 m 1
 257 -57 l 1
 343 -57 l 1
 343 -86 l 1
 257 -86 l 1
257 -114 m 1
 257 -86 l 1
 343 -86 l 1
 343 -114 l 1
 257 -114 l 1
EndSplineSet
EndChar

StartChar: percent
Encoding: 37 37 6
Width: 571
Flags: HW
LayerCount: 2
Back
Fore
SplineSet
86 686 m 1
 86 714 l 1
 200 714 l 1
 200 686 l 1
 86 686 l 1
429 686 m 1
 429 714 l 1
 543 714 l 1
 543 686 l 1
 429 686 l 1
57 657 m 1
 57 686 l 1
 229 686 l 1
 229 657 l 1
 57 657 l 1
429 657 m 1
 429 686 l 1
 514 686 l 1
 514 657 l 1
 429 657 l 1
29 629 m 1
 29 657 l 1
 257 657 l 1
 257 629 l 1
 29 629 l 1
400 629 m 1
 400 657 l 1
 514 657 l 1
 514 629 l 1
 400 629 l 1
0 600 m 1
 0 629 l 1
 114 629 l 1
 114 600 l 1
 0 600 l 1
171 600 m 1
 171 629 l 1
 286 629 l 1
 286 600 l 1
 171 600 l 1
400 600 m 1
 400 629 l 1
 486 629 l 1
 486 600 l 1
 400 600 l 1
0 571 m 1
 0 600 l 1
 114 600 l 1
 114 571 l 1
 0 571 l 1
171 571 m 1
 171 600 l 1
 286 600 l 1
 286 571 l 1
 171 571 l 1
371 571 m 1
 371 600 l 1
 457 600 l 1
 457 571 l 1
 371 571 l 1
0 543 m 1
 0 571 l 1
 114 571 l 1
 114 543 l 1
 0 543 l 1
171 543 m 1
 171 571 l 1
 286 571 l 1
 286 543 l 1
 171 543 l 1
371 543 m 1
 371 571 l 1
 457 571 l 1
 457 543 l 1
 371 543 l 1
0 514 m 1
 0 543 l 1
 114 543 l 1
 114 514 l 1
 0 514 l 1
171 514 m 1
 171 543 l 1
 286 543 l 1
 286 514 l 1
 171 514 l 1
343 514 m 1
 343 543 l 1
 429 543 l 1
 429 514 l 1
 343 514 l 1
0 486 m 1
 0 514 l 1
 114 514 l 1
 114 486 l 1
 0 486 l 1
171 486 m 1
 171 514 l 1
 286 514 l 1
 286 486 l 1
 171 486 l 1
314 486 m 1
 314 514 l 1
 429 514 l 1
 429 486 l 1
 314 486 l 1
0 457 m 1
 0 486 l 1
 114 486 l 1
 114 457 l 1
 0 457 l 1
171 457 m 1
 171 486 l 1
 286 486 l 1
 286 457 l 1
 171 457 l 1
314 457 m 1
 314 486 l 1
 400 486 l 1
 400 457 l 1
 314 457 l 1
0 429 m 1
 0 457 l 1
 114 457 l 1
 114 429 l 1
 0 429 l 1
171 429 m 1
 171 457 l 1
 400 457 l 1
 400 429 l 1
 171 429 l 1
29 400 m 1
 29 429 l 1
 257 429 l 1
 257 400 l 1
 29 400 l 1
286 400 m 1
 286 429 l 1
 371 429 l 1
 371 400 l 1
 286 400 l 1
57 371 m 1
 57 400 l 1
 229 400 l 1
 229 371 l 1
 57 371 l 1
257 371 m 1
 257 400 l 1
 371 400 l 1
 371 371 l 1
 257 371 l 1
86 343 m 1
 86 371 l 1
 200 371 l 1
 200 343 l 1
 86 343 l 1
257 343 m 1
 257 371 l 1
 343 371 l 1
 343 343 l 1
 257 343 l 1
229 314 m 1
 229 343 l 1
 343 343 l 1
 343 314 l 1
 229 314 l 1
400 314 m 1
 400 343 l 1
 514 343 l 1
 514 314 l 1
 400 314 l 1
229 286 m 1
 229 314 l 1
 314 314 l 1
 314 286 l 1
 229 286 l 1
343 286 m 1
 343 314 l 1
 571 314 l 1
 571 286 l 1
 343 286 l 1
200 257 m 1
 200 286 l 1
 314 286 l 1
 314 257 l 1
 200 257 l 1
343 257 m 1
 343 286 l 1
 571 286 l 1
 571 257 l 1
 343 257 l 1
200 229 m 1
 200 257 l 1
 286 257 l 1
 286 229 l 1
 200 229 l 1
314 229 m 1
 314 257 l 1
 429 257 l 1
 429 229 l 1
 314 229 l 1
486 229 m 1
 486 257 l 1
 600 257 l 1
 600 229 l 1
 486 229 l 1
171 200 m 1
 171 229 l 1
 286 229 l 1
 286 200 l 1
 171 200 l 1
314 200 m 1
 314 229 l 1
 429 229 l 1
 429 200 l 1
 314 200 l 1
486 200 m 1
 486 229 l 1
 600 229 l 1
 600 200 l 1
 486 200 l 1
171 171 m 1
 171 200 l 1
 257 200 l 1
 257 171 l 1
 171 171 l 1
314 171 m 1
 314 200 l 1
 429 200 l 1
 429 171 l 1
 314 171 l 1
486 171 m 1
 486 200 l 1
 600 200 l 1
 600 171 l 1
 486 171 l 1
143 143 m 1
 143 171 l 1
 229 171 l 1
 229 143 l 1
 143 143 l 1
314 143 m 1
 314 171 l 1
 429 171 l 1
 429 143 l 1
 314 143 l 1
486 143 m 1
 486 171 l 1
 600 171 l 1
 600 143 l 1
 486 143 l 1
143 114 m 1
 143 143 l 1
 229 143 l 1
 229 114 l 1
 143 114 l 1
314 114 m 1
 314 143 l 1
 429 143 l 1
 429 114 l 1
 314 114 l 1
486 114 m 1
 486 143 l 1
 600 143 l 1
 600 114 l 1
 486 114 l 1
114 86 m 1
 114 114 l 1
 200 114 l 1
 200 86 l 1
 114 86 l 1
314 86 m 1
 314 114 l 1
 429 114 l 1
 429 86 l 1
 314 86 l 1
486 86 m 1
 486 114 l 1
 600 114 l 1
 600 86 l 1
 486 86 l 1
86 57 m 1
 86 86 l 1
 200 86 l 1
 200 57 l 1
 86 57 l 1
343 57 m 1
 343 86 l 1
 571 86 l 1
 571 57 l 1
 343 57 l 1
86 29 m 1
 86 57 l 1
 171 57 l 1
 171 29 l 1
 86 29 l 1
343 29 m 1
 343 57 l 1
 571 57 l 1
 571 29 l 1
 343 29 l 1
57 0 m 1
 57 29 l 1
 171 29 l 1
 171 0 l 1
 57 0 l 1
400 0 m 1
 400 29 l 1
 514 29 l 1
 514 0 l 1
 400 0 l 1
EndSplineSet
EndChar

StartChar: ampersand
Encoding: 38 38 7
Width: 571
Flags: HW
LayerCount: 2
Back
Fore
SplineSet
171 686 m 1
 171 714 l 1
 314 714 l 1
 314 686 l 1
 171 686 l 1
114 657 m 1
 114 686 l 1
 371 686 l 1
 371 657 l 1
 114 657 l 1
114 629 m 1
 114 657 l 1
 371 657 l 1
 371 629 l 1
 114 629 l 1
86 600 m 1
 86 629 l 1
 229 629 l 1
 229 600 l 1
 86 600 l 1
257 600 m 1
 257 629 l 1
 400 629 l 1
 400 600 l 1
 257 600 l 1
86 571 m 1
 86 600 l 1
 229 600 l 1
 229 571 l 1
 86 571 l 1
257 571 m 1
 257 600 l 1
 400 600 l 1
 400 571 l 1
 257 571 l 1
86 543 m 1
 86 571 l 1
 229 571 l 1
 229 543 l 1
 86 543 l 1
257 543 m 1
 257 571 l 1
 400 571 l 1
 400 543 l 1
 257 543 l 1
86 514 m 1
 86 543 l 1
 229 543 l 1
 229 514 l 1
 86 514 l 1
257 514 m 1
 257 543 l 1
 400 543 l 1
 400 514 l 1
 257 514 l 1
86 486 m 1
 86 514 l 1
 229 514 l 1
 229 486 l 1
 86 486 l 1
257 486 m 1
 257 514 l 1
 400 514 l 1
 400 486 l 1
 257 486 l 1
114 457 m 1
 114 486 l 1
 371 486 l 1
 371 457 l 1
 114 457 l 1
114 429 m 1
 114 457 l 1
 343 457 l 1
 343 429 l 1
 114 429 l 1
143 400 m 1
 143 429 l 1
 314 429 l 1
 314 400 l 1
 143 400 l 1
114 371 m 1
 114 400 l 1
 286 400 l 1
 286 371 l 1
 114 371 l 1
429 371 m 1
 429 400 l 1
 571 400 l 1
 571 371 l 1
 429 371 l 1
57 343 m 1
 57 371 l 1
 314 371 l 1
 314 343 l 1
 57 343 l 1
429 343 m 1
 429 371 l 1
 571 371 l 1
 571 343 l 1
 429 343 l 1
29 314 m 1
 29 343 l 1
 314 343 l 1
 314 314 l 1
 29 314 l 1
429 314 m 1
 429 343 l 1
 571 343 l 1
 571 314 l 1
 429 314 l 1
29 286 m 1
 29 314 l 1
 343 314 l 1
 343 286 l 1
 29 286 l 1
429 286 m 1
 429 314 l 1
 571 314 l 1
 571 286 l 1
 429 286 l 1
0 257 m 1
 0 286 l 1
 143 286 l 1
 143 257 l 1
 0 257 l 1
200 257 m 1
 200 286 l 1
 371 286 l 1
 371 257 l 1
 200 257 l 1
429 257 m 1
 429 286 l 1
 543 286 l 1
 543 257 l 1
 429 257 l 1
0 229 m 1
 0 257 l 1
 143 257 l 1
 143 229 l 1
 0 229 l 1
229 229 m 1
 229 257 l 1
 371 257 l 1
 371 229 l 1
 229 229 l 1
429 229 m 1
 429 257 l 1
 543 257 l 1
 543 229 l 1
 429 229 l 1
0 200 m 1
 0 229 l 1
 143 229 l 1
 143 200 l 1
 0 200 l 1
229 200 m 1
 229 229 l 1
 514 229 l 1
 514 200 l 1
 229 200 l 1
0 171 m 1
 0 200 l 1
 143 200 l 1
 143 171 l 1
 0 171 l 1
257 171 m 1
 257 200 l 1
 514 200 l 1
 514 171 l 1
 257 171 l 1
0 143 m 1
 0 171 l 1
 171 171 l 1
 171 143 l 1
 0 143 l 1
257 143 m 1
 257 171 l 1
 486 171 l 1
 486 143 l 1
 257 143 l 1
0 114 m 1
 0 143 l 1
 200 143 l 1
 200 114 l 1
 0 114 l 1
286 114 m 1
 286 143 l 1
 457 143 l 1
 457 114 l 1
 286 114 l 1
29 86 m 1
 29 114 l 1
 486 114 l 1
 486 86 l 1
 29 86 l 1
57 57 m 1
 57 86 l 1
 514 86 l 1
 514 57 l 1
 57 57 l 1
86 29 m 1
 86 57 l 1
 543 57 l 1
 543 29 l 1
 86 29 l 1
143 0 m 1
 143 29 l 1
 314 29 l 1
 314 0 l 1
 143 0 l 1
371 0 m 1
 371 29 l 1
 571 29 l 1
 571 0 l 1
 371 0 l 1
EndSplineSet
EndChar

StartChar: quotesingle
Encoding: 39 39 8
Width: 571
Flags: HW
LayerCount: 2
Back
Fore
SplineSet
200 714 m 1
 200 743 l 1
 371 743 l 1
 371 714 l 1
 200 714 l 1
200 686 m 1
 200 714 l 1
 371 714 l 1
 371 686 l 1
 200 686 l 1
200 657 m 1
 200 686 l 1
 371 686 l 1
 371 657 l 1
 200 657 l 1
200 629 m 1
 200 657 l 1
 343 657 l 1
 343 629 l 1
 200 629 l 1
200 600 m 1
 200 629 l 1
 343 629 l 1
 343 600 l 1
 200 600 l 1
200 571 m 1
 200 600 l 1
 343 600 l 1
 343 571 l 1
 200 571 l 1
229 543 m 1
 229 571 l 1
 343 571 l 1
 343 543 l 1
 229 543 l 1
229 514 m 1
 229 543 l 1
 343 543 l 1
 343 514 l 1
 229 514 l 1
229 486 m 1
 229 514 l 1
 314 514 l 1
 314 486 l 1
 229 486 l 1
229 457 m 1
 229 486 l 1
 314 486 l 1
 314 457 l 1
 229 457 l 1
229 429 m 1
 229 457 l 1
 314 457 l 1
 314 429 l 1
 229 429 l 1
EndSplineSet
EndChar

StartChar: parenleft
Encoding: 40 40 9
Width: 571
Flags: HW
LayerCount: 2
Back
Fore
SplineSet
457 714 m 1
 457 743 l 1
 543 743 l 1
 543 714 l 1
 457 714 l 1
371 686 m 1
 371 714 l 1
 543 714 l 1
 543 686 l 1
 371 686 l 1
314 657 m 1
 314 686 l 1
 543 686 l 1
 543 657 l 1
 314 657 l 1
286 629 m 1
 286 657 l 1
 486 657 l 1
 486 629 l 1
 286 629 l 1
257 600 m 1
 257 629 l 1
 429 629 l 1
 429 600 l 1
 257 600 l 1
229 571 m 1
 229 600 l 1
 400 600 l 1
 400 571 l 1
 229 571 l 1
229 543 m 1
 229 571 l 1
 371 571 l 1
 371 543 l 1
 229 543 l 1
200 514 m 1
 200 543 l 1
 343 543 l 1
 343 514 l 1
 200 514 l 1
171 486 m 1
 171 514 l 1
 343 514 l 1
 343 486 l 1
 171 486 l 1
171 457 m 1
 171 486 l 1
 314 486 l 1
 314 457 l 1
 171 457 l 1
171 429 m 1
 171 457 l 1
 314 457 l 1
 314 429 l 1
 171 429 l 1
143 400 m 1
 143 429 l 1
 286 429 l 1
 286 400 l 1
 143 400 l 1
143 371 m 1
 143 400 l 1
 286 400 l 1
 286 371 l 1
 143 371 l 1
143 343 m 1
 143 371 l 1
 286 371 l 1
 286 343 l 1
 143 343 l 1
143 314 m 1
 143 343 l 1
 286 343 l 1
 286 314 l 1
 143 314 l 1
143 286 m 1
 143 314 l 1
 286 314 l 1
 286 286 l 1
 143 286 l 1
143 257 m 1
 143 286 l 1
 286 286 l 1
 286 257 l 1
 143 257 l 1
143 229 m 1
 143 257 l 1
 286 257 l 1
 286 229 l 1
 143 229 l 1
143 200 m 1
 143 229 l 1
 286 229 l 1
 286 200 l 1
 143 200 l 1
143 171 m 1
 143 200 l 1
 286 200 l 1
 286 171 l 1
 143 171 l 1
171 143 m 1
 171 171 l 1
 314 171 l 1
 314 143 l 1
 171 143 l 1
171 114 m 1
 171 143 l 1
 314 143 l 1
 314 114 l 1
 171 114 l 1
171 86 m 1
 171 114 l 1
 314 114 l 1
 314 86 l 1
 171 86 l 1
200 57 m 1
 200 86 l 1
 343 86 l 1
 343 57 l 1
 200 57 l 1
200 29 m 1
 200 57 l 1
 343 57 l 1
 343 29 l 1
 200 29 l 1
229 0 m 1
 229 29 l 1
 371 29 l 1
 371 0 l 1
 229 0 l 1
229 -29 m 1
 229 0 l 1
 400 0 l 1
 400 -29 l 1
 229 -29 l 1
257 -57 m 1
 257 -29 l 1
 457 -29 l 1
 457 -57 l 1
 257 -57 l 1
286 -86 m 1
 286 -57 l 1
 543 -57 l 1
 543 -86 l 1
 286 -86 l 1
343 -114 m 1
 343 -86 l 1
 543 -86 l 1
 543 -114 l 1
 343 -114 l 1
400 -143 m 1
 400 -114 l 1
 543 -114 l 1
 543 -143 l 1
 400 -143 l 1
457 -171 m 1
 457 -143 l 1
 543 -143 l 1
 543 -171 l 1
 457 -171 l 1
EndSplineSet
EndChar

StartChar: parenright
Encoding: 41 41 10
Width: 571
Flags: HW
LayerCount: 2
Back
Fore
SplineSet
57 714 m 1
 57 743 l 1
 143 743 l 1
 143 714 l 1
 57 714 l 1
57 686 m 1
 57 714 l 1
 200 714 l 1
 200 686 l 1
 57 686 l 1
57 657 m 1
 57 686 l 1
 257 686 l 1
 257 657 l 1
 57 657 l 1
57 629 m 1
 57 657 l 1
 286 657 l 1
 286 629 l 1
 57 629 l 1
143 600 m 1
 143 629 l 1
 343 629 l 1
 343 600 l 1
 143 600 l 1
200 571 m 1
 200 600 l 1
 343 600 l 1
 343 571 l 1
 200 571 l 1
229 543 m 1
 229 571 l 1
 371 571 l 1
 371 543 l 1
 229 543 l 1
257 514 m 1
 257 543 l 1
 400 543 l 1
 400 514 l 1
 257 514 l 1
257 486 m 1
 257 514 l 1
 400 514 l 1
 400 486 l 1
 257 486 l 1
286 457 m 1
 286 486 l 1
 429 486 l 1
 429 457 l 1
 286 457 l 1
286 429 m 1
 286 457 l 1
 429 457 l 1
 429 429 l 1
 286 429 l 1
286 400 m 1
 286 429 l 1
 429 429 l 1
 429 400 l 1
 286 400 l 1
314 371 m 1
 314 400 l 1
 457 400 l 1
 457 371 l 1
 314 371 l 1
314 343 m 1
 314 371 l 1
 457 371 l 1
 457 343 l 1
 314 343 l 1
314 314 m 1
 314 343 l 1
 457 343 l 1
 457 314 l 1
 314 314 l 1
314 286 m 1
 314 314 l 1
 457 314 l 1
 457 286 l 1
 314 286 l 1
314 257 m 1
 314 286 l 1
 457 286 l 1
 457 257 l 1
 314 257 l 1
314 229 m 1
 314 257 l 1
 457 257 l 1
 457 229 l 1
 314 229 l 1
314 200 m 1
 314 229 l 1
 457 229 l 1
 457 200 l 1
 314 200 l 1
314 171 m 1
 314 200 l 1
 457 200 l 1
 457 171 l 1
 314 171 l 1
314 143 m 1
 314 171 l 1
 457 171 l 1
 457 143 l 1
 314 143 l 1
286 114 m 1
 286 143 l 1
 429 143 l 1
 429 114 l 1
 286 114 l 1
286 86 m 1
 286 114 l 1
 429 114 l 1
 429 86 l 1
 286 86 l 1
257 57 m 1
 257 86 l 1
 400 86 l 1
 400 57 l 1
 257 57 l 1
257 29 m 1
 257 57 l 1
 400 57 l 1
 400 29 l 1
 257 29 l 1
229 0 m 1
 229 29 l 1
 371 29 l 1
 371 0 l 1
 229 0 l 1
200 -29 m 1
 200 0 l 1
 371 0 l 1
 371 -29 l 1
 200 -29 l 1
171 -57 m 1
 171 -29 l 1
 343 -29 l 1
 343 -57 l 1
 171 -57 l 1
114 -86 m 1
 114 -57 l 1
 314 -57 l 1
 314 -86 l 1
 114 -86 l 1
57 -114 m 1
 57 -86 l 1
 257 -86 l 1
 257 -114 l 1
 57 -114 l 1
57 -143 m 1
 57 -114 l 1
 229 -114 l 1
 229 -143 l 1
 57 -143 l 1
57 -171 m 1
 57 -143 l 1
 143 -143 l 1
 143 -171 l 1
 57 -171 l 1
EndSplineSet
EndChar

StartChar: asterisk
Encoding: 42 42 11
Width: 571
Flags: HW
LayerCount: 2
Back
Fore
SplineSet
229 686 m 1
 229 714 l 1
 343 714 l 1
 343 686 l 1
 229 686 l 1
229 657 m 1
 229 686 l 1
 343 686 l 1
 343 657 l 1
 229 657 l 1
229 629 m 1
 229 657 l 1
 343 657 l 1
 343 629 l 1
 229 629 l 1
86 600 m 1
 86 629 l 1
 114 629 l 1
 114 600 l 1
 86 600 l 1
257 600 m 1
 257 629 l 1
 314 629 l 1
 314 600 l 1
 257 600 l 1
457 600 m 1
 457 629 l 1
 486 629 l 1
 486 600 l 1
 457 600 l 1
86 571 m 1
 86 600 l 1
 171 600 l 1
 171 571 l 1
 86 571 l 1
257 571 m 1
 257 600 l 1
 314 600 l 1
 314 571 l 1
 257 571 l 1
400 571 m 1
 400 600 l 1
 486 600 l 1
 486 571 l 1
 400 571 l 1
86 543 m 1
 86 571 l 1
 229 571 l 1
 229 543 l 1
 86 543 l 1
257 543 m 1
 257 571 l 1
 314 571 l 1
 314 543 l 1
 257 543 l 1
371 543 m 1
 371 571 l 1
 486 571 l 1
 486 543 l 1
 371 543 l 1
57 514 m 1
 57 543 l 1
 229 543 l 1
 229 514 l 1
 57 514 l 1
343 514 m 1
 343 543 l 1
 514 543 l 1
 514 514 l 1
 343 514 l 1
57 486 m 1
 57 514 l 1
 229 514 l 1
 229 486 l 1
 57 486 l 1
343 486 m 1
 343 514 l 1
 514 514 l 1
 514 486 l 1
 343 486 l 1
200 429 m 1
 200 457 l 1
 371 457 l 1
 371 429 l 1
 200 429 l 1
171 400 m 1
 171 429 l 1
 257 429 l 1
 257 400 l 1
 171 400 l 1
314 400 m 1
 314 429 l 1
 400 429 l 1
 400 400 l 1
 314 400 l 1
143 371 m 1
 143 400 l 1
 257 400 l 1
 257 371 l 1
 143 371 l 1
314 371 m 1
 314 400 l 1
 429 400 l 1
 429 371 l 1
 314 371 l 1
114 343 m 1
 114 371 l 1
 257 371 l 1
 257 343 l 1
 114 343 l 1
314 343 m 1
 314 371 l 1
 457 371 l 1
 457 343 l 1
 314 343 l 1
143 314 m 1
 143 343 l 1
 229 343 l 1
 229 314 l 1
 143 314 l 1
343 314 m 1
 343 343 l 1
 429 343 l 1
 429 314 l 1
 343 314 l 1
200 286 m 1
 200 314 l 1
 229 314 l 1
 229 286 l 1
 200 286 l 1
343 286 m 1
 343 314 l 1
 371 314 l 1
 371 286 l 1
 343 286 l 1
EndSplineSet
EndChar

StartChar: plus
Encoding: 43 43 12
Width: 571
Flags: HW
LayerCount: 2
Back
Fore
SplineSet
229 486 m 1
 229 514 l 1
 343 514 l 1
 343 486 l 1
 229 486 l 1
229 457 m 1
 229 486 l 1
 343 486 l 1
 343 457 l 1
 229 457 l 1
229 429 m 1
 229 457 l 1
 343 457 l 1
 343 429 l 1
 229 429 l 1
229 400 m 1
 229 429 l 1
 343 429 l 1
 343 400 l 1
 229 400 l 1
229 371 m 1
 229 400 l 1
 343 400 l 1
 343 371 l 1
 229 371 l 1
229 343 m 1
 229 371 l 1
 343 371 l 1
 343 343 l 1
 229 343 l 1
229 314 m 1
 229 343 l 1
 343 343 l 1
 343 314 l 1
 229 314 l 1
29 286 m 1
 29 314 l 1
 543 314 l 1
 543 286 l 1
 29 286 l 1
29 257 m 1
 29 286 l 1
 543 286 l 1
 543 257 l 1
 29 257 l 1
29 229 m 1
 29 257 l 1
 543 257 l 1
 543 229 l 1
 29 229 l 1
29 200 m 1
 29 229 l 1
 543 229 l 1
 543 200 l 1
 29 200 l 1
229 171 m 1
 229 200 l 1
 343 200 l 1
 343 171 l 1
 229 171 l 1
229 143 m 1
 229 171 l 1
 343 171 l 1
 343 143 l 1
 229 143 l 1
229 114 m 1
 229 143 l 1
 343 143 l 1
 343 114 l 1
 229 114 l 1
229 86 m 1
 229 114 l 1
 343 114 l 1
 343 86 l 1
 229 86 l 1
229 57 m 1
 229 86 l 1
 343 86 l 1
 343 57 l 1
 229 57 l 1
229 29 m 1
 229 57 l 1
 343 57 l 1
 343 29 l 1
 229 29 l 1
229 0 m 1
 229 29 l 1
 343 29 l 1
 343 0 l 1
 229 0 l 1
EndSplineSet
EndChar

StartChar: comma
Encoding: 44 44 13
Width: 571
Flags: HW
LayerCount: 2
Back
Fore
SplineSet
200 143 m 1
 200 171 l 1
 371 171 l 1
 371 143 l 1
 200 143 l 1
200 114 m 1
 200 143 l 1
 371 143 l 1
 371 114 l 1
 200 114 l 1
200 86 m 1
 200 114 l 1
 371 114 l 1
 371 86 l 1
 200 86 l 1
200 57 m 1
 200 86 l 1
 371 86 l 1
 371 57 l 1
 200 57 l 1
200 29 m 1
 200 57 l 1
 371 57 l 1
 371 29 l 1
 200 29 l 1
200 0 m 1
 200 29 l 1
 371 29 l 1
 371 0 l 1
 200 0 l 1
257 -29 m 1
 257 0 l 1
 371 0 l 1
 371 -29 l 1
 257 -29 l 1
257 -57 m 1
 257 -29 l 1
 371 -29 l 1
 371 -57 l 1
 257 -57 l 1
257 -86 m 1
 257 -57 l 1
 371 -57 l 1
 371 -86 l 1
 257 -86 l 1
229 -114 m 1
 229 -86 l 1
 343 -86 l 1
 343 -114 l 1
 229 -114 l 1
200 -143 m 1
 200 -114 l 1
 343 -114 l 1
 343 -143 l 1
 200 -143 l 1
200 -171 m 1
 200 -143 l 1
 286 -143 l 1
 286 -171 l 1
 200 -171 l 1
EndSplineSet
EndChar

StartChar: period
Encoding: 46 46 15
Width: 571
Flags: HW
LayerCount: 2
Back
Fore
SplineSet
200 114 m 1
 200 143 l 1
 371 143 l 1
 371 114 l 1
 200 114 l 1
200 86 m 1
 200 114 l 1
 371 114 l 1
 371 86 l 1
 200 86 l 1
200 57 m 1
 200 86 l 1
 371 86 l 1
 371 57 l 1
 200 57 l 1
200 29 m 1
 200 57 l 1
 371 57 l 1
 371 29 l 1
 200 29 l 1
200 0 m 1
 200 29 l 1
 371 29 l 1
 371 0 l 1
 200 0 l 1
EndSplineSet
EndChar

StartChar: slash
Encoding: 47 47 16
Width: 571
Flags: HW
LayerCount: 2
Back
Fore
SplineSet
429 714 m 1
 429 743 l 1
 571 743 l 1
 571 714 l 1
 429 714 l 1
429 686 m 1
 429 714 l 1
 543 714 l 1
 543 686 l 1
 429 686 l 1
400 657 m 1
 400 686 l 1
 543 686 l 1
 543 657 l 1
 400 657 l 1
400 629 m 1
 400 657 l 1
 514 657 l 1
 514 629 l 1
 400 629 l 1
371 600 m 1
 371 629 l 1
 514 629 l 1
 514 600 l 1
 371 600 l 1
371 571 m 1
 371 600 l 1
 486 600 l 1
 486 571 l 1
 371 571 l 1
343 543 m 1
 343 571 l 1
 486 571 l 1
 486 543 l 1
 343 543 l 1
343 514 m 1
 343 543 l 1
 457 543 l 1
 457 514 l 1
 343 514 l 1
314 486 m 1
 314 514 l 1
 457 514 l 1
 457 486 l 1
 314 486 l 1
314 457 m 1
 314 486 l 1
 429 486 l 1
 429 457 l 1
 314 457 l 1
286 429 m 1
 286 457 l 1
 429 457 l 1
 429 429 l 1
 286 429 l 1
286 400 m 1
 286 429 l 1
 400 429 l 1
 400 400 l 1
 286 400 l 1
257 371 m 1
 257 400 l 1
 400 400 l 1
 400 371 l 1
 257 371 l 1
257 343 m 1
 257 371 l 1
 371 371 l 1
 371 343 l 1
 257 343 l 1
229 314 m 1
 229 343 l 1
 371 343 l 1
 371 314 l 1
 229 314 l 1
229 286 m 1
 229 314 l 1
 343 314 l 1
 343 286 l 1
 229 286 l 1
200 257 m 1
 200 286 l 1
 343 286 l 1
 343 257 l 1
 200 257 l 1
200 229 m 1
 200 257 l 1
 314 257 l 1
 314 229 l 1
 200 229 l 1
171 200 m 1
 171 229 l 1
 314 229 l 1
 314 200 l 1
 171 200 l 1
171 171 m 1
 171 200 l 1
 286 200 l 1
 286 171 l 1
 171 171 l 1
143 143 m 1
 143 171 l 1
 286 171 l 1
 286 143 l 1
 143 143 l 1
143 114 m 1
 143 143 l 1
 257 143 l 1
 257 114 l 1
 143 114 l 1
143 86 m 1
 143 114 l 1
 257 114 l 1
 257 86 l 1
 143 86 l 1
114 57 m 1
 114 86 l 1
 229 86 l 1
 229 57 l 1
 114 57 l 1
114 29 m 1
 114 57 l 1
 229 57 l 1
 229 29 l 1
 114 29 l 1
86 0 m 1
 86 29 l 1
 200 29 l 1
 200 0 l 1
 86 0 l 1
86 -29 m 1
 86 0 l 1
 200 0 l 1
 200 -29 l 1
 86 -29 l 1
57 -57 m 1
 57 -29 l 1
 171 -29 l 1
 171 -57 l 1
 57 -57 l 1
57 -86 m 1
 57 -57 l 1
 171 -57 l 1
 171 -86 l 1
 57 -86 l 1
29 -114 m 1
 29 -86 l 1
 143 -86 l 1
 143 -114 l 1
 29 -114 l 1
29 -143 m 1
 29 -114 l 1
 143 -114 l 1
 143 -143 l 1
 29 -143 l 1
0 -171 m 1
 0 -143 l 1
 114 -143 l 1
 114 -171 l 1
 0 -171 l 1
EndSplineSet
EndChar

StartChar: zero
Encoding: 48 48 17
Width: 571
Flags: HW
LayerCount: 2
Back
Fore
SplineSet
200 686 m 1
 200 714 l 1
 371 714 l 1
 371 686 l 1
 200 686 l 1
143 657 m 1
 143 686 l 1
 429 686 l 1
 429 657 l 1
 143 657 l 1
114 629 m 1
 114 657 l 1
 457 657 l 1
 457 629 l 1
 114 629 l 1
86 600 m 1
 86 629 l 1
 229 629 l 1
 229 600 l 1
 86 600 l 1
343 600 m 1
 343 629 l 1
 486 629 l 1
 486 600 l 1
 343 600 l 1
86 571 m 1
 86 600 l 1
 200 600 l 1
 200 571 l 1
 86 571 l 1
371 571 m 1
 371 600 l 1
 486 600 l 1
 486 571 l 1
 371 571 l 1
57 543 m 1
 57 571 l 1
 200 571 l 1
 200 543 l 1
 57 543 l 1
371 543 m 1
 371 571 l 1
 514 571 l 1
 514 543 l 1
 371 543 l 1
57 514 m 1
 57 543 l 1
 171 543 l 1
 171 514 l 1
 57 514 l 1
400 514 m 1
 400 543 l 1
 514 543 l 1
 514 514 l 1
 400 514 l 1
57 486 m 1
 57 514 l 1
 171 514 l 1
 171 486 l 1
 57 486 l 1
400 486 m 1
 400 514 l 1
 514 514 l 1
 514 486 l 1
 400 486 l 1
29 457 m 1
 29 486 l 1
 171 486 l 1
 171 457 l 1
 29 457 l 1
400 457 m 1
 400 486 l 1
 543 486 l 1
 543 457 l 1
 400 457 l 1
29 429 m 1
 29 457 l 1
 171 457 l 1
 171 429 l 1
 29 429 l 1
400 429 m 1
 400 457 l 1
 543 457 l 1
 543 429 l 1
 400 429 l 1
29 400 m 1
 29 429 l 1
 171 429 l 1
 171 400 l 1
 29 400 l 1
400 400 m 1
 400 429 l 1
 543 429 l 1
 543 400 l 1
 400 400 l 1
29 371 m 1
 29 400 l 1
 171 400 l 1
 171 371 l 1
 29 371 l 1
400 371 m 1
 400 400 l 1
 543 400 l 1
 543 371 l 1
 400 371 l 1
29 343 m 1
 29 371 l 1
 171 371 l 1
 171 343 l 1
 29 343 l 1
400 343 m 1
 400 371 l 1
 543 371 l 1
 543 343 l 1
 400 343 l 1
29 314 m 1
 29 343 l 1
 171 343 l 1
 171 314 l 1
 29 314 l 1
400 314 m 1
 400 343 l 1
 543 343 l 1
 543 314 l 1
 400 314 l 1
29 286 m 1
 29 314 l 1
 171 314 l 1
 171 286 l 1
 29 286 l 1
400 286 m 1
 400 314 l 1
 543 314 l 1
 543 286 l 1
 400 286 l 1
29 257 m 1
 29 286 l 1
 171 286 l 1
 171 257 l 1
 29 257 l 1
400 257 m 1
 400 286 l 1
 543 286 l 1
 543 257 l 1
 400 257 l 1
29 229 m 1
 29 257 l 1
 171 257 l 1
 171 229 l 1
 29 229 l 1
400 229 m 1
 400 257 l 1
 543 257 l 1
 543 229 l 1
 400 229 l 1
57 200 m 1
 57 229 l 1
 171 229 l 1
 171 200 l 1
 57 200 l 1
400 200 m 1
 400 229 l 1
 514 229 l 1
 514 200 l 1
 400 200 l 1
57 171 m 1
 57 200 l 1
 171 200 l 1
 171 171 l 1
 57 171 l 1
400 171 m 1
 400 200 l 1
 514 200 l 1
 514 171 l 1
 400 171 l 1
57 143 m 1
 57 171 l 1
 200 171 l 1
 200 143 l 1
 57 143 l 1
371 143 m 1
 371 171 l 1
 514 171 l 1
 514 143 l 1
 371 143 l 1
86 114 m 1
 86 143 l 1
 200 143 l 1
 200 114 l 1
 86 114 l 1
371 114 m 1
 371 143 l 1
 486 143 l 1
 486 114 l 1
 371 114 l 1
86 86 m 1
 86 114 l 1
 229 114 l 1
 229 86 l 1
 86 86 l 1
343 86 m 1
 343 114 l 1
 486 114 l 1
 486 86 l 1
 343 86 l 1
114 57 m 1
 114 86 l 1
 457 86 l 1
 457 57 l 1
 114 57 l 1
143 29 m 1
 143 57 l 1
 429 57 l 1
 429 29 l 1
 143 29 l 1
200 0 m 1
 200 29 l 1
 371 29 l 1
 371 0 l 1
 200 0 l 1
EndSplineSet
EndChar

StartChar: one
Encoding: 49 49 18
Width: 571
Flags: HW
LayerCount: 2
Back
Fore
SplineSet
114 686 m 1
 114 714 l 1
 400 714 l 1
 400 686 l 1
 114 686 l 1
114 657 m 1
 114 686 l 1
 400 686 l 1
 400 657 l 1
 114 657 l 1
114 629 m 1
 114 657 l 1
 400 657 l 1
 400 629 l 1
 114 629 l 1
257 600 m 1
 257 629 l 1
 400 629 l 1
 400 600 l 1
 257 600 l 1
257 571 m 1
 257 600 l 1
 400 600 l 1
 400 571 l 1
 257 571 l 1
257 543 m 1
 257 571 l 1
 400 571 l 1
 400 543 l 1
 257 543 l 1
257 514 m 1
 257 543 l 1
 400 543 l 1
 400 514 l 1
 257 514 l 1
257 486 m 1
 257 514 l 1
 400 514 l 1
 400 486 l 1
 257 486 l 1
257 457 m 1
 257 486 l 1
 400 486 l 1
 400 457 l 1
 257 457 l 1
257 429 m 1
 257 457 l 1
 400 457 l 1
 400 429 l 1
 257 429 l 1
257 400 m 1
 257 429 l 1
 400 429 l 1
 400 400 l 1
 257 400 l 1
257 371 m 1
 257 400 l 1
 400 400 l 1
 400 371 l 1
 257 371 l 1
257 343 m 1
 257 371 l 1
 400 371 l 1
 400 343 l 1
 257 343 l 1
257 314 m 1
 257 343 l 1
 400 343 l 1
 400 314 l 1
 257 314 l 1
257 286 m 1
 257 314 l 1
 400 314 l 1
 400 286 l 1
 257 286 l 1
257 257 m 1
 257 286 l 1
 400 286 l 1
 400 257 l 1
 257 257 l 1
257 229 m 1
 257 257 l 1
 400 257 l 1
 400 229 l 1
 257 229 l 1
257 200 m 1
 257 229 l 1
 400 229 l 1
 400 200 l 1
 257 200 l 1
257 171 m 1
 257 200 l 1
 400 200 l 1
 400 171 l 1
 257 171 l 1
257 143 m 1
 257 171 l 1
 400 171 l 1
 400 143 l 1
 257 143 l 1
257 114 m 1
 257 143 l 1
 400 143 l 1
 400 114 l 1
 257 114 l 1
257 86 m 1
 257 114 l 1
 400 114 l 1
 400 86 l 1
 257 86 l 1
114 57 m 1
 114 86 l 1
 543 86 l 1
 543 57 l 1
 114 57 l 1
114 29 m 1
 114 57 l 1
 543 57 l 1
 543 29 l 1
 114 29 l 1
114 0 m 1
 114 29 l 1
 543 29 l 1
 543 0 l 1
 114 0 l 1
EndSplineSet
EndChar

StartChar: two
Encoding: 50 50 19
Width: 571
Flags: HW
LayerCount: 2
Back
Fore
SplineSet
171 686 m 1
 171 714 l 1
 371 714 l 1
 371 686 l 1
 171 686 l 1
114 657 m 1
 114 686 l 1
 429 686 l 1
 429 657 l 1
 114 657 l 1
114 629 m 1
 114 657 l 1
 457 657 l 1
 457 629 l 1
 114 629 l 1
114 600 m 1
 114 629 l 1
 486 629 l 1
 486 600 l 1
 114 600 l 1
114 571 m 1
 114 600 l 1
 143 600 l 1
 143 571 l 1
 114 571 l 1
314 571 m 1
 314 600 l 1
 514 600 l 1
 514 571 l 1
 314 571 l 1
343 543 m 1
 343 571 l 1
 514 571 l 1
 514 543 l 1
 343 543 l 1
371 514 m 1
 371 543 l 1
 514 543 l 1
 514 514 l 1
 371 514 l 1
371 486 m 1
 371 514 l 1
 514 514 l 1
 514 486 l 1
 371 486 l 1
371 457 m 1
 371 486 l 1
 514 486 l 1
 514 457 l 1
 371 457 l 1
371 429 m 1
 371 457 l 1
 486 457 l 1
 486 429 l 1
 371 429 l 1
343 400 m 1
 343 429 l 1
 486 429 l 1
 486 400 l 1
 343 400 l 1
314 371 m 1
 314 400 l 1
 457 400 l 1
 457 371 l 1
 314 371 l 1
314 343 m 1
 314 371 l 1
 429 371 l 1
 429 343 l 1
 314 343 l 1
286 314 m 1
 286 343 l 1
 400 343 l 1
 400 314 l 1
 286 314 l 1
257 286 m 1
 257 314 l 1
 371 314 l 1
 371 286 l 1
 257 286 l 1
229 257 m 1
 229 286 l 1
 343 286 l 1
 343 257 l 1
 229 257 l 1
200 229 m 1
 200 257 l 1
 314 257 l 1
 314 229 l 1
 200 229 l 1
171 200 m 1
 171 229 l 1
 286 229 l 1
 286 200 l 1
 171 200 l 1
143 171 m 1
 143 200 l 1
 257 200 l 1
 257 171 l 1
 143 171 l 1
114 143 m 1
 114 171 l 1
 257 171 l 1
 257 143 l 1
 114 143 l 1
86 114 m 1
 86 143 l 1
 229 143 l 1
 229 114 l 1
 86 114 l 1
86 86 m 1
 86 114 l 1
 514 114 l 1
 514 86 l 1
 86 86 l 1
86 57 m 1
 86 86 l 1
 514 86 l 1
 514 57 l 1
 86 57 l 1
86 29 m 1
 86 57 l 1
 514 57 l 1
 514 29 l 1
 86 29 l 1
86 0 m 1
 86 29 l 1
 514 29 l 1
 514 0 l 1
 86 0 l 1
EndSplineSet
EndChar

StartChar: three
Encoding: 51 51 20
Width: 571
Flags: HW
LayerCount: 2
Back
Fore
SplineSet
143 686 m 1
 143 714 l 1
 371 714 l 1
 371 686 l 1
 143 686 l 1
86 657 m 1
 86 686 l 1
 429 686 l 1
 429 657 l 1
 86 657 l 1
86 629 m 1
 86 657 l 1
 457 657 l 1
 457 629 l 1
 86 629 l 1
86 600 m 1
 86 629 l 1
 143 629 l 1
 143 600 l 1
 86 600 l 1
314 600 m 1
 314 629 l 1
 457 629 l 1
 457 600 l 1
 314 600 l 1
343 571 m 1
 343 600 l 1
 486 600 l 1
 486 571 l 1
 343 571 l 1
343 543 m 1
 343 571 l 1
 486 571 l 1
 486 543 l 1
 343 543 l 1
343 514 m 1
 343 543 l 1
 486 543 l 1
 486 514 l 1
 343 514 l 1
343 486 m 1
 343 514 l 1
 486 514 l 1
 486 486 l 1
 343 486 l 1
314 457 m 1
 314 486 l 1
 457 486 l 1
 457 457 l 1
 314 457 l 1
257 429 m 1
 257 457 l 1
 457 457 l 1
 457 429 l 1
 257 429 l 1
143 400 m 1
 143 429 l 1
 400 429 l 1
 400 400 l 1
 143 400 l 1
143 371 m 1
 143 400 l 1
 314 400 l 1
 314 371 l 1
 143 371 l 1
143 343 m 1
 143 371 l 1
 400 371 l 1
 400 343 l 1
 143 343 l 1
257 314 m 1
 257 343 l 1
 429 343 l 1
 429 314 l 1
 257 314 l 1
314 286 m 1
 314 314 l 1
 457 314 l 1
 457 286 l 1
 314 286 l 1
314 257 m 1
 314 286 l 1
 457 286 l 1
 457 257 l 1
 314 257 l 1
343 229 m 1
 343 257 l 1
 486 257 l 1
 486 229 l 1
 343 229 l 1
343 200 m 1
 343 229 l 1
 486 229 l 1
 486 200 l 1
 343 200 l 1
343 171 m 1
 343 200 l 1
 486 200 l 1
 486 171 l 1
 343 171 l 1
343 143 m 1
 343 171 l 1
 486 171 l 1
 486 143 l 1
 343 143 l 1
314 114 m 1
 314 143 l 1
 457 143 l 1
 457 114 l 1
 314 114 l 1
86 86 m 1
 86 114 l 1
 114 114 l 1
 114 86 l 1
 86 86 l 1
286 86 m 1
 286 114 l 1
 457 114 l 1
 457 86 l 1
 286 86 l 1
86 57 m 1
 86 86 l 1
 429 86 l 1
 429 57 l 1
 86 57 l 1
86 29 m 1
 86 57 l 1
 400 57 l 1
 400 29 l 1
 86 29 l 1
114 0 m 1
 114 29 l 1
 314 29 l 1
 314 0 l 1
 114 0 l 1
EndSplineSet
EndChar

StartChar: four
Encoding: 52 52 21
Width: 571
Flags: HW
LayerCount: 2
Back
Fore
SplineSet
314 686 m 1
 314 714 l 1
 457 714 l 1
 457 686 l 1
 314 686 l 1
286 657 m 1
 286 686 l 1
 457 686 l 1
 457 657 l 1
 286 657 l 1
286 629 m 1
 286 657 l 1
 457 657 l 1
 457 629 l 1
 286 629 l 1
257 600 m 1
 257 629 l 1
 457 629 l 1
 457 600 l 1
 257 600 l 1
229 571 m 1
 229 600 l 1
 457 600 l 1
 457 571 l 1
 229 571 l 1
229 543 m 1
 229 571 l 1
 457 571 l 1
 457 543 l 1
 229 543 l 1
200 514 m 1
 200 543 l 1
 457 543 l 1
 457 514 l 1
 200 514 l 1
171 486 m 1
 171 514 l 1
 286 514 l 1
 286 486 l 1
 171 486 l 1
314 486 m 1
 314 514 l 1
 457 514 l 1
 457 486 l 1
 314 486 l 1
171 457 m 1
 171 486 l 1
 257 486 l 1
 257 457 l 1
 171 457 l 1
314 457 m 1
 314 486 l 1
 457 486 l 1
 457 457 l 1
 314 457 l 1
143 429 m 1
 143 457 l 1
 257 457 l 1
 257 429 l 1
 143 429 l 1
314 429 m 1
 314 457 l 1
 457 457 l 1
 457 429 l 1
 314 429 l 1
143 400 m 1
 143 429 l 1
 229 429 l 1
 229 400 l 1
 143 400 l 1
314 400 m 1
 314 429 l 1
 457 429 l 1
 457 400 l 1
 314 400 l 1
114 371 m 1
 114 400 l 1
 200 400 l 1
 200 371 l 1
 114 371 l 1
314 371 m 1
 314 400 l 1
 457 400 l 1
 457 371 l 1
 314 371 l 1
86 343 m 1
 86 371 l 1
 200 371 l 1
 200 343 l 1
 86 343 l 1
314 343 m 1
 314 371 l 1
 457 371 l 1
 457 343 l 1
 314 343 l 1
86 314 m 1
 86 343 l 1
 171 343 l 1
 171 314 l 1
 86 314 l 1
314 314 m 1
 314 343 l 1
 457 343 l 1
 457 314 l 1
 314 314 l 1
57 286 m 1
 57 314 l 1
 543 314 l 1
 543 286 l 1
 57 286 l 1
57 257 m 1
 57 286 l 1
 543 286 l 1
 543 257 l 1
 57 257 l 1
57 229 m 1
 57 257 l 1
 543 257 l 1
 543 229 l 1
 57 229 l 1
57 200 m 1
 57 229 l 1
 543 229 l 1
 543 200 l 1
 57 200 l 1
57 171 m 1
 57 200 l 1
 543 200 l 1
 543 171 l 1
 57 171 l 1
314 143 m 1
 314 171 l 1
 457 171 l 1
 457 143 l 1
 314 143 l 1
314 114 m 1
 314 143 l 1
 457 143 l 1
 457 114 l 1
 314 114 l 1
314 86 m 1
 314 114 l 1
 457 114 l 1
 457 86 l 1
 314 86 l 1
314 57 m 1
 314 86 l 1
 457 86 l 1
 457 57 l 1
 314 57 l 1
314 29 m 1
 314 57 l 1
 457 57 l 1
 457 29 l 1
 314 29 l 1
314 0 m 1
 314 29 l 1
 457 29 l 1
 457 0 l 1
 314 0 l 1
EndSplineSet
EndChar

StartChar: five
Encoding: 53 53 22
Width: 571
Flags: HW
LayerCount: 2
Back
Fore
SplineSet
114 686 m 1
 114 714 l 1
 486 714 l 1
 486 686 l 1
 114 686 l 1
114 657 m 1
 114 686 l 1
 486 686 l 1
 486 657 l 1
 114 657 l 1
114 629 m 1
 114 657 l 1
 486 657 l 1
 486 629 l 1
 114 629 l 1
114 600 m 1
 114 629 l 1
 486 629 l 1
 486 600 l 1
 114 600 l 1
114 571 m 1
 114 600 l 1
 229 600 l 1
 229 571 l 1
 114 571 l 1
114 543 m 1
 114 571 l 1
 229 571 l 1
 229 543 l 1
 114 543 l 1
114 514 m 1
 114 543 l 1
 229 543 l 1
 229 514 l 1
 114 514 l 1
114 486 m 1
 114 514 l 1
 200 514 l 1
 200 486 l 1
 114 486 l 1
114 457 m 1
 114 486 l 1
 200 486 l 1
 200 457 l 1
 114 457 l 1
114 429 m 1
 114 457 l 1
 286 457 l 1
 286 429 l 1
 114 429 l 1
114 400 m 1
 114 429 l 1
 371 429 l 1
 371 400 l 1
 114 400 l 1
114 371 m 1
 114 400 l 1
 400 400 l 1
 400 371 l 1
 114 371 l 1
229 343 m 1
 229 371 l 1
 429 371 l 1
 429 343 l 1
 229 343 l 1
286 314 m 1
 286 343 l 1
 457 343 l 1
 457 314 l 1
 286 314 l 1
314 286 m 1
 314 314 l 1
 486 314 l 1
 486 286 l 1
 314 286 l 1
343 257 m 1
 343 286 l 1
 486 286 l 1
 486 257 l 1
 343 257 l 1
343 229 m 1
 343 257 l 1
 486 257 l 1
 486 229 l 1
 343 229 l 1
343 200 m 1
 343 229 l 1
 486 229 l 1
 486 200 l 1
 343 200 l 1
343 171 m 1
 343 200 l 1
 486 200 l 1
 486 171 l 1
 343 171 l 1
343 143 m 1
 343 171 l 1
 486 171 l 1
 486 143 l 1
 343 143 l 1
314 114 m 1
 314 143 l 1
 457 143 l 1
 457 114 l 1
 314 114 l 1
114 86 m 1
 114 114 l 1
 143 114 l 1
 143 86 l 1
 114 86 l 1
286 86 m 1
 286 114 l 1
 457 114 l 1
 457 86 l 1
 286 86 l 1
114 57 m 1
 114 86 l 1
 429 86 l 1
 429 57 l 1
 114 57 l 1
114 29 m 1
 114 57 l 1
 400 57 l 1
 400 29 l 1
 114 29 l 1
143 0 m 1
 143 29 l 1
 343 29 l 1
 343 0 l 1
 143 0 l 1
EndSplineSet
EndChar

StartChar: six
Encoding: 54 54 23
Width: 571
Flags: HW
LayerCount: 2
Back
Fore
SplineSet
286 686 m 1
 286 714 l 1
 486 714 l 1
 486 686 l 1
 286 686 l 1
229 657 m 1
 229 686 l 1
 514 686 l 1
 514 657 l 1
 229 657 l 1
171 629 m 1
 171 657 l 1
 514 657 l 1
 514 629 l 1
 171 629 l 1
143 600 m 1
 143 629 l 1
 314 629 l 1
 314 600 l 1
 143 600 l 1
486 600 m 1
 486 629 l 1
 514 629 l 1
 514 600 l 1
 486 600 l 1
114 571 m 1
 114 600 l 1
 257 600 l 1
 257 571 l 1
 114 571 l 1
114 543 m 1
 114 571 l 1
 257 571 l 1
 257 543 l 1
 114 543 l 1
86 514 m 1
 86 543 l 1
 229 543 l 1
 229 514 l 1
 86 514 l 1
86 486 m 1
 86 514 l 1
 229 514 l 1
 229 486 l 1
 86 486 l 1
86 457 m 1
 86 486 l 1
 200 486 l 1
 200 457 l 1
 86 457 l 1
57 429 m 1
 57 457 l 1
 200 457 l 1
 200 429 l 1
 57 429 l 1
286 429 m 1
 286 457 l 1
 429 457 l 1
 429 429 l 1
 286 429 l 1
57 400 m 1
 57 429 l 1
 200 429 l 1
 200 400 l 1
 57 400 l 1
229 400 m 1
 229 429 l 1
 486 429 l 1
 486 400 l 1
 229 400 l 1
57 371 m 1
 57 400 l 1
 486 400 l 1
 486 371 l 1
 57 371 l 1
57 343 m 1
 57 371 l 1
 514 371 l 1
 514 343 l 1
 57 343 l 1
57 314 m 1
 57 343 l 1
 257 343 l 1
 257 314 l 1
 57 314 l 1
343 314 m 1
 343 343 l 1
 543 343 l 1
 543 314 l 1
 343 314 l 1
57 286 m 1
 57 314 l 1
 229 314 l 1
 229 286 l 1
 57 286 l 1
371 286 m 1
 371 314 l 1
 543 314 l 1
 543 286 l 1
 371 286 l 1
57 257 m 1
 57 286 l 1
 200 286 l 1
 200 257 l 1
 57 257 l 1
400 257 m 1
 400 286 l 1
 543 286 l 1
 543 257 l 1
 400 257 l 1
57 229 m 1
 57 257 l 1
 200 257 l 1
 200 229 l 1
 57 229 l 1
400 229 m 1
 400 257 l 1
 543 257 l 1
 543 229 l 1
 400 229 l 1
57 200 m 1
 57 229 l 1
 200 229 l 1
 200 200 l 1
 57 200 l 1
400 200 m 1
 400 229 l 1
 543 229 l 1
 543 200 l 1
 400 200 l 1
86 171 m 1
 86 200 l 1
 200 200 l 1
 200 171 l 1
 86 171 l 1
400 171 m 1
 400 200 l 1
 543 200 l 1
 543 171 l 1
 400 171 l 1
86 143 m 1
 86 171 l 1
 200 171 l 1
 200 143 l 1
 86 143 l 1
400 143 m 1
 400 171 l 1
 543 171 l 1
 543 143 l 1
 400 143 l 1
114 114 m 1
 114 143 l 1
 229 143 l 1
 229 114 l 1
 114 114 l 1
371 114 m 1
 371 143 l 1
 514 143 l 1
 514 114 l 1
 371 114 l 1
114 86 m 1
 114 114 l 1
 257 114 l 1
 257 86 l 1
 114 86 l 1
343 86 m 1
 343 114 l 1
 514 114 l 1
 514 86 l 1
 343 86 l 1
143 57 m 1
 143 86 l 1
 486 86 l 1
 486 57 l 1
 143 57 l 1
171 29 m 1
 171 57 l 1
 457 57 l 1
 457 29 l 1
 171 29 l 1
229 0 m 1
 229 29 l 1
 400 29 l 1
 400 0 l 1
 229 0 l 1
EndSplineSet
EndChar

StartChar: seven
Encoding: 55 55 24
Width: 571
Flags: HW
LayerCount: 2
Back
Fore
SplineSet
86 686 m 1
 86 714 l 1
 514 714 l 1
 514 686 l 1
 86 686 l 1
86 657 m 1
 86 686 l 1
 514 686 l 1
 514 657 l 1
 86 657 l 1
86 629 m 1
 86 657 l 1
 514 657 l 1
 514 629 l 1
 86 629 l 1
86 600 m 1
 86 629 l 1
 514 629 l 1
 514 600 l 1
 86 600 l 1
400 571 m 1
 400 600 l 1
 514 600 l 1
 514 571 l 1
 400 571 l 1
371 543 m 1
 371 571 l 1
 486 571 l 1
 486 543 l 1
 371 543 l 1
343 514 m 1
 343 543 l 1
 457 543 l 1
 457 514 l 1
 343 514 l 1
343 486 m 1
 343 514 l 1
 457 514 l 1
 457 486 l 1
 343 486 l 1
314 457 m 1
 314 486 l 1
 429 486 l 1
 429 457 l 1
 314 457 l 1
286 429 m 1
 286 457 l 1
 400 457 l 1
 400 429 l 1
 286 429 l 1
286 400 m 1
 286 429 l 1
 400 429 l 1
 400 400 l 1
 286 400 l 1
257 371 m 1
 257 400 l 1
 371 400 l 1
 371 371 l 1
 257 371 l 1
257 343 m 1
 257 371 l 1
 371 371 l 1
 371 343 l 1
 257 343 l 1
229 314 m 1
 229 343 l 1
 343 343 l 1
 343 314 l 1
 229 314 l 1
229 286 m 1
 229 314 l 1
 343 314 l 1
 343 286 l 1
 229 286 l 1
200 257 m 1
 200 286 l 1
 314 286 l 1
 314 257 l 1
 200 257 l 1
171 229 m 1
 171 257 l 1
 314 257 l 1
 314 229 l 1
 171 229 l 1
171 200 m 1
 171 229 l 1
 286 229 l 1
 286 200 l 1
 171 200 l 1
171 171 m 1
 171 200 l 1
 286 200 l 1
 286 171 l 1
 171 171 l 1
143 143 m 1
 143 171 l 1
 286 171 l 1
 286 143 l 1
 143 143 l 1
143 114 m 1
 143 143 l 1
 286 143 l 1
 286 114 l 1
 143 114 l 1
143 86 m 1
 143 114 l 1
 257 114 l 1
 257 86 l 1
 143 86 l 1
114 57 m 1
 114 86 l 1
 257 86 l 1
 257 57 l 1
 114 57 l 1
114 29 m 1
 114 57 l 1
 257 57 l 1
 257 29 l 1
 114 29 l 1
114 0 m 1
 114 29 l 1
 257 29 l 1
 257 0 l 1
 114 0 l 1
EndSplineSet
EndChar

StartChar: eight
Encoding: 56 56 25
Width: 571
Flags: HW
LayerCount: 2
Back
Fore
SplineSet
229 686 m 1
 229 714 l 1
 400 714 l 1
 400 686 l 1
 229 686 l 1
171 657 m 1
 171 686 l 1
 457 686 l 1
 457 657 l 1
 171 657 l 1
114 629 m 1
 114 657 l 1
 486 657 l 1
 486 629 l 1
 114 629 l 1
114 600 m 1
 114 629 l 1
 257 629 l 1
 257 600 l 1
 114 600 l 1
343 600 m 1
 343 629 l 1
 514 629 l 1
 514 600 l 1
 343 600 l 1
86 571 m 1
 86 600 l 1
 229 600 l 1
 229 571 l 1
 86 571 l 1
371 571 m 1
 371 600 l 1
 514 600 l 1
 514 571 l 1
 371 571 l 1
86 543 m 1
 86 571 l 1
 229 571 l 1
 229 543 l 1
 86 543 l 1
371 543 m 1
 371 571 l 1
 514 571 l 1
 514 543 l 1
 371 543 l 1
86 514 m 1
 86 543 l 1
 229 543 l 1
 229 514 l 1
 86 514 l 1
371 514 m 1
 371 543 l 1
 514 543 l 1
 514 514 l 1
 371 514 l 1
86 486 m 1
 86 514 l 1
 257 514 l 1
 257 486 l 1
 86 486 l 1
371 486 m 1
 371 514 l 1
 514 514 l 1
 514 486 l 1
 371 486 l 1
114 457 m 1
 114 486 l 1
 314 486 l 1
 314 457 l 1
 114 457 l 1
343 457 m 1
 343 486 l 1
 486 486 l 1
 486 457 l 1
 343 457 l 1
114 429 m 1
 114 457 l 1
 457 457 l 1
 457 429 l 1
 114 429 l 1
143 400 m 1
 143 429 l 1
 429 429 l 1
 429 400 l 1
 143 400 l 1
200 371 m 1
 200 400 l 1
 429 400 l 1
 429 371 l 1
 200 371 l 1
171 343 m 1
 171 371 l 1
 457 371 l 1
 457 343 l 1
 171 343 l 1
114 314 m 1
 114 343 l 1
 486 343 l 1
 486 314 l 1
 114 314 l 1
86 286 m 1
 86 314 l 1
 257 314 l 1
 257 286 l 1
 86 286 l 1
286 286 m 1
 286 314 l 1
 514 314 l 1
 514 286 l 1
 286 286 l 1
86 257 m 1
 86 286 l 1
 229 286 l 1
 229 257 l 1
 86 257 l 1
314 257 m 1
 314 286 l 1
 514 286 l 1
 514 257 l 1
 314 257 l 1
57 229 m 1
 57 257 l 1
 200 257 l 1
 200 229 l 1
 57 229 l 1
371 229 m 1
 371 257 l 1
 543 257 l 1
 543 229 l 1
 371 229 l 1
57 200 m 1
 57 229 l 1
 200 229 l 1
 200 200 l 1
 57 200 l 1
371 200 m 1
 371 229 l 1
 543 229 l 1
 543 200 l 1
 371 200 l 1
57 171 m 1
 57 200 l 1
 200 200 l 1
 200 171 l 1
 57 171 l 1
400 171 m 1
 400 200 l 1
 543 200 l 1
 543 171 l 1
 400 171 l 1
57 143 m 1
 57 171 l 1
 200 171 l 1
 200 143 l 1
 57 143 l 1
400 143 m 1
 400 171 l 1
 543 171 l 1
 543 143 l 1
 400 143 l 1
57 114 m 1
 57 143 l 1
 229 143 l 1
 229 114 l 1
 57 114 l 1
400 114 m 1
 400 143 l 1
 543 143 l 1
 543 114 l 1
 400 114 l 1
86 86 m 1
 86 114 l 1
 257 114 l 1
 257 86 l 1
 86 86 l 1
371 86 m 1
 371 114 l 1
 514 114 l 1
 514 86 l 1
 371 86 l 1
86 57 m 1
 86 86 l 1
 486 86 l 1
 486 57 l 1
 86 57 l 1
143 29 m 1
 143 57 l 1
 457 57 l 1
 457 29 l 1
 143 29 l 1
200 0 m 1
 200 29 l 1
 400 29 l 1
 400 0 l 1
 200 0 l 1
EndSplineSet
EndChar

StartChar: nine
Encoding: 57 57 26
Width: 571
Flags: HW
LayerCount: 2
Back
Fore
SplineSet
200 686 m 1
 200 714 l 1
 371 714 l 1
 371 686 l 1
 200 686 l 1
143 657 m 1
 143 686 l 1
 429 686 l 1
 429 657 l 1
 143 657 l 1
114 629 m 1
 114 657 l 1
 457 657 l 1
 457 629 l 1
 114 629 l 1
86 600 m 1
 86 629 l 1
 257 629 l 1
 257 600 l 1
 86 600 l 1
343 600 m 1
 343 629 l 1
 486 629 l 1
 486 600 l 1
 343 600 l 1
86 571 m 1
 86 600 l 1
 229 600 l 1
 229 571 l 1
 86 571 l 1
371 571 m 1
 371 600 l 1
 486 600 l 1
 486 571 l 1
 371 571 l 1
57 543 m 1
 57 571 l 1
 200 571 l 1
 200 543 l 1
 57 543 l 1
400 543 m 1
 400 571 l 1
 514 571 l 1
 514 543 l 1
 400 543 l 1
57 514 m 1
 57 543 l 1
 200 543 l 1
 200 514 l 1
 57 514 l 1
400 514 m 1
 400 543 l 1
 514 543 l 1
 514 514 l 1
 400 514 l 1
57 486 m 1
 57 514 l 1
 200 514 l 1
 200 486 l 1
 57 486 l 1
400 486 m 1
 400 514 l 1
 543 514 l 1
 543 486 l 1
 400 486 l 1
57 457 m 1
 57 486 l 1
 200 486 l 1
 200 457 l 1
 57 457 l 1
400 457 m 1
 400 486 l 1
 543 486 l 1
 543 457 l 1
 400 457 l 1
57 429 m 1
 57 457 l 1
 200 457 l 1
 200 429 l 1
 57 429 l 1
400 429 m 1
 400 457 l 1
 543 457 l 1
 543 429 l 1
 400 429 l 1
57 400 m 1
 57 429 l 1
 229 429 l 1
 229 400 l 1
 57 400 l 1
371 400 m 1
 371 429 l 1
 543 429 l 1
 543 400 l 1
 371 400 l 1
57 371 m 1
 57 400 l 1
 257 400 l 1
 257 371 l 1
 57 371 l 1
343 371 m 1
 343 400 l 1
 543 400 l 1
 543 371 l 1
 343 371 l 1
86 343 m 1
 86 371 l 1
 543 371 l 1
 543 343 l 1
 86 343 l 1
114 314 m 1
 114 343 l 1
 543 343 l 1
 543 314 l 1
 114 314 l 1
114 286 m 1
 114 314 l 1
 371 314 l 1
 371 286 l 1
 114 286 l 1
400 286 m 1
 400 314 l 1
 543 314 l 1
 543 286 l 1
 400 286 l 1
171 257 m 1
 171 286 l 1
 314 286 l 1
 314 257 l 1
 171 257 l 1
400 257 m 1
 400 286 l 1
 543 286 l 1
 543 257 l 1
 400 257 l 1
400 229 m 1
 400 257 l 1
 514 257 l 1
 514 229 l 1
 400 229 l 1
371 200 m 1
 371 229 l 1
 514 229 l 1
 514 200 l 1
 371 200 l 1
371 171 m 1
 371 200 l 1
 514 200 l 1
 514 171 l 1
 371 171 l 1
343 143 m 1
 343 171 l 1
 486 171 l 1
 486 143 l 1
 343 143 l 1
343 114 m 1
 343 143 l 1
 486 143 l 1
 486 114 l 1
 343 114 l 1
86 86 m 1
 86 114 l 1
 114 114 l 1
 114 86 l 1
 86 86 l 1
286 86 m 1
 286 114 l 1
 457 114 l 1
 457 86 l 1
 286 86 l 1
86 57 m 1
 86 86 l 1
 429 86 l 1
 429 57 l 1
 86 57 l 1
86 29 m 1
 86 57 l 1
 371 57 l 1
 371 29 l 1
 86 29 l 1
114 0 m 1
 114 29 l 1
 314 29 l 1
 314 0 l 1
 114 0 l 1
EndSplineSet
EndChar

StartChar: colon
Encoding: 58 58 27
Width: 571
Flags: HW
LayerCount: 2
Back
Fore
SplineSet
229 486 m 1
 229 514 l 1
 371 514 l 1
 371 486 l 1
 229 486 l 1
229 457 m 1
 229 486 l 1
 371 486 l 1
 371 457 l 1
 229 457 l 1
229 429 m 1
 229 457 l 1
 371 457 l 1
 371 429 l 1
 229 429 l 1
229 400 m 1
 229 429 l 1
 371 429 l 1
 371 400 l 1
 229 400 l 1
229 371 m 1
 229 400 l 1
 371 400 l 1
 371 371 l 1
 229 371 l 1
229 114 m 1
 229 143 l 1
 371 143 l 1
 371 114 l 1
 229 114 l 1
229 86 m 1
 229 114 l 1
 371 114 l 1
 371 86 l 1
 229 86 l 1
229 57 m 1
 229 86 l 1
 371 86 l 1
 371 57 l 1
 229 57 l 1
229 29 m 1
 229 57 l 1
 371 57 l 1
 371 29 l 1
 229 29 l 1
229 0 m 1
 229 29 l 1
 371 29 l 1
 371 0 l 1
 229 0 l 1
EndSplineSet
EndChar

StartChar: semicolon
Encoding: 59 59 28
Width: 571
Flags: HW
LayerCount: 2
Back
Fore
SplineSet
229 486 m 1
 229 514 l 1
 371 514 l 1
 371 486 l 1
 229 486 l 1
229 457 m 1
 229 486 l 1
 371 486 l 1
 371 457 l 1
 229 457 l 1
229 429 m 1
 229 457 l 1
 371 457 l 1
 371 429 l 1
 229 429 l 1
229 400 m 1
 229 429 l 1
 371 429 l 1
 371 400 l 1
 229 400 l 1
229 371 m 1
 229 400 l 1
 371 400 l 1
 371 371 l 1
 229 371 l 1
229 143 m 1
 229 171 l 1
 371 171 l 1
 371 143 l 1
 229 143 l 1
229 114 m 1
 229 143 l 1
 371 143 l 1
 371 114 l 1
 229 114 l 1
229 86 m 1
 229 114 l 1
 371 114 l 1
 371 86 l 1
 229 86 l 1
229 57 m 1
 229 86 l 1
 371 86 l 1
 371 57 l 1
 229 57 l 1
229 29 m 1
 229 57 l 1
 371 57 l 1
 371 29 l 1
 229 29 l 1
229 0 m 1
 229 29 l 1
 371 29 l 1
 371 0 l 1
 229 0 l 1
257 -29 m 1
 257 0 l 1
 371 0 l 1
 371 -29 l 1
 257 -29 l 1
257 -57 m 1
 257 -29 l 1
 371 -29 l 1
 371 -57 l 1
 257 -57 l 1
257 -86 m 1
 257 -57 l 1
 371 -57 l 1
 371 -86 l 1
 257 -86 l 1
257 -114 m 1
 257 -86 l 1
 343 -86 l 1
 343 -114 l 1
 257 -114 l 1
229 -143 m 1
 229 -114 l 1
 343 -114 l 1
 343 -143 l 1
 229 -143 l 1
229 -171 m 1
 229 -143 l 1
 314 -143 l 1
 314 -171 l 1
 229 -171 l 1
EndSplineSet
EndChar

StartChar: less
Encoding: 60 60 29
Width: 571
Flags: HW
LayerCount: 2
Back
Fore
SplineSet
514 486 m 1
 514 514 l 1
 543 514 l 1
 543 486 l 1
 514 486 l 1
457 457 m 1
 457 486 l 1
 543 486 l 1
 543 457 l 1
 457 457 l 1
400 429 m 1
 400 457 l 1
 543 457 l 1
 543 429 l 1
 400 429 l 1
343 400 m 1
 343 429 l 1
 543 429 l 1
 543 400 l 1
 343 400 l 1
286 371 m 1
 286 400 l 1
 543 400 l 1
 543 371 l 1
 286 371 l 1
229 343 m 1
 229 371 l 1
 486 371 l 1
 486 343 l 1
 229 343 l 1
171 314 m 1
 171 343 l 1
 429 343 l 1
 429 314 l 1
 171 314 l 1
114 286 m 1
 114 314 l 1
 371 314 l 1
 371 286 l 1
 114 286 l 1
29 257 m 1
 29 286 l 1
 314 286 l 1
 314 257 l 1
 29 257 l 1
57 229 m 1
 57 257 l 1
 314 257 l 1
 314 229 l 1
 57 229 l 1
114 200 m 1
 114 229 l 1
 371 229 l 1
 371 200 l 1
 114 200 l 1
171 171 m 1
 171 200 l 1
 429 200 l 1
 429 171 l 1
 171 171 l 1
229 143 m 1
 229 171 l 1
 486 171 l 1
 486 143 l 1
 229 143 l 1
286 114 m 1
 286 143 l 1
 543 143 l 1
 543 114 l 1
 286 114 l 1
343 86 m 1
 343 114 l 1
 543 114 l 1
 543 86 l 1
 343 86 l 1
400 57 m 1
 400 86 l 1
 543 86 l 1
 543 57 l 1
 400 57 l 1
457 29 m 1
 457 57 l 1
 543 57 l 1
 543 29 l 1
 457 29 l 1
514 0 m 1
 514 29 l 1
 543 29 l 1
 543 0 l 1
 514 0 l 1
EndSplineSet
EndChar

StartChar: equal
Encoding: 61 61 30
Width: 571
Flags: HW
LayerCount: 2
Back
Fore
SplineSet
29 400 m 1
 29 429 l 1
 543 429 l 1
 543 400 l 1
 29 400 l 1
29 371 m 1
 29 400 l 1
 543 400 l 1
 543 371 l 1
 29 371 l 1
29 343 m 1
 29 371 l 1
 543 371 l 1
 543 343 l 1
 29 343 l 1
29 314 m 1
 29 343 l 1
 543 343 l 1
 543 314 l 1
 29 314 l 1
29 171 m 1
 29 200 l 1
 543 200 l 1
 543 171 l 1
 29 171 l 1
29 143 m 1
 29 171 l 1
 543 171 l 1
 543 143 l 1
 29 143 l 1
29 114 m 1
 29 143 l 1
 543 143 l 1
 543 114 l 1
 29 114 l 1
29 86 m 1
 29 114 l 1
 543 114 l 1
 543 86 l 1
 29 86 l 1
EndSplineSet
EndChar

StartChar: greater
Encoding: 62 62 31
Width: 571
Flags: HW
LayerCount: 2
Back
Fore
SplineSet
29 486 m 1
 29 514 l 1
 57 514 l 1
 57 486 l 1
 29 486 l 1
29 457 m 1
 29 486 l 1
 114 486 l 1
 114 457 l 1
 29 457 l 1
29 429 m 1
 29 457 l 1
 171 457 l 1
 171 429 l 1
 29 429 l 1
29 400 m 1
 29 429 l 1
 229 429 l 1
 229 400 l 1
 29 400 l 1
29 371 m 1
 29 400 l 1
 286 400 l 1
 286 371 l 1
 29 371 l 1
86 343 m 1
 86 371 l 1
 343 371 l 1
 343 343 l 1
 86 343 l 1
143 314 m 1
 143 343 l 1
 400 343 l 1
 400 314 l 1
 143 314 l 1
200 286 m 1
 200 314 l 1
 457 314 l 1
 457 286 l 1
 200 286 l 1
257 257 m 1
 257 286 l 1
 514 286 l 1
 514 257 l 1
 257 257 l 1
257 229 m 1
 257 257 l 1
 543 257 l 1
 543 229 l 1
 257 229 l 1
200 200 m 1
 200 229 l 1
 457 229 l 1
 457 200 l 1
 200 200 l 1
143 171 m 1
 143 200 l 1
 400 200 l 1
 400 171 l 1
 143 171 l 1
86 143 m 1
 86 171 l 1
 343 171 l 1
 343 143 l 1
 86 143 l 1
29 114 m 1
 29 143 l 1
 286 143 l 1
 286 114 l 1
 29 114 l 1
29 86 m 1
 29 114 l 1
 229 114 l 1
 229 86 l 1
 29 86 l 1
29 57 m 1
 29 86 l 1
 171 86 l 1
 171 57 l 1
 29 57 l 1
29 29 m 1
 29 57 l 1
 114 57 l 1
 114 29 l 1
 29 29 l 1
29 0 m 1
 29 29 l 1
 57 29 l 1
 57 0 l 1
 29 0 l 1
EndSplineSet
EndChar

StartChar: question
Encoding: 63 63 32
Width: 571
Flags: HW
LayerCount: 2
Back
Fore
SplineSet
143 686 m 1
 143 714 l 1
 400 714 l 1
 400 686 l 1
 143 686 l 1
57 657 m 1
 57 686 l 1
 486 686 l 1
 486 657 l 1
 57 657 l 1
57 629 m 1
 57 657 l 1
 514 657 l 1
 514 629 l 1
 57 629 l 1
57 600 m 1
 57 629 l 1
 171 629 l 1
 171 600 l 1
 57 600 l 1
343 600 m 1
 343 629 l 1
 543 629 l 1
 543 600 l 1
 343 600 l 1
57 571 m 1
 57 600 l 1
 143 600 l 1
 143 571 l 1
 57 571 l 1
400 571 m 1
 400 600 l 1
 543 600 l 1
 543 571 l 1
 400 571 l 1
57 543 m 1
 57 571 l 1
 143 571 l 1
 143 543 l 1
 57 543 l 1
400 543 m 1
 400 571 l 1
 543 571 l 1
 543 543 l 1
 400 543 l 1
57 514 m 1
 57 543 l 1
 143 543 l 1
 143 514 l 1
 57 514 l 1
400 514 m 1
 400 543 l 1
 543 543 l 1
 543 514 l 1
 400 514 l 1
371 486 m 1
 371 514 l 1
 543 514 l 1
 543 486 l 1
 371 486 l 1
371 457 m 1
 371 486 l 1
 514 486 l 1
 514 457 l 1
 371 457 l 1
343 429 m 1
 343 457 l 1
 486 457 l 1
 486 429 l 1
 343 429 l 1
286 400 m 1
 286 429 l 1
 457 429 l 1
 457 400 l 1
 286 400 l 1
257 371 m 1
 257 400 l 1
 400 400 l 1
 400 371 l 1
 257 371 l 1
229 343 m 1
 229 371 l 1
 371 371 l 1
 371 343 l 1
 229 343 l 1
200 314 m 1
 200 343 l 1
 314 343 l 1
 314 314 l 1
 200 314 l 1
171 286 m 1
 171 314 l 1
 286 314 l 1
 286 286 l 1
 171 286 l 1
143 257 m 1
 143 286 l 1
 286 286 l 1
 286 257 l 1
 143 257 l 1
143 229 m 1
 143 257 l 1
 286 257 l 1
 286 229 l 1
 143 229 l 1
143 200 m 1
 143 229 l 1
 286 229 l 1
 286 200 l 1
 143 200 l 1
143 86 m 1
 143 114 l 1
 286 114 l 1
 286 86 l 1
 143 86 l 1
143 57 m 1
 143 86 l 1
 286 86 l 1
 286 57 l 1
 143 57 l 1
143 29 m 1
 143 57 l 1
 286 57 l 1
 286 29 l 1
 143 29 l 1
143 0 m 1
 143 29 l 1
 286 29 l 1
 286 0 l 1
 143 0 l 1
EndSplineSet
EndChar

StartChar: at
Encoding: 64 64 33
Width: 571
Flags: HW
LayerCount: 2
Back
Fore
SplineSet
229 686 m 1
 229 714 l 1
 400 714 l 1
 400 686 l 1
 229 686 l 1
171 657 m 1
 171 686 l 1
 457 686 l 1
 457 657 l 1
 171 657 l 1
114 629 m 1
 114 657 l 1
 486 657 l 1
 486 629 l 1
 114 629 l 1
86 600 m 1
 86 629 l 1
 229 629 l 1
 229 600 l 1
 86 600 l 1
371 600 m 1
 371 629 l 1
 486 629 l 1
 486 600 l 1
 371 600 l 1
57 571 m 1
 57 600 l 1
 171 600 l 1
 171 571 l 1
 57 571 l 1
400 571 m 1
 400 600 l 1
 514 600 l 1
 514 571 l 1
 400 571 l 1
57 543 m 1
 57 571 l 1
 143 571 l 1
 143 543 l 1
 57 543 l 1
286 543 m 1
 286 571 l 1
 400 571 l 1
 400 543 l 1
 286 543 l 1
429 543 m 1
 429 571 l 1
 514 571 l 1
 514 543 l 1
 429 543 l 1
29 514 m 1
 29 543 l 1
 143 543 l 1
 143 514 l 1
 29 514 l 1
257 514 m 1
 257 543 l 1
 514 543 l 1
 514 514 l 1
 257 514 l 1
29 486 m 1
 29 514 l 1
 114 514 l 1
 114 486 l 1
 29 486 l 1
229 486 m 1
 229 514 l 1
 514 514 l 1
 514 486 l 1
 229 486 l 1
29 457 m 1
 29 486 l 1
 114 486 l 1
 114 457 l 1
 29 457 l 1
200 457 m 1
 200 486 l 1
 314 486 l 1
 314 457 l 1
 200 457 l 1
429 457 m 1
 429 486 l 1
 514 486 l 1
 514 457 l 1
 429 457 l 1
0 429 m 1
 0 457 l 1
 114 457 l 1
 114 429 l 1
 0 429 l 1
200 429 m 1
 200 457 l 1
 286 457 l 1
 286 429 l 1
 200 429 l 1
429 429 m 1
 429 457 l 1
 514 457 l 1
 514 429 l 1
 429 429 l 1
0 400 m 1
 0 429 l 1
 86 429 l 1
 86 400 l 1
 0 400 l 1
171 400 m 1
 171 429 l 1
 286 429 l 1
 286 400 l 1
 171 400 l 1
429 400 m 1
 429 429 l 1
 514 429 l 1
 514 400 l 1
 429 400 l 1
0 371 m 1
 0 400 l 1
 86 400 l 1
 86 371 l 1
 0 371 l 1
171 371 m 1
 171 400 l 1
 257 400 l 1
 257 371 l 1
 171 371 l 1
429 371 m 1
 429 400 l 1
 514 400 l 1
 514 371 l 1
 429 371 l 1
0 343 m 1
 0 371 l 1
 86 371 l 1
 86 343 l 1
 0 343 l 1
171 343 m 1
 171 371 l 1
 257 371 l 1
 257 343 l 1
 171 343 l 1
400 343 m 1
 400 371 l 1
 514 371 l 1
 514 343 l 1
 400 343 l 1
0 314 m 1
 0 343 l 1
 86 343 l 1
 86 314 l 1
 0 314 l 1
171 314 m 1
 171 343 l 1
 257 343 l 1
 257 314 l 1
 171 314 l 1
400 314 m 1
 400 343 l 1
 514 343 l 1
 514 314 l 1
 400 314 l 1
0 286 m 1
 0 314 l 1
 86 314 l 1
 86 286 l 1
 0 286 l 1
171 286 m 1
 171 314 l 1
 257 314 l 1
 257 286 l 1
 171 286 l 1
371 286 m 1
 371 314 l 1
 514 314 l 1
 514 286 l 1
 371 286 l 1
0 257 m 1
 0 286 l 1
 86 286 l 1
 86 257 l 1
 0 257 l 1
171 257 m 1
 171 286 l 1
 257 286 l 1
 257 257 l 1
 171 257 l 1
343 257 m 1
 343 286 l 1
 514 286 l 1
 514 257 l 1
 343 257 l 1
0 229 m 1
 0 257 l 1
 86 257 l 1
 86 229 l 1
 0 229 l 1
171 229 m 1
 171 257 l 1
 286 257 l 1
 286 229 l 1
 171 229 l 1
343 229 m 1
 343 257 l 1
 400 257 l 1
 400 229 l 1
 343 229 l 1
429 229 m 1
 429 257 l 1
 571 257 l 1
 571 229 l 1
 429 229 l 1
29 200 m 1
 29 229 l 1
 114 229 l 1
 114 200 l 1
 29 200 l 1
200 200 m 1
 200 229 l 1
 400 229 l 1
 400 200 l 1
 200 200 l 1
429 200 m 1
 429 229 l 1
 571 229 l 1
 571 200 l 1
 429 200 l 1
29 171 m 1
 29 200 l 1
 114 200 l 1
 114 171 l 1
 29 171 l 1
200 171 m 1
 200 200 l 1
 371 200 l 1
 371 171 l 1
 200 171 l 1
429 171 m 1
 429 200 l 1
 571 200 l 1
 571 171 l 1
 429 171 l 1
29 143 m 1
 29 171 l 1
 143 171 l 1
 143 143 l 1
 29 143 l 1
229 143 m 1
 229 171 l 1
 343 171 l 1
 343 143 l 1
 229 143 l 1
57 114 m 1
 57 143 l 1
 171 143 l 1
 171 114 l 1
 57 114 l 1
400 114 m 1
 400 143 l 1
 429 143 l 1
 429 114 l 1
 400 114 l 1
57 86 m 1
 57 114 l 1
 200 114 l 1
 200 86 l 1
 57 86 l 1
343 86 m 1
 343 114 l 1
 429 114 l 1
 429 86 l 1
 343 86 l 1
86 57 m 1
 86 86 l 1
 429 86 l 1
 429 57 l 1
 86 57 l 1
114 29 m 1
 114 57 l 1
 429 57 l 1
 429 29 l 1
 114 29 l 1
171 0 m 1
 171 29 l 1
 371 29 l 1
 371 0 l 1
 171 0 l 1
EndSplineSet
EndChar

StartChar: A
Encoding: 65 65 34
Width: 571
Flags: HW
LayerCount: 2
Back
Fore
SplineSet
229 686 m 1
 229 714 l 1
 371 714 l 1
 371 686 l 1
 229 686 l 1
229 657 m 1
 229 686 l 1
 371 686 l 1
 371 657 l 1
 229 657 l 1
200 629 m 1
 200 657 l 1
 400 657 l 1
 400 629 l 1
 200 629 l 1
200 600 m 1
 200 629 l 1
 400 629 l 1
 400 600 l 1
 200 600 l 1
200 571 m 1
 200 600 l 1
 400 600 l 1
 400 571 l 1
 200 571 l 1
171 543 m 1
 171 571 l 1
 429 571 l 1
 429 543 l 1
 171 543 l 1
171 514 m 1
 171 543 l 1
 257 543 l 1
 257 514 l 1
 171 514 l 1
286 514 m 1
 286 543 l 1
 429 543 l 1
 429 514 l 1
 286 514 l 1
171 486 m 1
 171 514 l 1
 257 514 l 1
 257 486 l 1
 171 486 l 1
286 486 m 1
 286 514 l 1
 429 514 l 1
 429 486 l 1
 286 486 l 1
143 457 m 1
 143 486 l 1
 257 486 l 1
 257 457 l 1
 143 457 l 1
286 457 m 1
 286 486 l 1
 429 486 l 1
 429 457 l 1
 286 457 l 1
143 429 m 1
 143 457 l 1
 229 457 l 1
 229 429 l 1
 143 429 l 1
286 429 m 1
 286 457 l 1
 457 457 l 1
 457 429 l 1
 286 429 l 1
143 400 m 1
 143 429 l 1
 229 429 l 1
 229 400 l 1
 143 400 l 1
314 400 m 1
 314 429 l 1
 457 429 l 1
 457 400 l 1
 314 400 l 1
143 371 m 1
 143 400 l 1
 229 400 l 1
 229 371 l 1
 143 371 l 1
314 371 m 1
 314 400 l 1
 457 400 l 1
 457 371 l 1
 314 371 l 1
114 343 m 1
 114 371 l 1
 200 371 l 1
 200 343 l 1
 114 343 l 1
314 343 m 1
 314 371 l 1
 486 371 l 1
 486 343 l 1
 314 343 l 1
114 314 m 1
 114 343 l 1
 200 343 l 1
 200 314 l 1
 114 314 l 1
343 314 m 1
 343 343 l 1
 486 343 l 1
 486 314 l 1
 343 314 l 1
114 286 m 1
 114 314 l 1
 200 314 l 1
 200 286 l 1
 114 286 l 1
343 286 m 1
 343 314 l 1
 486 314 l 1
 486 286 l 1
 343 286 l 1
86 257 m 1
 86 286 l 1
 171 286 l 1
 171 257 l 1
 86 257 l 1
343 257 m 1
 343 286 l 1
 486 286 l 1
 486 257 l 1
 343 257 l 1
86 229 m 1
 86 257 l 1
 514 257 l 1
 514 229 l 1
 86 229 l 1
86 200 m 1
 86 229 l 1
 514 229 l 1
 514 200 l 1
 86 200 l 1
57 171 m 1
 57 200 l 1
 514 200 l 1
 514 171 l 1
 57 171 l 1
57 143 m 1
 57 171 l 1
 143 171 l 1
 143 143 l 1
 57 143 l 1
371 143 m 1
 371 171 l 1
 514 171 l 1
 514 143 l 1
 371 143 l 1
57 114 m 1
 57 143 l 1
 143 143 l 1
 143 114 l 1
 57 114 l 1
400 114 m 1
 400 143 l 1
 543 143 l 1
 543 114 l 1
 400 114 l 1
29 86 m 1
 29 114 l 1
 114 114 l 1
 114 86 l 1
 29 86 l 1
400 86 m 1
 400 114 l 1
 543 114 l 1
 543 86 l 1
 400 86 l 1
29 57 m 1
 29 86 l 1
 114 86 l 1
 114 57 l 1
 29 57 l 1
400 57 m 1
 400 86 l 1
 543 86 l 1
 543 57 l 1
 400 57 l 1
29 29 m 1
 29 57 l 1
 114 57 l 1
 114 29 l 1
 29 29 l 1
400 29 m 1
 400 57 l 1
 571 57 l 1
 571 29 l 1
 400 29 l 1
0 0 m 1
 0 29 l 1
 86 29 l 1
 86 0 l 1
 0 0 l 1
429 0 m 1
 429 29 l 1
 571 29 l 1
 571 0 l 1
 429 0 l 1
EndSplineSet
EndChar

StartChar: B
Encoding: 66 66 35
Width: 571
Flags: HW
LayerCount: 2
Back
Fore
SplineSet
57 686 m 1
 57 714 l 1
 429 714 l 1
 429 686 l 1
 57 686 l 1
57 657 m 1
 57 686 l 1
 486 686 l 1
 486 657 l 1
 57 657 l 1
57 629 m 1
 57 657 l 1
 486 657 l 1
 486 629 l 1
 57 629 l 1
57 600 m 1
 57 629 l 1
 200 629 l 1
 200 600 l 1
 57 600 l 1
343 600 m 1
 343 629 l 1
 514 629 l 1
 514 600 l 1
 343 600 l 1
57 571 m 1
 57 600 l 1
 200 600 l 1
 200 571 l 1
 57 571 l 1
371 571 m 1
 371 600 l 1
 514 600 l 1
 514 571 l 1
 371 571 l 1
57 543 m 1
 57 571 l 1
 200 571 l 1
 200 543 l 1
 57 543 l 1
371 543 m 1
 371 571 l 1
 514 571 l 1
 514 543 l 1
 371 543 l 1
57 514 m 1
 57 543 l 1
 200 543 l 1
 200 514 l 1
 57 514 l 1
371 514 m 1
 371 543 l 1
 514 543 l 1
 514 514 l 1
 371 514 l 1
57 486 m 1
 57 514 l 1
 200 514 l 1
 200 486 l 1
 57 486 l 1
371 486 m 1
 371 514 l 1
 514 514 l 1
 514 486 l 1
 371 486 l 1
57 457 m 1
 57 486 l 1
 200 486 l 1
 200 457 l 1
 57 457 l 1
343 457 m 1
 343 486 l 1
 486 486 l 1
 486 457 l 1
 343 457 l 1
57 429 m 1
 57 457 l 1
 200 457 l 1
 200 429 l 1
 57 429 l 1
314 429 m 1
 314 457 l 1
 486 457 l 1
 486 429 l 1
 314 429 l 1
57 400 m 1
 57 429 l 1
 429 429 l 1
 429 400 l 1
 57 400 l 1
57 371 m 1
 57 400 l 1
 400 400 l 1
 400 371 l 1
 57 371 l 1
57 343 m 1
 57 371 l 1
 429 371 l 1
 429 343 l 1
 57 343 l 1
57 314 m 1
 57 343 l 1
 200 343 l 1
 200 314 l 1
 57 314 l 1
314 314 m 1
 314 343 l 1
 486 343 l 1
 486 314 l 1
 314 314 l 1
57 286 m 1
 57 314 l 1
 200 314 l 1
 200 286 l 1
 57 286 l 1
371 286 m 1
 371 314 l 1
 514 314 l 1
 514 286 l 1
 371 286 l 1
57 257 m 1
 57 286 l 1
 200 286 l 1
 200 257 l 1
 57 257 l 1
371 257 m 1
 371 286 l 1
 514 286 l 1
 514 257 l 1
 371 257 l 1
57 229 m 1
 57 257 l 1
 200 257 l 1
 200 229 l 1
 57 229 l 1
400 229 m 1
 400 257 l 1
 543 257 l 1
 543 229 l 1
 400 229 l 1
57 200 m 1
 57 229 l 1
 200 229 l 1
 200 200 l 1
 57 200 l 1
400 200 m 1
 400 229 l 1
 543 229 l 1
 543 200 l 1
 400 200 l 1
57 171 m 1
 57 200 l 1
 200 200 l 1
 200 171 l 1
 57 171 l 1
400 171 m 1
 400 200 l 1
 543 200 l 1
 543 171 l 1
 400 171 l 1
57 143 m 1
 57 171 l 1
 200 171 l 1
 200 143 l 1
 57 143 l 1
400 143 m 1
 400 171 l 1
 543 171 l 1
 543 143 l 1
 400 143 l 1
57 114 m 1
 57 143 l 1
 200 143 l 1
 200 114 l 1
 57 114 l 1
371 114 m 1
 371 143 l 1
 543 143 l 1
 543 114 l 1
 371 114 l 1
57 86 m 1
 57 114 l 1
 200 114 l 1
 200 86 l 1
 57 86 l 1
343 86 m 1
 343 114 l 1
 514 114 l 1
 514 86 l 1
 343 86 l 1
57 57 m 1
 57 86 l 1
 514 86 l 1
 514 57 l 1
 57 57 l 1
57 29 m 1
 57 57 l 1
 486 57 l 1
 486 29 l 1
 57 29 l 1
57 0 m 1
 57 29 l 1
 429 29 l 1
 429 0 l 1
 57 0 l 1
EndSplineSet
EndChar

StartChar: C
Encoding: 67 67 36
Width: 571
Flags: HW
LayerCount: 2
Back
Fore
SplineSet
257 686 m 1
 257 714 l 1
 543 714 l 1
 543 686 l 1
 257 686 l 1
200 657 m 1
 200 686 l 1
 571 686 l 1
 571 657 l 1
 200 657 l 1
143 629 m 1
 143 657 l 1
 571 657 l 1
 571 629 l 1
 143 629 l 1
114 600 m 1
 114 629 l 1
 314 629 l 1
 314 600 l 1
 114 600 l 1
514 600 m 1
 514 629 l 1
 571 629 l 1
 571 600 l 1
 514 600 l 1
86 571 m 1
 86 600 l 1
 257 600 l 1
 257 571 l 1
 86 571 l 1
86 543 m 1
 86 571 l 1
 229 571 l 1
 229 543 l 1
 86 543 l 1
57 514 m 1
 57 543 l 1
 200 543 l 1
 200 514 l 1
 57 514 l 1
57 486 m 1
 57 514 l 1
 200 514 l 1
 200 486 l 1
 57 486 l 1
29 457 m 1
 29 486 l 1
 171 486 l 1
 171 457 l 1
 29 457 l 1
29 429 m 1
 29 457 l 1
 171 457 l 1
 171 429 l 1
 29 429 l 1
29 400 m 1
 29 429 l 1
 171 429 l 1
 171 400 l 1
 29 400 l 1
29 371 m 1
 29 400 l 1
 171 400 l 1
 171 371 l 1
 29 371 l 1
29 343 m 1
 29 371 l 1
 171 371 l 1
 171 343 l 1
 29 343 l 1
29 314 m 1
 29 343 l 1
 171 343 l 1
 171 314 l 1
 29 314 l 1
29 286 m 1
 29 314 l 1
 171 314 l 1
 171 286 l 1
 29 286 l 1
29 257 m 1
 29 286 l 1
 171 286 l 1
 171 257 l 1
 29 257 l 1
29 229 m 1
 29 257 l 1
 200 257 l 1
 200 229 l 1
 29 229 l 1
57 200 m 1
 57 229 l 1
 200 229 l 1
 200 200 l 1
 57 200 l 1
57 171 m 1
 57 200 l 1
 229 200 l 1
 229 171 l 1
 57 171 l 1
86 143 m 1
 86 171 l 1
 257 171 l 1
 257 143 l 1
 86 143 l 1
543 143 m 1
 543 171 l 1
 571 171 l 1
 571 143 l 1
 543 143 l 1
86 114 m 1
 86 143 l 1
 314 143 l 1
 314 114 l 1
 86 114 l 1
486 114 m 1
 486 143 l 1
 571 143 l 1
 571 114 l 1
 486 114 l 1
114 86 m 1
 114 114 l 1
 571 114 l 1
 571 86 l 1
 114 86 l 1
143 57 m 1
 143 86 l 1
 571 86 l 1
 571 57 l 1
 143 57 l 1
200 29 m 1
 200 57 l 1
 571 57 l 1
 571 29 l 1
 200 29 l 1
257 0 m 1
 257 29 l 1
 486 29 l 1
 486 0 l 1
 257 0 l 1
EndSplineSet
EndChar

StartChar: D
Encoding: 68 68 37
Width: 571
Flags: HW
LayerCount: 2
Back
Fore
SplineSet
57 686 m 1
 57 714 l 1
 400 714 l 1
 400 686 l 1
 57 686 l 1
57 657 m 1
 57 686 l 1
 457 686 l 1
 457 657 l 1
 57 657 l 1
57 629 m 1
 57 657 l 1
 486 657 l 1
 486 629 l 1
 57 629 l 1
57 600 m 1
 57 629 l 1
 200 629 l 1
 200 600 l 1
 57 600 l 1
314 600 m 1
 314 629 l 1
 514 629 l 1
 514 600 l 1
 314 600 l 1
57 571 m 1
 57 600 l 1
 200 600 l 1
 200 571 l 1
 57 571 l 1
371 571 m 1
 371 600 l 1
 543 600 l 1
 543 571 l 1
 371 571 l 1
57 543 m 1
 57 571 l 1
 200 571 l 1
 200 543 l 1
 57 543 l 1
400 543 m 1
 400 571 l 1
 543 571 l 1
 543 543 l 1
 400 543 l 1
57 514 m 1
 57 543 l 1
 200 543 l 1
 200 514 l 1
 57 514 l 1
400 514 m 1
 400 543 l 1
 543 543 l 1
 543 514 l 1
 400 514 l 1
57 486 m 1
 57 514 l 1
 200 514 l 1
 200 486 l 1
 57 486 l 1
400 486 m 1
 400 514 l 1
 571 514 l 1
 571 486 l 1
 400 486 l 1
57 457 m 1
 57 486 l 1
 200 486 l 1
 200 457 l 1
 57 457 l 1
429 457 m 1
 429 486 l 1
 571 486 l 1
 571 457 l 1
 429 457 l 1
57 429 m 1
 57 457 l 1
 200 457 l 1
 200 429 l 1
 57 429 l 1
429 429 m 1
 429 457 l 1
 571 457 l 1
 571 429 l 1
 429 429 l 1
57 400 m 1
 57 429 l 1
 200 429 l 1
 200 400 l 1
 57 400 l 1
429 400 m 1
 429 429 l 1
 571 429 l 1
 571 400 l 1
 429 400 l 1
57 371 m 1
 57 400 l 1
 200 400 l 1
 200 371 l 1
 57 371 l 1
429 371 m 1
 429 400 l 1
 571 400 l 1
 571 371 l 1
 429 371 l 1
57 343 m 1
 57 371 l 1
 200 371 l 1
 200 343 l 1
 57 343 l 1
429 343 m 1
 429 371 l 1
 571 371 l 1
 571 343 l 1
 429 343 l 1
57 314 m 1
 57 343 l 1
 200 343 l 1
 200 314 l 1
 57 314 l 1
429 314 m 1
 429 343 l 1
 571 343 l 1
 571 314 l 1
 429 314 l 1
57 286 m 1
 57 314 l 1
 200 314 l 1
 200 286 l 1
 57 286 l 1
429 286 m 1
 429 314 l 1
 571 314 l 1
 571 286 l 1
 429 286 l 1
57 257 m 1
 57 286 l 1
 200 286 l 1
 200 257 l 1
 57 257 l 1
429 257 m 1
 429 286 l 1
 571 286 l 1
 571 257 l 1
 429 257 l 1
57 229 m 1
 57 257 l 1
 200 257 l 1
 200 229 l 1
 57 229 l 1
429 229 m 1
 429 257 l 1
 571 257 l 1
 571 229 l 1
 429 229 l 1
57 200 m 1
 57 229 l 1
 200 229 l 1
 200 200 l 1
 57 200 l 1
400 200 m 1
 400 229 l 1
 543 229 l 1
 543 200 l 1
 400 200 l 1
57 171 m 1
 57 200 l 1
 200 200 l 1
 200 171 l 1
 57 171 l 1
400 171 m 1
 400 200 l 1
 543 200 l 1
 543 171 l 1
 400 171 l 1
57 143 m 1
 57 171 l 1
 200 171 l 1
 200 143 l 1
 57 143 l 1
400 143 m 1
 400 171 l 1
 543 171 l 1
 543 143 l 1
 400 143 l 1
57 114 m 1
 57 143 l 1
 200 143 l 1
 200 114 l 1
 57 114 l 1
371 114 m 1
 371 143 l 1
 514 143 l 1
 514 114 l 1
 371 114 l 1
57 86 m 1
 57 114 l 1
 200 114 l 1
 200 86 l 1
 57 86 l 1
314 86 m 1
 314 114 l 1
 486 114 l 1
 486 86 l 1
 314 86 l 1
57 57 m 1
 57 86 l 1
 486 86 l 1
 486 57 l 1
 57 57 l 1
57 29 m 1
 57 57 l 1
 429 57 l 1
 429 29 l 1
 57 29 l 1
57 0 m 1
 57 29 l 1
 371 29 l 1
 371 0 l 1
 57 0 l 1
EndSplineSet
EndChar

StartChar: E
Encoding: 69 69 38
Width: 571
Flags: HW
LayerCount: 2
Back
Fore
SplineSet
86 686 m 1
 86 714 l 1
 514 714 l 1
 514 686 l 1
 86 686 l 1
86 657 m 1
 86 686 l 1
 514 686 l 1
 514 657 l 1
 86 657 l 1
86 629 m 1
 86 657 l 1
 514 657 l 1
 514 629 l 1
 86 629 l 1
86 600 m 1
 86 629 l 1
 229 629 l 1
 229 600 l 1
 86 600 l 1
86 571 m 1
 86 600 l 1
 229 600 l 1
 229 571 l 1
 86 571 l 1
86 543 m 1
 86 571 l 1
 229 571 l 1
 229 543 l 1
 86 543 l 1
86 514 m 1
 86 543 l 1
 229 543 l 1
 229 514 l 1
 86 514 l 1
86 486 m 1
 86 514 l 1
 229 514 l 1
 229 486 l 1
 86 486 l 1
86 457 m 1
 86 486 l 1
 229 486 l 1
 229 457 l 1
 86 457 l 1
86 429 m 1
 86 457 l 1
 229 457 l 1
 229 429 l 1
 86 429 l 1
86 400 m 1
 86 429 l 1
 486 429 l 1
 486 400 l 1
 86 400 l 1
86 371 m 1
 86 400 l 1
 486 400 l 1
 486 371 l 1
 86 371 l 1
86 343 m 1
 86 371 l 1
 486 371 l 1
 486 343 l 1
 86 343 l 1
86 314 m 1
 86 343 l 1
 229 343 l 1
 229 314 l 1
 86 314 l 1
86 286 m 1
 86 314 l 1
 229 314 l 1
 229 286 l 1
 86 286 l 1
86 257 m 1
 86 286 l 1
 229 286 l 1
 229 257 l 1
 86 257 l 1
86 229 m 1
 86 257 l 1
 229 257 l 1
 229 229 l 1
 86 229 l 1
86 200 m 1
 86 229 l 1
 229 229 l 1
 229 200 l 1
 86 200 l 1
86 171 m 1
 86 200 l 1
 229 200 l 1
 229 171 l 1
 86 171 l 1
86 143 m 1
 86 171 l 1
 229 171 l 1
 229 143 l 1
 86 143 l 1
86 114 m 1
 86 143 l 1
 229 143 l 1
 229 114 l 1
 86 114 l 1
86 86 m 1
 86 114 l 1
 229 114 l 1
 229 86 l 1
 86 86 l 1
86 57 m 1
 86 86 l 1
 543 86 l 1
 543 57 l 1
 86 57 l 1
86 29 m 1
 86 57 l 1
 543 57 l 1
 543 29 l 1
 86 29 l 1
86 0 m 1
 86 29 l 1
 543 29 l 1
 543 0 l 1
 86 0 l 1
EndSplineSet
EndChar

StartChar: F
Encoding: 70 70 39
Width: 571
Flags: HW
LayerCount: 2
Back
Fore
SplineSet
86 686 m 1
 86 714 l 1
 571 714 l 1
 571 686 l 1
 86 686 l 1
86 657 m 1
 86 686 l 1
 571 686 l 1
 571 657 l 1
 86 657 l 1
86 629 m 1
 86 657 l 1
 571 657 l 1
 571 629 l 1
 86 629 l 1
86 600 m 1
 86 629 l 1
 229 629 l 1
 229 600 l 1
 86 600 l 1
86 571 m 1
 86 600 l 1
 229 600 l 1
 229 571 l 1
 86 571 l 1
86 543 m 1
 86 571 l 1
 229 571 l 1
 229 543 l 1
 86 543 l 1
86 514 m 1
 86 543 l 1
 229 543 l 1
 229 514 l 1
 86 514 l 1
86 486 m 1
 86 514 l 1
 229 514 l 1
 229 486 l 1
 86 486 l 1
86 457 m 1
 86 486 l 1
 229 486 l 1
 229 457 l 1
 86 457 l 1
86 429 m 1
 86 457 l 1
 229 457 l 1
 229 429 l 1
 86 429 l 1
86 400 m 1
 86 429 l 1
 229 429 l 1
 229 400 l 1
 86 400 l 1
86 371 m 1
 86 400 l 1
 514 400 l 1
 514 371 l 1
 86 371 l 1
86 343 m 1
 86 371 l 1
 514 371 l 1
 514 343 l 1
 86 343 l 1
86 314 m 1
 86 343 l 1
 514 343 l 1
 514 314 l 1
 86 314 l 1
86 286 m 1
 86 314 l 1
 229 314 l 1
 229 286 l 1
 86 286 l 1
86 257 m 1
 86 286 l 1
 229 286 l 1
 229 257 l 1
 86 257 l 1
86 229 m 1
 86 257 l 1
 229 257 l 1
 229 229 l 1
 86 229 l 1
86 200 m 1
 86 229 l 1
 229 229 l 1
 229 200 l 1
 86 200 l 1
86 171 m 1
 86 200 l 1
 229 200 l 1
 229 171 l 1
 86 171 l 1
86 143 m 1
 86 171 l 1
 229 171 l 1
 229 143 l 1
 86 143 l 1
86 114 m 1
 86 143 l 1
 229 143 l 1
 229 114 l 1
 86 114 l 1
86 86 m 1
 86 114 l 1
 229 114 l 1
 229 86 l 1
 86 86 l 1
86 57 m 1
 86 86 l 1
 229 86 l 1
 229 57 l 1
 86 57 l 1
86 29 m 1
 86 57 l 1
 229 57 l 1
 229 29 l 1
 86 29 l 1
86 0 m 1
 86 29 l 1
 229 29 l 1
 229 0 l 1
 86 0 l 1
EndSplineSet
EndChar

StartChar: G
Encoding: 71 71 40
Width: 571
Flags: HW
LayerCount: 2
Back
Fore
SplineSet
257 686 m 1
 257 714 l 1
 514 714 l 1
 514 686 l 1
 257 686 l 1
171 657 m 1
 171 686 l 1
 571 686 l 1
 571 657 l 1
 171 657 l 1
143 629 m 1
 143 657 l 1
 571 657 l 1
 571 629 l 1
 143 629 l 1
114 600 m 1
 114 629 l 1
 314 629 l 1
 314 600 l 1
 114 600 l 1
486 600 m 1
 486 629 l 1
 571 629 l 1
 571 600 l 1
 486 600 l 1
86 571 m 1
 86 600 l 1
 257 600 l 1
 257 571 l 1
 86 571 l 1
543 571 m 1
 543 600 l 1
 571 600 l 1
 571 571 l 1
 543 571 l 1
86 543 m 1
 86 571 l 1
 229 571 l 1
 229 543 l 1
 86 543 l 1
57 514 m 1
 57 543 l 1
 200 543 l 1
 200 514 l 1
 57 514 l 1
57 486 m 1
 57 514 l 1
 200 514 l 1
 200 486 l 1
 57 486 l 1
29 457 m 1
 29 486 l 1
 171 486 l 1
 171 457 l 1
 29 457 l 1
29 429 m 1
 29 457 l 1
 171 457 l 1
 171 429 l 1
 29 429 l 1
29 400 m 1
 29 429 l 1
 171 429 l 1
 171 400 l 1
 29 400 l 1
29 371 m 1
 29 400 l 1
 171 400 l 1
 171 371 l 1
 29 371 l 1
29 343 m 1
 29 371 l 1
 171 371 l 1
 171 343 l 1
 29 343 l 1
429 343 m 1
 429 371 l 1
 571 371 l 1
 571 343 l 1
 429 343 l 1
29 314 m 1
 29 343 l 1
 171 343 l 1
 171 314 l 1
 29 314 l 1
429 314 m 1
 429 343 l 1
 571 343 l 1
 571 314 l 1
 429 314 l 1
29 286 m 1
 29 314 l 1
 171 314 l 1
 171 286 l 1
 29 286 l 1
429 286 m 1
 429 314 l 1
 571 314 l 1
 571 286 l 1
 429 286 l 1
29 257 m 1
 29 286 l 1
 171 286 l 1
 171 257 l 1
 29 257 l 1
429 257 m 1
 429 286 l 1
 571 286 l 1
 571 257 l 1
 429 257 l 1
29 229 m 1
 29 257 l 1
 200 257 l 1
 200 229 l 1
 29 229 l 1
429 229 m 1
 429 257 l 1
 571 257 l 1
 571 229 l 1
 429 229 l 1
57 200 m 1
 57 229 l 1
 200 229 l 1
 200 200 l 1
 57 200 l 1
429 200 m 1
 429 229 l 1
 571 229 l 1
 571 200 l 1
 429 200 l 1
57 171 m 1
 57 200 l 1
 229 200 l 1
 229 171 l 1
 57 171 l 1
429 171 m 1
 429 200 l 1
 571 200 l 1
 571 171 l 1
 429 171 l 1
86 143 m 1
 86 171 l 1
 257 171 l 1
 257 143 l 1
 86 143 l 1
429 143 m 1
 429 171 l 1
 571 171 l 1
 571 143 l 1
 429 143 l 1
86 114 m 1
 86 143 l 1
 314 143 l 1
 314 114 l 1
 86 114 l 1
429 114 m 1
 429 143 l 1
 571 143 l 1
 571 114 l 1
 429 114 l 1
114 86 m 1
 114 114 l 1
 571 114 l 1
 571 86 l 1
 114 86 l 1
143 57 m 1
 143 86 l 1
 571 86 l 1
 571 57 l 1
 143 57 l 1
171 29 m 1
 171 57 l 1
 571 57 l 1
 571 29 l 1
 171 29 l 1
257 0 m 1
 257 29 l 1
 486 29 l 1
 486 0 l 1
 257 0 l 1
EndSplineSet
EndChar

StartChar: H
Encoding: 72 72 41
Width: 571
Flags: HW
LayerCount: 2
Back
Fore
SplineSet
57 686 m 1
 57 714 l 1
 200 714 l 1
 200 686 l 1
 57 686 l 1
400 686 m 1
 400 714 l 1
 543 714 l 1
 543 686 l 1
 400 686 l 1
57 657 m 1
 57 686 l 1
 200 686 l 1
 200 657 l 1
 57 657 l 1
400 657 m 1
 400 686 l 1
 543 686 l 1
 543 657 l 1
 400 657 l 1
57 629 m 1
 57 657 l 1
 200 657 l 1
 200 629 l 1
 57 629 l 1
400 629 m 1
 400 657 l 1
 543 657 l 1
 543 629 l 1
 400 629 l 1
57 600 m 1
 57 629 l 1
 200 629 l 1
 200 600 l 1
 57 600 l 1
400 600 m 1
 400 629 l 1
 543 629 l 1
 543 600 l 1
 400 600 l 1
57 571 m 1
 57 600 l 1
 200 600 l 1
 200 571 l 1
 57 571 l 1
400 571 m 1
 400 600 l 1
 543 600 l 1
 543 571 l 1
 400 571 l 1
57 543 m 1
 57 571 l 1
 200 571 l 1
 200 543 l 1
 57 543 l 1
400 543 m 1
 400 571 l 1
 543 571 l 1
 543 543 l 1
 400 543 l 1
57 514 m 1
 57 543 l 1
 200 543 l 1
 200 514 l 1
 57 514 l 1
400 514 m 1
 400 543 l 1
 543 543 l 1
 543 514 l 1
 400 514 l 1
57 486 m 1
 57 514 l 1
 200 514 l 1
 200 486 l 1
 57 486 l 1
400 486 m 1
 400 514 l 1
 543 514 l 1
 543 486 l 1
 400 486 l 1
57 457 m 1
 57 486 l 1
 200 486 l 1
 200 457 l 1
 57 457 l 1
400 457 m 1
 400 486 l 1
 543 486 l 1
 543 457 l 1
 400 457 l 1
57 429 m 1
 57 457 l 1
 200 457 l 1
 200 429 l 1
 57 429 l 1
400 429 m 1
 400 457 l 1
 543 457 l 1
 543 429 l 1
 400 429 l 1
57 400 m 1
 57 429 l 1
 543 429 l 1
 543 400 l 1
 57 400 l 1
57 371 m 1
 57 400 l 1
 543 400 l 1
 543 371 l 1
 57 371 l 1
57 343 m 1
 57 371 l 1
 543 371 l 1
 543 343 l 1
 57 343 l 1
57 314 m 1
 57 343 l 1
 200 343 l 1
 200 314 l 1
 57 314 l 1
400 314 m 1
 400 343 l 1
 543 343 l 1
 543 314 l 1
 400 314 l 1
57 286 m 1
 57 314 l 1
 200 314 l 1
 200 286 l 1
 57 286 l 1
400 286 m 1
 400 314 l 1
 543 314 l 1
 543 286 l 1
 400 286 l 1
57 257 m 1
 57 286 l 1
 200 286 l 1
 200 257 l 1
 57 257 l 1
400 257 m 1
 400 286 l 1
 543 286 l 1
 543 257 l 1
 400 257 l 1
57 229 m 1
 57 257 l 1
 200 257 l 1
 200 229 l 1
 57 229 l 1
400 229 m 1
 400 257 l 1
 543 257 l 1
 543 229 l 1
 400 229 l 1
57 200 m 1
 57 229 l 1
 200 229 l 1
 200 200 l 1
 57 200 l 1
400 200 m 1
 400 229 l 1
 543 229 l 1
 543 200 l 1
 400 200 l 1
57 171 m 1
 57 200 l 1
 200 200 l 1
 200 171 l 1
 57 171 l 1
400 171 m 1
 400 200 l 1
 543 200 l 1
 543 171 l 1
 400 171 l 1
57 143 m 1
 57 171 l 1
 200 171 l 1
 200 143 l 1
 57 143 l 1
400 143 m 1
 400 171 l 1
 543 171 l 1
 543 143 l 1
 400 143 l 1
57 114 m 1
 57 143 l 1
 200 143 l 1
 200 114 l 1
 57 114 l 1
400 114 m 1
 400 143 l 1
 543 143 l 1
 543 114 l 1
 400 114 l 1
57 86 m 1
 57 114 l 1
 200 114 l 1
 200 86 l 1
 57 86 l 1
400 86 m 1
 400 114 l 1
 543 114 l 1
 543 86 l 1
 400 86 l 1
57 57 m 1
 57 86 l 1
 200 86 l 1
 200 57 l 1
 57 57 l 1
400 57 m 1
 400 86 l 1
 543 86 l 1
 543 57 l 1
 400 57 l 1
57 29 m 1
 57 57 l 1
 200 57 l 1
 200 29 l 1
 57 29 l 1
400 29 m 1
 400 57 l 1
 543 57 l 1
 543 29 l 1
 400 29 l 1
57 0 m 1
 57 29 l 1
 200 29 l 1
 200 0 l 1
 57 0 l 1
400 0 m 1
 400 29 l 1
 543 29 l 1
 543 0 l 1
 400 0 l 1
EndSplineSet
EndChar

StartChar: I
Encoding: 73 73 42
Width: 571
Flags: HW
LayerCount: 2
Back
Fore
SplineSet
57 686 m 1
 57 714 l 1
 543 714 l 1
 543 686 l 1
 57 686 l 1
57 657 m 1
 57 686 l 1
 543 686 l 1
 543 657 l 1
 57 657 l 1
57 629 m 1
 57 657 l 1
 543 657 l 1
 543 629 l 1
 57 629 l 1
229 600 m 1
 229 629 l 1
 371 629 l 1
 371 600 l 1
 229 600 l 1
229 571 m 1
 229 600 l 1
 371 600 l 1
 371 571 l 1
 229 571 l 1
229 543 m 1
 229 571 l 1
 371 571 l 1
 371 543 l 1
 229 543 l 1
229 514 m 1
 229 543 l 1
 371 543 l 1
 371 514 l 1
 229 514 l 1
229 486 m 1
 229 514 l 1
 371 514 l 1
 371 486 l 1
 229 486 l 1
229 457 m 1
 229 486 l 1
 371 486 l 1
 371 457 l 1
 229 457 l 1
229 429 m 1
 229 457 l 1
 371 457 l 1
 371 429 l 1
 229 429 l 1
229 400 m 1
 229 429 l 1
 371 429 l 1
 371 400 l 1
 229 400 l 1
229 371 m 1
 229 400 l 1
 371 400 l 1
 371 371 l 1
 229 371 l 1
229 343 m 1
 229 371 l 1
 371 371 l 1
 371 343 l 1
 229 343 l 1
229 314 m 1
 229 343 l 1
 371 343 l 1
 371 314 l 1
 229 314 l 1
229 286 m 1
 229 314 l 1
 371 314 l 1
 371 286 l 1
 229 286 l 1
229 257 m 1
 229 286 l 1
 371 286 l 1
 371 257 l 1
 229 257 l 1
229 229 m 1
 229 257 l 1
 371 257 l 1
 371 229 l 1
 229 229 l 1
229 200 m 1
 229 229 l 1
 371 229 l 1
 371 200 l 1
 229 200 l 1
229 171 m 1
 229 200 l 1
 371 200 l 1
 371 171 l 1
 229 171 l 1
229 143 m 1
 229 171 l 1
 371 171 l 1
 371 143 l 1
 229 143 l 1
229 114 m 1
 229 143 l 1
 371 143 l 1
 371 114 l 1
 229 114 l 1
229 86 m 1
 229 114 l 1
 371 114 l 1
 371 86 l 1
 229 86 l 1
57 57 m 1
 57 86 l 1
 543 86 l 1
 543 57 l 1
 57 57 l 1
57 29 m 1
 57 57 l 1
 543 57 l 1
 543 29 l 1
 57 29 l 1
57 0 m 1
 57 29 l 1
 543 29 l 1
 543 0 l 1
 57 0 l 1
EndSplineSet
EndChar

StartChar: J
Encoding: 74 74 43
Width: 571
Flags: HW
LayerCount: 2
Back
Fore
SplineSet
114 686 m 1
 114 714 l 1
 486 714 l 1
 486 686 l 1
 114 686 l 1
114 657 m 1
 114 686 l 1
 486 686 l 1
 486 657 l 1
 114 657 l 1
114 629 m 1
 114 657 l 1
 486 657 l 1
 486 629 l 1
 114 629 l 1
343 600 m 1
 343 629 l 1
 486 629 l 1
 486 600 l 1
 343 600 l 1
343 571 m 1
 343 600 l 1
 486 600 l 1
 486 571 l 1
 343 571 l 1
343 543 m 1
 343 571 l 1
 486 571 l 1
 486 543 l 1
 343 543 l 1
343 514 m 1
 343 543 l 1
 486 543 l 1
 486 514 l 1
 343 514 l 1
343 486 m 1
 343 514 l 1
 486 514 l 1
 486 486 l 1
 343 486 l 1
343 457 m 1
 343 486 l 1
 486 486 l 1
 486 457 l 1
 343 457 l 1
343 429 m 1
 343 457 l 1
 486 457 l 1
 486 429 l 1
 343 429 l 1
343 400 m 1
 343 429 l 1
 486 429 l 1
 486 400 l 1
 343 400 l 1
343 371 m 1
 343 400 l 1
 486 400 l 1
 486 371 l 1
 343 371 l 1
343 343 m 1
 343 371 l 1
 486 371 l 1
 486 343 l 1
 343 343 l 1
343 314 m 1
 343 343 l 1
 486 343 l 1
 486 314 l 1
 343 314 l 1
343 286 m 1
 343 314 l 1
 486 314 l 1
 486 286 l 1
 343 286 l 1
343 257 m 1
 343 286 l 1
 486 286 l 1
 486 257 l 1
 343 257 l 1
343 229 m 1
 343 257 l 1
 486 257 l 1
 486 229 l 1
 343 229 l 1
343 200 m 1
 343 229 l 1
 486 229 l 1
 486 200 l 1
 343 200 l 1
343 171 m 1
 343 200 l 1
 486 200 l 1
 486 171 l 1
 343 171 l 1
343 143 m 1
 343 171 l 1
 486 171 l 1
 486 143 l 1
 343 143 l 1
314 114 m 1
 314 143 l 1
 457 143 l 1
 457 114 l 1
 314 114 l 1
57 86 m 1
 57 114 l 1
 114 114 l 1
 114 86 l 1
 57 86 l 1
286 86 m 1
 286 114 l 1
 457 114 l 1
 457 86 l 1
 286 86 l 1
57 57 m 1
 57 86 l 1
 429 86 l 1
 429 57 l 1
 57 57 l 1
57 29 m 1
 57 57 l 1
 400 57 l 1
 400 29 l 1
 57 29 l 1
57 0 m 1
 57 29 l 1
 343 29 l 1
 343 0 l 1
 57 0 l 1
EndSplineSet
EndChar

StartChar: K
Encoding: 75 75 44
Width: 571
Flags: HW
LayerCount: 2
Back
Fore
SplineSet
57 686 m 1
 57 714 l 1
 200 714 l 1
 200 686 l 1
 57 686 l 1
429 686 m 1
 429 714 l 1
 571 714 l 1
 571 686 l 1
 429 686 l 1
57 657 m 1
 57 686 l 1
 200 686 l 1
 200 657 l 1
 57 657 l 1
429 657 m 1
 429 686 l 1
 514 686 l 1
 514 657 l 1
 429 657 l 1
57 629 m 1
 57 657 l 1
 200 657 l 1
 200 629 l 1
 57 629 l 1
400 629 m 1
 400 657 l 1
 514 657 l 1
 514 629 l 1
 400 629 l 1
57 600 m 1
 57 629 l 1
 200 629 l 1
 200 600 l 1
 57 600 l 1
371 600 m 1
 371 629 l 1
 486 629 l 1
 486 600 l 1
 371 600 l 1
57 571 m 1
 57 600 l 1
 200 600 l 1
 200 571 l 1
 57 571 l 1
343 571 m 1
 343 600 l 1
 457 600 l 1
 457 571 l 1
 343 571 l 1
57 543 m 1
 57 571 l 1
 200 571 l 1
 200 543 l 1
 57 543 l 1
343 543 m 1
 343 571 l 1
 429 571 l 1
 429 543 l 1
 343 543 l 1
57 514 m 1
 57 543 l 1
 200 543 l 1
 200 514 l 1
 57 514 l 1
314 514 m 1
 314 543 l 1
 429 543 l 1
 429 514 l 1
 314 514 l 1
57 486 m 1
 57 514 l 1
 200 514 l 1
 200 486 l 1
 57 486 l 1
286 486 m 1
 286 514 l 1
 400 514 l 1
 400 486 l 1
 286 486 l 1
57 457 m 1
 57 486 l 1
 200 486 l 1
 200 457 l 1
 57 457 l 1
257 457 m 1
 257 486 l 1
 371 486 l 1
 371 457 l 1
 257 457 l 1
57 429 m 1
 57 457 l 1
 200 457 l 1
 200 429 l 1
 57 429 l 1
257 429 m 1
 257 457 l 1
 343 457 l 1
 343 429 l 1
 257 429 l 1
57 400 m 1
 57 429 l 1
 343 429 l 1
 343 400 l 1
 57 400 l 1
57 371 m 1
 57 400 l 1
 343 400 l 1
 343 371 l 1
 57 371 l 1
57 343 m 1
 57 371 l 1
 343 371 l 1
 343 343 l 1
 57 343 l 1
57 314 m 1
 57 343 l 1
 371 343 l 1
 371 314 l 1
 57 314 l 1
57 286 m 1
 57 314 l 1
 400 314 l 1
 400 286 l 1
 57 286 l 1
57 257 m 1
 57 286 l 1
 200 286 l 1
 200 257 l 1
 57 257 l 1
229 257 m 1
 229 286 l 1
 400 286 l 1
 400 257 l 1
 229 257 l 1
57 229 m 1
 57 257 l 1
 200 257 l 1
 200 229 l 1
 57 229 l 1
257 229 m 1
 257 257 l 1
 429 257 l 1
 429 229 l 1
 257 229 l 1
57 200 m 1
 57 229 l 1
 200 229 l 1
 200 200 l 1
 57 200 l 1
286 200 m 1
 286 229 l 1
 429 229 l 1
 429 200 l 1
 286 200 l 1
57 171 m 1
 57 200 l 1
 200 200 l 1
 200 171 l 1
 57 171 l 1
286 171 m 1
 286 200 l 1
 457 200 l 1
 457 171 l 1
 286 171 l 1
57 143 m 1
 57 171 l 1
 200 171 l 1
 200 143 l 1
 57 143 l 1
314 143 m 1
 314 171 l 1
 486 171 l 1
 486 143 l 1
 314 143 l 1
57 114 m 1
 57 143 l 1
 200 143 l 1
 200 114 l 1
 57 114 l 1
314 114 m 1
 314 143 l 1
 486 143 l 1
 486 114 l 1
 314 114 l 1
57 86 m 1
 57 114 l 1
 200 114 l 1
 200 86 l 1
 57 86 l 1
343 86 m 1
 343 114 l 1
 514 114 l 1
 514 86 l 1
 343 86 l 1
57 57 m 1
 57 86 l 1
 200 86 l 1
 200 57 l 1
 57 57 l 1
371 57 m 1
 371 86 l 1
 543 86 l 1
 543 57 l 1
 371 57 l 1
57 29 m 1
 57 57 l 1
 200 57 l 1
 200 29 l 1
 57 29 l 1
371 29 m 1
 371 57 l 1
 543 57 l 1
 543 29 l 1
 371 29 l 1
57 0 m 1
 57 29 l 1
 200 29 l 1
 200 0 l 1
 57 0 l 1
400 0 m 1
 400 29 l 1
 571 29 l 1
 571 0 l 1
 400 0 l 1
EndSplineSet
EndChar

StartChar: L
Encoding: 76 76 45
Width: 571
Flags: HW
LayerCount: 2
Back
Fore
SplineSet
114 686 m 1
 114 714 l 1
 257 714 l 1
 257 686 l 1
 114 686 l 1
114 657 m 1
 114 686 l 1
 257 686 l 1
 257 657 l 1
 114 657 l 1
114 629 m 1
 114 657 l 1
 257 657 l 1
 257 629 l 1
 114 629 l 1
114 600 m 1
 114 629 l 1
 257 629 l 1
 257 600 l 1
 114 600 l 1
114 571 m 1
 114 600 l 1
 257 600 l 1
 257 571 l 1
 114 571 l 1
114 543 m 1
 114 571 l 1
 257 571 l 1
 257 543 l 1
 114 543 l 1
114 514 m 1
 114 543 l 1
 257 543 l 1
 257 514 l 1
 114 514 l 1
114 486 m 1
 114 514 l 1
 257 514 l 1
 257 486 l 1
 114 486 l 1
114 457 m 1
 114 486 l 1
 257 486 l 1
 257 457 l 1
 114 457 l 1
114 429 m 1
 114 457 l 1
 257 457 l 1
 257 429 l 1
 114 429 l 1
114 400 m 1
 114 429 l 1
 257 429 l 1
 257 400 l 1
 114 400 l 1
114 371 m 1
 114 400 l 1
 257 400 l 1
 257 371 l 1
 114 371 l 1
114 343 m 1
 114 371 l 1
 257 371 l 1
 257 343 l 1
 114 343 l 1
114 314 m 1
 114 343 l 1
 257 343 l 1
 257 314 l 1
 114 314 l 1
114 286 m 1
 114 314 l 1
 257 314 l 1
 257 286 l 1
 114 286 l 1
114 257 m 1
 114 286 l 1
 257 286 l 1
 257 257 l 1
 114 257 l 1
114 229 m 1
 114 257 l 1
 257 257 l 1
 257 229 l 1
 114 229 l 1
114 200 m 1
 114 229 l 1
 257 229 l 1
 257 200 l 1
 114 200 l 1
114 171 m 1
 114 200 l 1
 257 200 l 1
 257 171 l 1
 114 171 l 1
114 143 m 1
 114 171 l 1
 257 171 l 1
 257 143 l 1
 114 143 l 1
114 114 m 1
 114 143 l 1
 257 143 l 1
 257 114 l 1
 114 114 l 1
114 86 m 1
 114 114 l 1
 257 114 l 1
 257 86 l 1
 114 86 l 1
114 57 m 1
 114 86 l 1
 571 86 l 1
 571 57 l 1
 114 57 l 1
114 29 m 1
 114 57 l 1
 571 57 l 1
 571 29 l 1
 114 29 l 1
114 0 m 1
 114 29 l 1
 571 29 l 1
 571 0 l 1
 114 0 l 1
EndSplineSet
EndChar

StartChar: M
Encoding: 77 77 46
Width: 571
Flags: HW
LayerCount: 2
Back
Fore
SplineSet
29 686 m 1
 29 714 l 1
 229 714 l 1
 229 686 l 1
 29 686 l 1
400 686 m 1
 400 714 l 1
 571 714 l 1
 571 686 l 1
 400 686 l 1
29 657 m 1
 29 686 l 1
 229 686 l 1
 229 657 l 1
 29 657 l 1
400 657 m 1
 400 686 l 1
 571 686 l 1
 571 657 l 1
 400 657 l 1
29 629 m 1
 29 657 l 1
 229 657 l 1
 229 629 l 1
 29 629 l 1
371 629 m 1
 371 657 l 1
 571 657 l 1
 571 629 l 1
 371 629 l 1
29 600 m 1
 29 629 l 1
 229 629 l 1
 229 600 l 1
 29 600 l 1
371 600 m 1
 371 629 l 1
 571 629 l 1
 571 600 l 1
 371 600 l 1
29 571 m 1
 29 600 l 1
 229 600 l 1
 229 571 l 1
 29 571 l 1
371 571 m 1
 371 600 l 1
 571 600 l 1
 571 571 l 1
 371 571 l 1
29 543 m 1
 29 571 l 1
 257 571 l 1
 257 543 l 1
 29 543 l 1
371 543 m 1
 371 571 l 1
 571 571 l 1
 571 543 l 1
 371 543 l 1
29 514 m 1
 29 543 l 1
 257 543 l 1
 257 514 l 1
 29 514 l 1
343 514 m 1
 343 543 l 1
 571 543 l 1
 571 514 l 1
 343 514 l 1
29 486 m 1
 29 514 l 1
 257 514 l 1
 257 486 l 1
 29 486 l 1
343 486 m 1
 343 514 l 1
 571 514 l 1
 571 486 l 1
 343 486 l 1
29 457 m 1
 29 486 l 1
 257 486 l 1
 257 457 l 1
 29 457 l 1
343 457 m 1
 343 486 l 1
 571 486 l 1
 571 457 l 1
 343 457 l 1
29 429 m 1
 29 457 l 1
 257 457 l 1
 257 429 l 1
 29 429 l 1
343 429 m 1
 343 457 l 1
 571 457 l 1
 571 429 l 1
 343 429 l 1
29 400 m 1
 29 429 l 1
 143 429 l 1
 143 400 l 1
 29 400 l 1
171 400 m 1
 171 429 l 1
 286 429 l 1
 286 400 l 1
 171 400 l 1
343 400 m 1
 343 429 l 1
 571 429 l 1
 571 400 l 1
 343 400 l 1
29 371 m 1
 29 400 l 1
 143 400 l 1
 143 371 l 1
 29 371 l 1
171 371 m 1
 171 400 l 1
 286 400 l 1
 286 371 l 1
 171 371 l 1
314 371 m 1
 314 400 l 1
 400 400 l 1
 400 371 l 1
 314 371 l 1
429 371 m 1
 429 400 l 1
 571 400 l 1
 571 371 l 1
 429 371 l 1
29 343 m 1
 29 371 l 1
 143 371 l 1
 143 343 l 1
 29 343 l 1
171 343 m 1
 171 371 l 1
 286 371 l 1
 286 343 l 1
 171 343 l 1
314 343 m 1
 314 371 l 1
 400 371 l 1
 400 343 l 1
 314 343 l 1
429 343 m 1
 429 371 l 1
 571 371 l 1
 571 343 l 1
 429 343 l 1
29 314 m 1
 29 343 l 1
 143 343 l 1
 143 314 l 1
 29 314 l 1
171 314 m 1
 171 343 l 1
 286 343 l 1
 286 314 l 1
 171 314 l 1
314 314 m 1
 314 343 l 1
 400 343 l 1
 400 314 l 1
 314 314 l 1
429 314 m 1
 429 343 l 1
 571 343 l 1
 571 314 l 1
 429 314 l 1
29 286 m 1
 29 314 l 1
 143 314 l 1
 143 286 l 1
 29 286 l 1
171 286 m 1
 171 314 l 1
 286 314 l 1
 286 286 l 1
 171 286 l 1
314 286 m 1
 314 314 l 1
 400 314 l 1
 400 286 l 1
 314 286 l 1
429 286 m 1
 429 314 l 1
 571 314 l 1
 571 286 l 1
 429 286 l 1
29 257 m 1
 29 286 l 1
 143 286 l 1
 143 257 l 1
 29 257 l 1
171 257 m 1
 171 286 l 1
 400 286 l 1
 400 257 l 1
 171 257 l 1
429 257 m 1
 429 286 l 1
 571 286 l 1
 571 257 l 1
 429 257 l 1
29 229 m 1
 29 257 l 1
 143 257 l 1
 143 229 l 1
 29 229 l 1
200 229 m 1
 200 257 l 1
 371 257 l 1
 371 229 l 1
 200 229 l 1
429 229 m 1
 429 257 l 1
 571 257 l 1
 571 229 l 1
 429 229 l 1
29 200 m 1
 29 229 l 1
 143 229 l 1
 143 200 l 1
 29 200 l 1
200 200 m 1
 200 229 l 1
 371 229 l 1
 371 200 l 1
 200 200 l 1
429 200 m 1
 429 229 l 1
 571 229 l 1
 571 200 l 1
 429 200 l 1
29 171 m 1
 29 200 l 1
 143 200 l 1
 143 171 l 1
 29 171 l 1
200 171 m 1
 200 200 l 1
 371 200 l 1
 371 171 l 1
 200 171 l 1
429 171 m 1
 429 200 l 1
 571 200 l 1
 571 171 l 1
 429 171 l 1
29 143 m 1
 29 171 l 1
 143 171 l 1
 143 143 l 1
 29 143 l 1
200 143 m 1
 200 171 l 1
 371 171 l 1
 371 143 l 1
 200 143 l 1
429 143 m 1
 429 171 l 1
 571 171 l 1
 571 143 l 1
 429 143 l 1
29 114 m 1
 29 143 l 1
 143 143 l 1
 143 114 l 1
 29 114 l 1
200 114 m 1
 200 143 l 1
 371 143 l 1
 371 114 l 1
 200 114 l 1
429 114 m 1
 429 143 l 1
 571 143 l 1
 571 114 l 1
 429 114 l 1
29 86 m 1
 29 114 l 1
 143 114 l 1
 143 86 l 1
 29 86 l 1
229 86 m 1
 229 114 l 1
 343 114 l 1
 343 86 l 1
 229 86 l 1
429 86 m 1
 429 114 l 1
 571 114 l 1
 571 86 l 1
 429 86 l 1
29 57 m 1
 29 86 l 1
 143 86 l 1
 143 57 l 1
 29 57 l 1
229 57 m 1
 229 86 l 1
 343 86 l 1
 343 57 l 1
 229 57 l 1
429 57 m 1
 429 86 l 1
 571 86 l 1
 571 57 l 1
 429 57 l 1
29 29 m 1
 29 57 l 1
 143 57 l 1
 143 29 l 1
 29 29 l 1
429 29 m 1
 429 57 l 1
 571 57 l 1
 571 29 l 1
 429 29 l 1
29 0 m 1
 29 29 l 1
 143 29 l 1
 143 0 l 1
 29 0 l 1
429 0 m 1
 429 29 l 1
 571 29 l 1
 571 0 l 1
 429 0 l 1
EndSplineSet
EndChar

StartChar: N
Encoding: 78 78 47
Width: 571
Flags: HW
LayerCount: 2
Back
Fore
SplineSet
57 686 m 1
 57 714 l 1
 200 714 l 1
 200 686 l 1
 57 686 l 1
429 686 m 1
 429 714 l 1
 543 714 l 1
 543 686 l 1
 429 686 l 1
57 657 m 1
 57 686 l 1
 229 686 l 1
 229 657 l 1
 57 657 l 1
429 657 m 1
 429 686 l 1
 543 686 l 1
 543 657 l 1
 429 657 l 1
57 629 m 1
 57 657 l 1
 229 657 l 1
 229 629 l 1
 57 629 l 1
429 629 m 1
 429 657 l 1
 543 657 l 1
 543 629 l 1
 429 629 l 1
57 600 m 1
 57 629 l 1
 257 629 l 1
 257 600 l 1
 57 600 l 1
429 600 m 1
 429 629 l 1
 543 629 l 1
 543 600 l 1
 429 600 l 1
57 571 m 1
 57 600 l 1
 257 600 l 1
 257 571 l 1
 57 571 l 1
429 571 m 1
 429 600 l 1
 543 600 l 1
 543 571 l 1
 429 571 l 1
57 543 m 1
 57 571 l 1
 286 571 l 1
 286 543 l 1
 57 543 l 1
429 543 m 1
 429 571 l 1
 543 571 l 1
 543 543 l 1
 429 543 l 1
57 514 m 1
 57 543 l 1
 286 543 l 1
 286 514 l 1
 57 514 l 1
429 514 m 1
 429 543 l 1
 543 543 l 1
 543 514 l 1
 429 514 l 1
57 486 m 1
 57 514 l 1
 314 514 l 1
 314 486 l 1
 57 486 l 1
429 486 m 1
 429 514 l 1
 543 514 l 1
 543 486 l 1
 429 486 l 1
57 457 m 1
 57 486 l 1
 314 486 l 1
 314 457 l 1
 57 457 l 1
429 457 m 1
 429 486 l 1
 543 486 l 1
 543 457 l 1
 429 457 l 1
57 429 m 1
 57 457 l 1
 343 457 l 1
 343 429 l 1
 57 429 l 1
429 429 m 1
 429 457 l 1
 543 457 l 1
 543 429 l 1
 429 429 l 1
57 400 m 1
 57 429 l 1
 171 429 l 1
 171 400 l 1
 57 400 l 1
200 400 m 1
 200 429 l 1
 343 429 l 1
 343 400 l 1
 200 400 l 1
429 400 m 1
 429 429 l 1
 543 429 l 1
 543 400 l 1
 429 400 l 1
57 371 m 1
 57 400 l 1
 171 400 l 1
 171 371 l 1
 57 371 l 1
200 371 m 1
 200 400 l 1
 371 400 l 1
 371 371 l 1
 200 371 l 1
429 371 m 1
 429 400 l 1
 543 400 l 1
 543 371 l 1
 429 371 l 1
57 343 m 1
 57 371 l 1
 171 371 l 1
 171 343 l 1
 57 343 l 1
229 343 m 1
 229 371 l 1
 371 371 l 1
 371 343 l 1
 229 343 l 1
429 343 m 1
 429 371 l 1
 543 371 l 1
 543 343 l 1
 429 343 l 1
57 314 m 1
 57 343 l 1
 171 343 l 1
 171 314 l 1
 57 314 l 1
229 314 m 1
 229 343 l 1
 400 343 l 1
 400 314 l 1
 229 314 l 1
429 314 m 1
 429 343 l 1
 543 343 l 1
 543 314 l 1
 429 314 l 1
57 286 m 1
 57 314 l 1
 171 314 l 1
 171 286 l 1
 57 286 l 1
257 286 m 1
 257 314 l 1
 400 314 l 1
 400 286 l 1
 257 286 l 1
429 286 m 1
 429 314 l 1
 543 314 l 1
 543 286 l 1
 429 286 l 1
57 257 m 1
 57 286 l 1
 171 286 l 1
 171 257 l 1
 57 257 l 1
257 257 m 1
 257 286 l 1
 543 286 l 1
 543 257 l 1
 257 257 l 1
57 229 m 1
 57 257 l 1
 171 257 l 1
 171 229 l 1
 57 229 l 1
286 229 m 1
 286 257 l 1
 543 257 l 1
 543 229 l 1
 286 229 l 1
57 200 m 1
 57 229 l 1
 171 229 l 1
 171 200 l 1
 57 200 l 1
286 200 m 1
 286 229 l 1
 543 229 l 1
 543 200 l 1
 286 200 l 1
57 171 m 1
 57 200 l 1
 171 200 l 1
 171 171 l 1
 57 171 l 1
314 171 m 1
 314 200 l 1
 543 200 l 1
 543 171 l 1
 314 171 l 1
57 143 m 1
 57 171 l 1
 171 171 l 1
 171 143 l 1
 57 143 l 1
314 143 m 1
 314 171 l 1
 543 171 l 1
 543 143 l 1
 314 143 l 1
57 114 m 1
 57 143 l 1
 171 143 l 1
 171 114 l 1
 57 114 l 1
343 114 m 1
 343 143 l 1
 543 143 l 1
 543 114 l 1
 343 114 l 1
57 86 m 1
 57 114 l 1
 171 114 l 1
 171 86 l 1
 57 86 l 1
343 86 m 1
 343 114 l 1
 543 114 l 1
 543 86 l 1
 343 86 l 1
57 57 m 1
 57 86 l 1
 171 86 l 1
 171 57 l 1
 57 57 l 1
371 57 m 1
 371 86 l 1
 543 86 l 1
 543 57 l 1
 371 57 l 1
57 29 m 1
 57 57 l 1
 171 57 l 1
 171 29 l 1
 57 29 l 1
371 29 m 1
 371 57 l 1
 543 57 l 1
 543 29 l 1
 371 29 l 1
57 0 m 1
 57 29 l 1
 171 29 l 1
 171 0 l 1
 57 0 l 1
400 0 m 1
 400 29 l 1
 543 29 l 1
 543 0 l 1
 400 0 l 1
EndSplineSet
EndChar

StartChar: O
Encoding: 79 79 48
Width: 571
Flags: HW
LayerCount: 2
Back
Fore
SplineSet
200 686 m 1
 200 714 l 1
 371 714 l 1
 371 686 l 1
 200 686 l 1
114 657 m 1
 114 686 l 1
 457 686 l 1
 457 657 l 1
 114 657 l 1
86 629 m 1
 86 657 l 1
 486 657 l 1
 486 629 l 1
 86 629 l 1
57 600 m 1
 57 629 l 1
 229 629 l 1
 229 600 l 1
 57 600 l 1
343 600 m 1
 343 629 l 1
 514 629 l 1
 514 600 l 1
 343 600 l 1
57 571 m 1
 57 600 l 1
 200 600 l 1
 200 571 l 1
 57 571 l 1
371 571 m 1
 371 600 l 1
 514 600 l 1
 514 571 l 1
 371 571 l 1
29 543 m 1
 29 571 l 1
 171 571 l 1
 171 543 l 1
 29 543 l 1
400 543 m 1
 400 571 l 1
 543 571 l 1
 543 543 l 1
 400 543 l 1
29 514 m 1
 29 543 l 1
 171 543 l 1
 171 514 l 1
 29 514 l 1
400 514 m 1
 400 543 l 1
 543 543 l 1
 543 514 l 1
 400 514 l 1
29 486 m 1
 29 514 l 1
 143 514 l 1
 143 486 l 1
 29 486 l 1
429 486 m 1
 429 514 l 1
 543 514 l 1
 543 486 l 1
 429 486 l 1
0 457 m 1
 0 486 l 1
 143 486 l 1
 143 457 l 1
 0 457 l 1
429 457 m 1
 429 486 l 1
 571 486 l 1
 571 457 l 1
 429 457 l 1
0 429 m 1
 0 457 l 1
 143 457 l 1
 143 429 l 1
 0 429 l 1
429 429 m 1
 429 457 l 1
 571 457 l 1
 571 429 l 1
 429 429 l 1
0 400 m 1
 0 429 l 1
 143 429 l 1
 143 400 l 1
 0 400 l 1
429 400 m 1
 429 429 l 1
 571 429 l 1
 571 400 l 1
 429 400 l 1
0 371 m 1
 0 400 l 1
 143 400 l 1
 143 371 l 1
 0 371 l 1
429 371 m 1
 429 400 l 1
 571 400 l 1
 571 371 l 1
 429 371 l 1
0 343 m 1
 0 371 l 1
 143 371 l 1
 143 343 l 1
 0 343 l 1
429 343 m 1
 429 371 l 1
 571 371 l 1
 571 343 l 1
 429 343 l 1
0 314 m 1
 0 343 l 1
 143 343 l 1
 143 314 l 1
 0 314 l 1
429 314 m 1
 429 343 l 1
 571 343 l 1
 571 314 l 1
 429 314 l 1
0 286 m 1
 0 314 l 1
 143 314 l 1
 143 286 l 1
 0 286 l 1
429 286 m 1
 429 314 l 1
 571 314 l 1
 571 286 l 1
 429 286 l 1
0 257 m 1
 0 286 l 1
 143 286 l 1
 143 257 l 1
 0 257 l 1
429 257 m 1
 429 286 l 1
 571 286 l 1
 571 257 l 1
 429 257 l 1
0 229 m 1
 0 257 l 1
 143 257 l 1
 143 229 l 1
 0 229 l 1
429 229 m 1
 429 257 l 1
 571 257 l 1
 571 229 l 1
 429 229 l 1
29 200 m 1
 29 229 l 1
 143 229 l 1
 143 200 l 1
 29 200 l 1
429 200 m 1
 429 229 l 1
 543 229 l 1
 543 200 l 1
 429 200 l 1
29 171 m 1
 29 200 l 1
 171 200 l 1
 171 171 l 1
 29 171 l 1
400 171 m 1
 400 200 l 1
 543 200 l 1
 543 171 l 1
 400 171 l 1
29 143 m 1
 29 171 l 1
 171 171 l 1
 171 143 l 1
 29 143 l 1
400 143 m 1
 400 171 l 1
 543 171 l 1
 543 143 l 1
 400 143 l 1
57 114 m 1
 57 143 l 1
 200 143 l 1
 200 114 l 1
 57 114 l 1
371 114 m 1
 371 143 l 1
 514 143 l 1
 514 114 l 1
 371 114 l 1
57 86 m 1
 57 114 l 1
 229 114 l 1
 229 86 l 1
 57 86 l 1
343 86 m 1
 343 114 l 1
 514 114 l 1
 514 86 l 1
 343 86 l 1
86 57 m 1
 86 86 l 1
 486 86 l 1
 486 57 l 1
 86 57 l 1
143 29 m 1
 143 57 l 1
 429 57 l 1
 429 29 l 1
 143 29 l 1
200 0 m 1
 200 29 l 1
 371 29 l 1
 371 0 l 1
 200 0 l 1
EndSplineSet
EndChar

StartChar: P
Encoding: 80 80 49
Width: 571
Flags: HW
LayerCount: 2
Back
Fore
SplineSet
57 686 m 1
 57 714 l 1
 429 714 l 1
 429 686 l 1
 57 686 l 1
57 657 m 1
 57 686 l 1
 486 686 l 1
 486 657 l 1
 57 657 l 1
57 629 m 1
 57 657 l 1
 514 657 l 1
 514 629 l 1
 57 629 l 1
57 600 m 1
 57 629 l 1
 200 629 l 1
 200 600 l 1
 57 600 l 1
343 600 m 1
 343 629 l 1
 514 629 l 1
 514 600 l 1
 343 600 l 1
57 571 m 1
 57 600 l 1
 200 600 l 1
 200 571 l 1
 57 571 l 1
400 571 m 1
 400 600 l 1
 543 600 l 1
 543 571 l 1
 400 571 l 1
57 543 m 1
 57 571 l 1
 200 571 l 1
 200 543 l 1
 57 543 l 1
400 543 m 1
 400 571 l 1
 543 571 l 1
 543 543 l 1
 400 543 l 1
57 514 m 1
 57 543 l 1
 200 543 l 1
 200 514 l 1
 57 514 l 1
400 514 m 1
 400 543 l 1
 543 543 l 1
 543 514 l 1
 400 514 l 1
57 486 m 1
 57 514 l 1
 200 514 l 1
 200 486 l 1
 57 486 l 1
400 486 m 1
 400 514 l 1
 543 514 l 1
 543 486 l 1
 400 486 l 1
57 457 m 1
 57 486 l 1
 200 486 l 1
 200 457 l 1
 57 457 l 1
400 457 m 1
 400 486 l 1
 543 486 l 1
 543 457 l 1
 400 457 l 1
57 429 m 1
 57 457 l 1
 200 457 l 1
 200 429 l 1
 57 429 l 1
400 429 m 1
 400 457 l 1
 543 457 l 1
 543 429 l 1
 400 429 l 1
57 400 m 1
 57 429 l 1
 200 429 l 1
 200 400 l 1
 57 400 l 1
371 400 m 1
 371 429 l 1
 514 429 l 1
 514 400 l 1
 371 400 l 1
57 371 m 1
 57 400 l 1
 200 400 l 1
 200 371 l 1
 57 371 l 1
343 371 m 1
 343 400 l 1
 514 400 l 1
 514 371 l 1
 343 371 l 1
57 343 m 1
 57 371 l 1
 486 371 l 1
 486 343 l 1
 57 343 l 1
57 314 m 1
 57 343 l 1
 457 343 l 1
 457 314 l 1
 57 314 l 1
57 286 m 1
 57 314 l 1
 371 314 l 1
 371 286 l 1
 57 286 l 1
57 257 m 1
 57 286 l 1
 200 286 l 1
 200 257 l 1
 57 257 l 1
57 229 m 1
 57 257 l 1
 200 257 l 1
 200 229 l 1
 57 229 l 1
57 200 m 1
 57 229 l 1
 200 229 l 1
 200 200 l 1
 57 200 l 1
57 171 m 1
 57 200 l 1
 200 200 l 1
 200 171 l 1
 57 171 l 1
57 143 m 1
 57 171 l 1
 200 171 l 1
 200 143 l 1
 57 143 l 1
57 114 m 1
 57 143 l 1
 200 143 l 1
 200 114 l 1
 57 114 l 1
57 86 m 1
 57 114 l 1
 200 114 l 1
 200 86 l 1
 57 86 l 1
57 57 m 1
 57 86 l 1
 200 86 l 1
 200 57 l 1
 57 57 l 1
57 29 m 1
 57 57 l 1
 200 57 l 1
 200 29 l 1
 57 29 l 1
57 0 m 1
 57 29 l 1
 200 29 l 1
 200 0 l 1
 57 0 l 1
EndSplineSet
EndChar

StartChar: Q
Encoding: 81 81 50
Width: 571
Flags: HW
LayerCount: 2
Back
Fore
SplineSet
200 686 m 1
 200 714 l 1
 371 714 l 1
 371 686 l 1
 200 686 l 1
114 657 m 1
 114 686 l 1
 429 686 l 1
 429 657 l 1
 114 657 l 1
86 629 m 1
 86 657 l 1
 486 657 l 1
 486 629 l 1
 86 629 l 1
57 600 m 1
 57 629 l 1
 229 629 l 1
 229 600 l 1
 57 600 l 1
343 600 m 1
 343 629 l 1
 514 629 l 1
 514 600 l 1
 343 600 l 1
57 571 m 1
 57 600 l 1
 200 600 l 1
 200 571 l 1
 57 571 l 1
371 571 m 1
 371 600 l 1
 514 600 l 1
 514 571 l 1
 371 571 l 1
29 543 m 1
 29 571 l 1
 171 571 l 1
 171 543 l 1
 29 543 l 1
400 543 m 1
 400 571 l 1
 543 571 l 1
 543 543 l 1
 400 543 l 1
29 514 m 1
 29 543 l 1
 171 543 l 1
 171 514 l 1
 29 514 l 1
400 514 m 1
 400 543 l 1
 543 543 l 1
 543 514 l 1
 400 514 l 1
29 486 m 1
 29 514 l 1
 143 514 l 1
 143 486 l 1
 29 486 l 1
429 486 m 1
 429 514 l 1
 543 514 l 1
 543 486 l 1
 429 486 l 1
0 457 m 1
 0 486 l 1
 143 486 l 1
 143 457 l 1
 0 457 l 1
429 457 m 1
 429 486 l 1
 571 486 l 1
 571 457 l 1
 429 457 l 1
0 429 m 1
 0 457 l 1
 143 457 l 1
 143 429 l 1
 0 429 l 1
429 429 m 1
 429 457 l 1
 571 457 l 1
 571 429 l 1
 429 429 l 1
0 400 m 1
 0 429 l 1
 143 429 l 1
 143 400 l 1
 0 400 l 1
429 400 m 1
 429 429 l 1
 571 429 l 1
 571 400 l 1
 429 400 l 1
0 371 m 1
 0 400 l 1
 143 400 l 1
 143 371 l 1
 0 371 l 1
429 371 m 1
 429 400 l 1
 571 400 l 1
 571 371 l 1
 429 371 l 1
0 343 m 1
 0 371 l 1
 143 371 l 1
 143 343 l 1
 0 343 l 1
429 343 m 1
 429 371 l 1
 571 371 l 1
 571 343 l 1
 429 343 l 1
0 314 m 1
 0 343 l 1
 143 343 l 1
 143 314 l 1
 0 314 l 1
429 314 m 1
 429 343 l 1
 571 343 l 1
 571 314 l 1
 429 314 l 1
0 286 m 1
 0 314 l 1
 143 314 l 1
 143 286 l 1
 0 286 l 1
429 286 m 1
 429 314 l 1
 571 314 l 1
 571 286 l 1
 429 286 l 1
0 257 m 1
 0 286 l 1
 143 286 l 1
 143 257 l 1
 0 257 l 1
429 257 m 1
 429 286 l 1
 571 286 l 1
 571 257 l 1
 429 257 l 1
0 229 m 1
 0 257 l 1
 143 257 l 1
 143 229 l 1
 0 229 l 1
429 229 m 1
 429 257 l 1
 571 257 l 1
 571 229 l 1
 429 229 l 1
29 200 m 1
 29 229 l 1
 143 229 l 1
 143 200 l 1
 29 200 l 1
429 200 m 1
 429 229 l 1
 571 229 l 1
 571 200 l 1
 429 200 l 1
29 171 m 1
 29 200 l 1
 171 200 l 1
 171 171 l 1
 29 171 l 1
400 171 m 1
 400 200 l 1
 543 200 l 1
 543 171 l 1
 400 171 l 1
29 143 m 1
 29 171 l 1
 171 171 l 1
 171 143 l 1
 29 143 l 1
400 143 m 1
 400 171 l 1
 543 171 l 1
 543 143 l 1
 400 143 l 1
57 114 m 1
 57 143 l 1
 200 143 l 1
 200 114 l 1
 57 114 l 1
371 114 m 1
 371 143 l 1
 514 143 l 1
 514 114 l 1
 371 114 l 1
86 86 m 1
 86 114 l 1
 229 114 l 1
 229 86 l 1
 86 86 l 1
343 86 m 1
 343 114 l 1
 514 114 l 1
 514 86 l 1
 343 86 l 1
86 57 m 1
 86 86 l 1
 486 86 l 1
 486 57 l 1
 86 57 l 1
143 29 m 1
 143 57 l 1
 457 57 l 1
 457 29 l 1
 143 29 l 1
200 0 m 1
 200 29 l 1
 457 29 l 1
 457 0 l 1
 200 0 l 1
314 -29 m 1
 314 0 l 1
 571 0 l 1
 571 -29 l 1
 314 -29 l 1
343 -57 m 1
 343 -29 l 1
 629 -29 l 1
 629 -57 l 1
 343 -57 l 1
371 -86 m 1
 371 -57 l 1
 600 -57 l 1
 600 -86 l 1
 371 -86 l 1
429 -114 m 1
 429 -86 l 1
 571 -86 l 1
 571 -114 l 1
 429 -114 l 1
457 -143 m 1
 457 -114 l 1
 571 -114 l 1
 571 -143 l 1
 457 -143 l 1
486 -171 m 1
 486 -143 l 1
 543 -143 l 1
 543 -171 l 1
 486 -171 l 1
EndSplineSet
EndChar

StartChar: R
Encoding: 82 82 51
Width: 571
Flags: HW
LayerCount: 2
Back
Fore
SplineSet
57 686 m 1
 57 714 l 1
 400 714 l 1
 400 686 l 1
 57 686 l 1
57 657 m 1
 57 686 l 1
 457 686 l 1
 457 657 l 1
 57 657 l 1
57 629 m 1
 57 657 l 1
 486 657 l 1
 486 629 l 1
 57 629 l 1
57 600 m 1
 57 629 l 1
 200 629 l 1
 200 600 l 1
 57 600 l 1
343 600 m 1
 343 629 l 1
 514 629 l 1
 514 600 l 1
 343 600 l 1
57 571 m 1
 57 600 l 1
 200 600 l 1
 200 571 l 1
 57 571 l 1
371 571 m 1
 371 600 l 1
 514 600 l 1
 514 571 l 1
 371 571 l 1
57 543 m 1
 57 571 l 1
 200 571 l 1
 200 543 l 1
 57 543 l 1
371 543 m 1
 371 571 l 1
 514 571 l 1
 514 543 l 1
 371 543 l 1
57 514 m 1
 57 543 l 1
 200 543 l 1
 200 514 l 1
 57 514 l 1
371 514 m 1
 371 543 l 1
 514 543 l 1
 514 514 l 1
 371 514 l 1
57 486 m 1
 57 514 l 1
 200 514 l 1
 200 486 l 1
 57 486 l 1
371 486 m 1
 371 514 l 1
 514 514 l 1
 514 486 l 1
 371 486 l 1
57 457 m 1
 57 486 l 1
 200 486 l 1
 200 457 l 1
 57 457 l 1
343 457 m 1
 343 486 l 1
 514 486 l 1
 514 457 l 1
 343 457 l 1
57 429 m 1
 57 457 l 1
 200 457 l 1
 200 429 l 1
 57 429 l 1
343 429 m 1
 343 457 l 1
 486 457 l 1
 486 429 l 1
 343 429 l 1
57 400 m 1
 57 429 l 1
 200 429 l 1
 200 400 l 1
 57 400 l 1
286 400 m 1
 286 429 l 1
 486 429 l 1
 486 400 l 1
 286 400 l 1
57 371 m 1
 57 400 l 1
 457 400 l 1
 457 371 l 1
 57 371 l 1
57 343 m 1
 57 371 l 1
 429 371 l 1
 429 343 l 1
 57 343 l 1
57 314 m 1
 57 343 l 1
 400 343 l 1
 400 314 l 1
 57 314 l 1
57 286 m 1
 57 314 l 1
 200 314 l 1
 200 286 l 1
 57 286 l 1
257 286 m 1
 257 314 l 1
 400 314 l 1
 400 286 l 1
 257 286 l 1
57 257 m 1
 57 286 l 1
 200 286 l 1
 200 257 l 1
 57 257 l 1
257 257 m 1
 257 286 l 1
 429 286 l 1
 429 257 l 1
 257 257 l 1
57 229 m 1
 57 257 l 1
 200 257 l 1
 200 229 l 1
 57 229 l 1
286 229 m 1
 286 257 l 1
 429 257 l 1
 429 229 l 1
 286 229 l 1
57 200 m 1
 57 229 l 1
 200 229 l 1
 200 200 l 1
 57 200 l 1
286 200 m 1
 286 229 l 1
 457 229 l 1
 457 200 l 1
 286 200 l 1
57 171 m 1
 57 200 l 1
 200 200 l 1
 200 171 l 1
 57 171 l 1
314 171 m 1
 314 200 l 1
 486 200 l 1
 486 171 l 1
 314 171 l 1
57 143 m 1
 57 171 l 1
 200 171 l 1
 200 143 l 1
 57 143 l 1
314 143 m 1
 314 171 l 1
 486 171 l 1
 486 143 l 1
 314 143 l 1
57 114 m 1
 57 143 l 1
 200 143 l 1
 200 114 l 1
 57 114 l 1
343 114 m 1
 343 143 l 1
 514 143 l 1
 514 114 l 1
 343 114 l 1
57 86 m 1
 57 114 l 1
 200 114 l 1
 200 86 l 1
 57 86 l 1
343 86 m 1
 343 114 l 1
 514 114 l 1
 514 86 l 1
 343 86 l 1
57 57 m 1
 57 86 l 1
 200 86 l 1
 200 57 l 1
 57 57 l 1
371 57 m 1
 371 86 l 1
 543 86 l 1
 543 57 l 1
 371 57 l 1
57 29 m 1
 57 57 l 1
 200 57 l 1
 200 29 l 1
 57 29 l 1
371 29 m 1
 371 57 l 1
 543 57 l 1
 543 29 l 1
 371 29 l 1
57 0 m 1
 57 29 l 1
 200 29 l 1
 200 0 l 1
 57 0 l 1
400 0 m 1
 400 29 l 1
 571 29 l 1
 571 0 l 1
 400 0 l 1
EndSplineSet
EndChar

StartChar: S
Encoding: 83 83 52
Width: 571
Flags: HW
LayerCount: 2
Back
Fore
SplineSet
171 686 m 1
 171 714 l 1
 457 714 l 1
 457 686 l 1
 171 686 l 1
114 657 m 1
 114 686 l 1
 486 686 l 1
 486 657 l 1
 114 657 l 1
57 629 m 1
 57 657 l 1
 486 657 l 1
 486 629 l 1
 57 629 l 1
57 600 m 1
 57 629 l 1
 229 629 l 1
 229 600 l 1
 57 600 l 1
429 600 m 1
 429 629 l 1
 486 629 l 1
 486 600 l 1
 429 600 l 1
29 571 m 1
 29 600 l 1
 171 600 l 1
 171 571 l 1
 29 571 l 1
29 543 m 1
 29 571 l 1
 171 571 l 1
 171 543 l 1
 29 543 l 1
29 514 m 1
 29 543 l 1
 171 543 l 1
 171 514 l 1
 29 514 l 1
29 486 m 1
 29 514 l 1
 200 514 l 1
 200 486 l 1
 29 486 l 1
29 457 m 1
 29 486 l 1
 257 486 l 1
 257 457 l 1
 29 457 l 1
57 429 m 1
 57 457 l 1
 314 457 l 1
 314 429 l 1
 57 429 l 1
86 400 m 1
 86 429 l 1
 371 429 l 1
 371 400 l 1
 86 400 l 1
114 371 m 1
 114 400 l 1
 429 400 l 1
 429 371 l 1
 114 371 l 1
171 343 m 1
 171 371 l 1
 457 371 l 1
 457 343 l 1
 171 343 l 1
229 314 m 1
 229 343 l 1
 486 343 l 1
 486 314 l 1
 229 314 l 1
286 286 m 1
 286 314 l 1
 514 314 l 1
 514 286 l 1
 286 286 l 1
343 257 m 1
 343 286 l 1
 543 286 l 1
 543 257 l 1
 343 257 l 1
371 229 m 1
 371 257 l 1
 543 257 l 1
 543 229 l 1
 371 229 l 1
400 200 m 1
 400 229 l 1
 543 229 l 1
 543 200 l 1
 400 200 l 1
400 171 m 1
 400 200 l 1
 543 200 l 1
 543 171 l 1
 400 171 l 1
29 143 m 1
 29 171 l 1
 57 171 l 1
 57 143 l 1
 29 143 l 1
371 143 m 1
 371 171 l 1
 543 171 l 1
 543 143 l 1
 371 143 l 1
29 114 m 1
 29 143 l 1
 143 143 l 1
 143 114 l 1
 29 114 l 1
343 114 m 1
 343 143 l 1
 543 143 l 1
 543 114 l 1
 343 114 l 1
29 86 m 1
 29 114 l 1
 514 114 l 1
 514 86 l 1
 29 86 l 1
29 57 m 1
 29 86 l 1
 486 86 l 1
 486 57 l 1
 29 57 l 1
29 29 m 1
 29 57 l 1
 457 57 l 1
 457 29 l 1
 29 29 l 1
86 0 m 1
 86 29 l 1
 371 29 l 1
 371 0 l 1
 86 0 l 1
EndSplineSet
EndChar

StartChar: T
Encoding: 84 84 53
Width: 571
Flags: HW
LayerCount: 2
Back
Fore
SplineSet
29 686 m 1
 29 714 l 1
 571 714 l 1
 571 686 l 1
 29 686 l 1
29 657 m 1
 29 686 l 1
 571 686 l 1
 571 657 l 1
 29 657 l 1
29 629 m 1
 29 657 l 1
 571 657 l 1
 571 629 l 1
 29 629 l 1
229 600 m 1
 229 629 l 1
 371 629 l 1
 371 600 l 1
 229 600 l 1
229 571 m 1
 229 600 l 1
 371 600 l 1
 371 571 l 1
 229 571 l 1
229 543 m 1
 229 571 l 1
 371 571 l 1
 371 543 l 1
 229 543 l 1
229 514 m 1
 229 543 l 1
 371 543 l 1
 371 514 l 1
 229 514 l 1
229 486 m 1
 229 514 l 1
 371 514 l 1
 371 486 l 1
 229 486 l 1
229 457 m 1
 229 486 l 1
 371 486 l 1
 371 457 l 1
 229 457 l 1
229 429 m 1
 229 457 l 1
 371 457 l 1
 371 429 l 1
 229 429 l 1
229 400 m 1
 229 429 l 1
 371 429 l 1
 371 400 l 1
 229 400 l 1
229 371 m 1
 229 400 l 1
 371 400 l 1
 371 371 l 1
 229 371 l 1
229 343 m 1
 229 371 l 1
 371 371 l 1
 371 343 l 1
 229 343 l 1
229 314 m 1
 229 343 l 1
 371 343 l 1
 371 314 l 1
 229 314 l 1
229 286 m 1
 229 314 l 1
 371 314 l 1
 371 286 l 1
 229 286 l 1
229 257 m 1
 229 286 l 1
 371 286 l 1
 371 257 l 1
 229 257 l 1
229 229 m 1
 229 257 l 1
 371 257 l 1
 371 229 l 1
 229 229 l 1
229 200 m 1
 229 229 l 1
 371 229 l 1
 371 200 l 1
 229 200 l 1
229 171 m 1
 229 200 l 1
 371 200 l 1
 371 171 l 1
 229 171 l 1
229 143 m 1
 229 171 l 1
 371 171 l 1
 371 143 l 1
 229 143 l 1
229 114 m 1
 229 143 l 1
 371 143 l 1
 371 114 l 1
 229 114 l 1
229 86 m 1
 229 114 l 1
 371 114 l 1
 371 86 l 1
 229 86 l 1
229 57 m 1
 229 86 l 1
 371 86 l 1
 371 57 l 1
 229 57 l 1
229 29 m 1
 229 57 l 1
 371 57 l 1
 371 29 l 1
 229 29 l 1
229 0 m 1
 229 29 l 1
 371 29 l 1
 371 0 l 1
 229 0 l 1
EndSplineSet
EndChar

StartChar: U
Encoding: 85 85 54
Width: 571
Flags: HW
LayerCount: 2
Back
Fore
SplineSet
57 686 m 1
 57 714 l 1
 200 714 l 1
 200 686 l 1
 57 686 l 1
400 686 m 1
 400 714 l 1
 543 714 l 1
 543 686 l 1
 400 686 l 1
57 657 m 1
 57 686 l 1
 200 686 l 1
 200 657 l 1
 57 657 l 1
400 657 m 1
 400 686 l 1
 543 686 l 1
 543 657 l 1
 400 657 l 1
57 629 m 1
 57 657 l 1
 200 657 l 1
 200 629 l 1
 57 629 l 1
400 629 m 1
 400 657 l 1
 543 657 l 1
 543 629 l 1
 400 629 l 1
57 600 m 1
 57 629 l 1
 200 629 l 1
 200 600 l 1
 57 600 l 1
400 600 m 1
 400 629 l 1
 543 629 l 1
 543 600 l 1
 400 600 l 1
57 571 m 1
 57 600 l 1
 200 600 l 1
 200 571 l 1
 57 571 l 1
400 571 m 1
 400 600 l 1
 543 600 l 1
 543 571 l 1
 400 571 l 1
57 543 m 1
 57 571 l 1
 200 571 l 1
 200 543 l 1
 57 543 l 1
400 543 m 1
 400 571 l 1
 543 571 l 1
 543 543 l 1
 400 543 l 1
57 514 m 1
 57 543 l 1
 200 543 l 1
 200 514 l 1
 57 514 l 1
400 514 m 1
 400 543 l 1
 543 543 l 1
 543 514 l 1
 400 514 l 1
57 486 m 1
 57 514 l 1
 200 514 l 1
 200 486 l 1
 57 486 l 1
400 486 m 1
 400 514 l 1
 543 514 l 1
 543 486 l 1
 400 486 l 1
57 457 m 1
 57 486 l 1
 200 486 l 1
 200 457 l 1
 57 457 l 1
400 457 m 1
 400 486 l 1
 543 486 l 1
 543 457 l 1
 400 457 l 1
57 429 m 1
 57 457 l 1
 200 457 l 1
 200 429 l 1
 57 429 l 1
400 429 m 1
 400 457 l 1
 543 457 l 1
 543 429 l 1
 400 429 l 1
57 400 m 1
 57 429 l 1
 200 429 l 1
 200 400 l 1
 57 400 l 1
400 400 m 1
 400 429 l 1
 543 429 l 1
 543 400 l 1
 400 400 l 1
57 371 m 1
 57 400 l 1
 200 400 l 1
 200 371 l 1
 57 371 l 1
400 371 m 1
 400 400 l 1
 543 400 l 1
 543 371 l 1
 400 371 l 1
57 343 m 1
 57 371 l 1
 200 371 l 1
 200 343 l 1
 57 343 l 1
400 343 m 1
 400 371 l 1
 543 371 l 1
 543 343 l 1
 400 343 l 1
57 314 m 1
 57 343 l 1
 200 343 l 1
 200 314 l 1
 57 314 l 1
400 314 m 1
 400 343 l 1
 543 343 l 1
 543 314 l 1
 400 314 l 1
57 286 m 1
 57 314 l 1
 200 314 l 1
 200 286 l 1
 57 286 l 1
400 286 m 1
 400 314 l 1
 543 314 l 1
 543 286 l 1
 400 286 l 1
57 257 m 1
 57 286 l 1
 200 286 l 1
 200 257 l 1
 57 257 l 1
400 257 m 1
 400 286 l 1
 543 286 l 1
 543 257 l 1
 400 257 l 1
57 229 m 1
 57 257 l 1
 200 257 l 1
 200 229 l 1
 57 229 l 1
400 229 m 1
 400 257 l 1
 543 257 l 1
 543 229 l 1
 400 229 l 1
57 200 m 1
 57 229 l 1
 200 229 l 1
 200 200 l 1
 57 200 l 1
400 200 m 1
 400 229 l 1
 543 229 l 1
 543 200 l 1
 400 200 l 1
57 171 m 1
 57 200 l 1
 200 200 l 1
 200 171 l 1
 57 171 l 1
400 171 m 1
 400 200 l 1
 543 200 l 1
 543 171 l 1
 400 171 l 1
57 143 m 1
 57 171 l 1
 200 171 l 1
 200 143 l 1
 57 143 l 1
400 143 m 1
 400 171 l 1
 543 171 l 1
 543 143 l 1
 400 143 l 1
86 114 m 1
 86 143 l 1
 229 143 l 1
 229 114 l 1
 86 114 l 1
371 114 m 1
 371 143 l 1
 514 143 l 1
 514 114 l 1
 371 114 l 1
86 86 m 1
 86 114 l 1
 257 114 l 1
 257 86 l 1
 86 86 l 1
343 86 m 1
 343 114 l 1
 514 114 l 1
 514 86 l 1
 343 86 l 1
114 57 m 1
 114 86 l 1
 486 86 l 1
 486 57 l 1
 114 57 l 1
143 29 m 1
 143 57 l 1
 457 57 l 1
 457 29 l 1
 143 29 l 1
200 0 m 1
 200 29 l 1
 429 29 l 1
 429 0 l 1
 200 0 l 1
EndSplineSet
EndChar

StartChar: V
Encoding: 86 86 55
Width: 571
Flags: HW
LayerCount: 2
Back
Fore
SplineSet
0 686 m 1
 0 714 l 1
 143 714 l 1
 143 686 l 1
 0 686 l 1
457 686 m 1
 457 714 l 1
 571 714 l 1
 571 686 l 1
 457 686 l 1
0 657 m 1
 0 686 l 1
 171 686 l 1
 171 657 l 1
 0 657 l 1
457 657 m 1
 457 686 l 1
 571 686 l 1
 571 657 l 1
 457 657 l 1
29 629 m 1
 29 657 l 1
 171 657 l 1
 171 629 l 1
 29 629 l 1
429 629 m 1
 429 657 l 1
 571 657 l 1
 571 629 l 1
 429 629 l 1
29 600 m 1
 29 629 l 1
 171 629 l 1
 171 600 l 1
 29 600 l 1
429 600 m 1
 429 629 l 1
 543 629 l 1
 543 600 l 1
 429 600 l 1
29 571 m 1
 29 600 l 1
 171 600 l 1
 171 571 l 1
 29 571 l 1
429 571 m 1
 429 600 l 1
 543 600 l 1
 543 571 l 1
 429 571 l 1
57 543 m 1
 57 571 l 1
 200 571 l 1
 200 543 l 1
 57 543 l 1
400 543 m 1
 400 571 l 1
 543 571 l 1
 543 543 l 1
 400 543 l 1
57 514 m 1
 57 543 l 1
 200 543 l 1
 200 514 l 1
 57 514 l 1
400 514 m 1
 400 543 l 1
 514 543 l 1
 514 514 l 1
 400 514 l 1
57 486 m 1
 57 514 l 1
 200 514 l 1
 200 486 l 1
 57 486 l 1
400 486 m 1
 400 514 l 1
 514 514 l 1
 514 486 l 1
 400 486 l 1
57 457 m 1
 57 486 l 1
 229 486 l 1
 229 457 l 1
 57 457 l 1
371 457 m 1
 371 486 l 1
 514 486 l 1
 514 457 l 1
 371 457 l 1
86 429 m 1
 86 457 l 1
 229 457 l 1
 229 429 l 1
 86 429 l 1
371 429 m 1
 371 457 l 1
 486 457 l 1
 486 429 l 1
 371 429 l 1
86 400 m 1
 86 429 l 1
 229 429 l 1
 229 400 l 1
 86 400 l 1
371 400 m 1
 371 429 l 1
 486 429 l 1
 486 400 l 1
 371 400 l 1
86 371 m 1
 86 400 l 1
 229 400 l 1
 229 371 l 1
 86 371 l 1
371 371 m 1
 371 400 l 1
 486 400 l 1
 486 371 l 1
 371 371 l 1
114 343 m 1
 114 371 l 1
 257 371 l 1
 257 343 l 1
 114 343 l 1
343 343 m 1
 343 371 l 1
 457 371 l 1
 457 343 l 1
 343 343 l 1
114 314 m 1
 114 343 l 1
 257 343 l 1
 257 314 l 1
 114 314 l 1
343 314 m 1
 343 343 l 1
 457 343 l 1
 457 314 l 1
 343 314 l 1
114 286 m 1
 114 314 l 1
 257 314 l 1
 257 286 l 1
 114 286 l 1
343 286 m 1
 343 314 l 1
 457 314 l 1
 457 286 l 1
 343 286 l 1
114 257 m 1
 114 286 l 1
 286 286 l 1
 286 257 l 1
 114 257 l 1
314 257 m 1
 314 286 l 1
 429 286 l 1
 429 257 l 1
 314 257 l 1
143 229 m 1
 143 257 l 1
 286 257 l 1
 286 229 l 1
 143 229 l 1
314 229 m 1
 314 257 l 1
 429 257 l 1
 429 229 l 1
 314 229 l 1
143 200 m 1
 143 229 l 1
 286 229 l 1
 286 200 l 1
 143 200 l 1
314 200 m 1
 314 229 l 1
 429 229 l 1
 429 200 l 1
 314 200 l 1
143 171 m 1
 143 200 l 1
 429 200 l 1
 429 171 l 1
 143 171 l 1
171 143 m 1
 171 171 l 1
 400 171 l 1
 400 143 l 1
 171 143 l 1
171 114 m 1
 171 143 l 1
 400 143 l 1
 400 114 l 1
 171 114 l 1
171 86 m 1
 171 114 l 1
 400 114 l 1
 400 86 l 1
 171 86 l 1
171 57 m 1
 171 86 l 1
 371 86 l 1
 371 57 l 1
 171 57 l 1
200 29 m 1
 200 57 l 1
 371 57 l 1
 371 29 l 1
 200 29 l 1
200 0 m 1
 200 29 l 1
 371 29 l 1
 371 0 l 1
 200 0 l 1
EndSplineSet
EndChar

StartChar: W
Encoding: 87 87 56
Width: 571
Flags: HW
LayerCount: 2
Back
Fore
SplineSet
0 686 m 1
 0 714 l 1
 143 714 l 1
 143 686 l 1
 0 686 l 1
486 686 m 1
 486 714 l 1
 571 714 l 1
 571 686 l 1
 486 686 l 1
0 657 m 1
 0 686 l 1
 143 686 l 1
 143 657 l 1
 0 657 l 1
486 657 m 1
 486 686 l 1
 571 686 l 1
 571 657 l 1
 486 657 l 1
0 629 m 1
 0 657 l 1
 143 657 l 1
 143 629 l 1
 0 629 l 1
257 629 m 1
 257 657 l 1
 371 657 l 1
 371 629 l 1
 257 629 l 1
486 629 m 1
 486 657 l 1
 571 657 l 1
 571 629 l 1
 486 629 l 1
0 600 m 1
 0 629 l 1
 143 629 l 1
 143 600 l 1
 0 600 l 1
229 600 m 1
 229 629 l 1
 371 629 l 1
 371 600 l 1
 229 600 l 1
486 600 m 1
 486 629 l 1
 571 629 l 1
 571 600 l 1
 486 600 l 1
29 571 m 1
 29 600 l 1
 171 600 l 1
 171 571 l 1
 29 571 l 1
229 571 m 1
 229 600 l 1
 371 600 l 1
 371 571 l 1
 229 571 l 1
457 571 m 1
 457 600 l 1
 543 600 l 1
 543 571 l 1
 457 571 l 1
29 543 m 1
 29 571 l 1
 171 571 l 1
 171 543 l 1
 29 543 l 1
229 543 m 1
 229 571 l 1
 371 571 l 1
 371 543 l 1
 229 543 l 1
457 543 m 1
 457 571 l 1
 543 571 l 1
 543 543 l 1
 457 543 l 1
29 514 m 1
 29 543 l 1
 171 543 l 1
 171 514 l 1
 29 514 l 1
229 514 m 1
 229 543 l 1
 400 543 l 1
 400 514 l 1
 229 514 l 1
457 514 m 1
 457 543 l 1
 543 543 l 1
 543 514 l 1
 457 514 l 1
29 486 m 1
 29 514 l 1
 171 514 l 1
 171 486 l 1
 29 486 l 1
229 486 m 1
 229 514 l 1
 400 514 l 1
 400 486 l 1
 229 486 l 1
457 486 m 1
 457 514 l 1
 543 514 l 1
 543 486 l 1
 457 486 l 1
29 457 m 1
 29 486 l 1
 171 486 l 1
 171 457 l 1
 29 457 l 1
200 457 m 1
 200 486 l 1
 400 486 l 1
 400 457 l 1
 200 457 l 1
457 457 m 1
 457 486 l 1
 543 486 l 1
 543 457 l 1
 457 457 l 1
29 429 m 1
 29 457 l 1
 171 457 l 1
 171 429 l 1
 29 429 l 1
200 429 m 1
 200 457 l 1
 400 457 l 1
 400 429 l 1
 200 429 l 1
457 429 m 1
 457 457 l 1
 543 457 l 1
 543 429 l 1
 457 429 l 1
29 400 m 1
 29 429 l 1
 171 429 l 1
 171 400 l 1
 29 400 l 1
200 400 m 1
 200 429 l 1
 400 429 l 1
 400 400 l 1
 200 400 l 1
457 400 m 1
 457 429 l 1
 543 429 l 1
 543 400 l 1
 457 400 l 1
29 371 m 1
 29 400 l 1
 171 400 l 1
 171 371 l 1
 29 371 l 1
200 371 m 1
 200 400 l 1
 400 400 l 1
 400 371 l 1
 200 371 l 1
457 371 m 1
 457 400 l 1
 543 400 l 1
 543 371 l 1
 457 371 l 1
57 343 m 1
 57 371 l 1
 171 371 l 1
 171 343 l 1
 57 343 l 1
200 343 m 1
 200 371 l 1
 543 371 l 1
 543 343 l 1
 200 343 l 1
57 314 m 1
 57 343 l 1
 257 343 l 1
 257 314 l 1
 57 314 l 1
286 314 m 1
 286 343 l 1
 514 343 l 1
 514 314 l 1
 286 314 l 1
57 286 m 1
 57 314 l 1
 257 314 l 1
 257 286 l 1
 57 286 l 1
286 286 m 1
 286 314 l 1
 514 314 l 1
 514 286 l 1
 286 286 l 1
57 257 m 1
 57 286 l 1
 257 286 l 1
 257 257 l 1
 57 257 l 1
314 257 m 1
 314 286 l 1
 514 286 l 1
 514 257 l 1
 314 257 l 1
57 229 m 1
 57 257 l 1
 257 257 l 1
 257 229 l 1
 57 229 l 1
314 229 m 1
 314 257 l 1
 514 257 l 1
 514 229 l 1
 314 229 l 1
57 200 m 1
 57 229 l 1
 257 229 l 1
 257 200 l 1
 57 200 l 1
314 200 m 1
 314 229 l 1
 514 229 l 1
 514 200 l 1
 314 200 l 1
57 171 m 1
 57 200 l 1
 229 200 l 1
 229 171 l 1
 57 171 l 1
314 171 m 1
 314 200 l 1
 514 200 l 1
 514 171 l 1
 314 171 l 1
57 143 m 1
 57 171 l 1
 229 171 l 1
 229 143 l 1
 57 143 l 1
314 143 m 1
 314 171 l 1
 514 171 l 1
 514 143 l 1
 314 143 l 1
86 114 m 1
 86 143 l 1
 229 143 l 1
 229 114 l 1
 86 114 l 1
314 114 m 1
 314 143 l 1
 514 143 l 1
 514 114 l 1
 314 114 l 1
86 86 m 1
 86 114 l 1
 229 114 l 1
 229 86 l 1
 86 86 l 1
314 86 m 1
 314 114 l 1
 486 114 l 1
 486 86 l 1
 314 86 l 1
86 57 m 1
 86 86 l 1
 229 86 l 1
 229 57 l 1
 86 57 l 1
343 57 m 1
 343 86 l 1
 486 86 l 1
 486 57 l 1
 343 57 l 1
86 29 m 1
 86 57 l 1
 200 57 l 1
 200 29 l 1
 86 29 l 1
343 29 m 1
 343 57 l 1
 486 57 l 1
 486 29 l 1
 343 29 l 1
86 0 m 1
 86 29 l 1
 200 29 l 1
 200 0 l 1
 86 0 l 1
343 0 m 1
 343 29 l 1
 486 29 l 1
 486 0 l 1
 343 0 l 1
EndSplineSet
EndChar

StartChar: X
Encoding: 88 88 57
Width: 571
Flags: HW
LayerCount: 2
Back
Fore
SplineSet
29 686 m 1
 29 714 l 1
 200 714 l 1
 200 686 l 1
 29 686 l 1
457 686 m 1
 457 714 l 1
 543 714 l 1
 543 686 l 1
 457 686 l 1
57 657 m 1
 57 686 l 1
 229 686 l 1
 229 657 l 1
 57 657 l 1
429 657 m 1
 429 686 l 1
 514 686 l 1
 514 657 l 1
 429 657 l 1
57 629 m 1
 57 657 l 1
 229 657 l 1
 229 629 l 1
 57 629 l 1
400 629 m 1
 400 657 l 1
 514 657 l 1
 514 629 l 1
 400 629 l 1
86 600 m 1
 86 629 l 1
 257 629 l 1
 257 600 l 1
 86 600 l 1
400 600 m 1
 400 629 l 1
 486 629 l 1
 486 600 l 1
 400 600 l 1
114 571 m 1
 114 600 l 1
 257 600 l 1
 257 571 l 1
 114 571 l 1
371 571 m 1
 371 600 l 1
 486 600 l 1
 486 571 l 1
 371 571 l 1
114 543 m 1
 114 571 l 1
 286 571 l 1
 286 543 l 1
 114 543 l 1
371 543 m 1
 371 571 l 1
 457 571 l 1
 457 543 l 1
 371 543 l 1
143 514 m 1
 143 543 l 1
 286 543 l 1
 286 514 l 1
 143 514 l 1
343 514 m 1
 343 543 l 1
 457 543 l 1
 457 514 l 1
 343 514 l 1
143 486 m 1
 143 514 l 1
 314 514 l 1
 314 486 l 1
 143 486 l 1
343 486 m 1
 343 514 l 1
 429 514 l 1
 429 486 l 1
 343 486 l 1
171 457 m 1
 171 486 l 1
 429 486 l 1
 429 457 l 1
 171 457 l 1
171 429 m 1
 171 457 l 1
 400 457 l 1
 400 429 l 1
 171 429 l 1
200 400 m 1
 200 429 l 1
 400 429 l 1
 400 400 l 1
 200 400 l 1
200 371 m 1
 200 400 l 1
 371 400 l 1
 371 371 l 1
 200 371 l 1
229 343 m 1
 229 371 l 1
 371 371 l 1
 371 343 l 1
 229 343 l 1
229 314 m 1
 229 343 l 1
 400 343 l 1
 400 314 l 1
 229 314 l 1
200 286 m 1
 200 314 l 1
 400 314 l 1
 400 286 l 1
 200 286 l 1
200 257 m 1
 200 286 l 1
 429 286 l 1
 429 257 l 1
 200 257 l 1
171 229 m 1
 171 257 l 1
 257 257 l 1
 257 229 l 1
 171 229 l 1
286 229 m 1
 286 257 l 1
 457 257 l 1
 457 229 l 1
 286 229 l 1
143 200 m 1
 143 229 l 1
 257 229 l 1
 257 200 l 1
 143 200 l 1
286 200 m 1
 286 229 l 1
 457 229 l 1
 457 200 l 1
 286 200 l 1
143 171 m 1
 143 200 l 1
 229 200 l 1
 229 171 l 1
 143 171 l 1
314 171 m 1
 314 200 l 1
 486 200 l 1
 486 171 l 1
 314 171 l 1
114 143 m 1
 114 171 l 1
 229 171 l 1
 229 143 l 1
 114 143 l 1
314 143 m 1
 314 171 l 1
 486 171 l 1
 486 143 l 1
 314 143 l 1
114 114 m 1
 114 143 l 1
 200 143 l 1
 200 114 l 1
 114 114 l 1
343 114 m 1
 343 143 l 1
 514 143 l 1
 514 114 l 1
 343 114 l 1
86 86 m 1
 86 114 l 1
 200 114 l 1
 200 86 l 1
 86 86 l 1
371 86 m 1
 371 114 l 1
 514 114 l 1
 514 86 l 1
 371 86 l 1
86 57 m 1
 86 86 l 1
 171 86 l 1
 171 57 l 1
 86 57 l 1
371 57 m 1
 371 86 l 1
 543 86 l 1
 543 57 l 1
 371 57 l 1
57 29 m 1
 57 57 l 1
 143 57 l 1
 143 29 l 1
 57 29 l 1
400 29 m 1
 400 57 l 1
 543 57 l 1
 543 29 l 1
 400 29 l 1
29 0 m 1
 29 29 l 1
 143 29 l 1
 143 0 l 1
 29 0 l 1
400 0 m 1
 400 29 l 1
 571 29 l 1
 571 0 l 1
 400 0 l 1
EndSplineSet
EndChar

StartChar: Y
Encoding: 89 89 58
Width: 571
Flags: HW
LayerCount: 2
Back
Fore
SplineSet
0 686 m 1
 0 714 l 1
 171 714 l 1
 171 686 l 1
 0 686 l 1
486 686 m 1
 486 714 l 1
 600 714 l 1
 600 686 l 1
 486 686 l 1
29 657 m 1
 29 686 l 1
 200 686 l 1
 200 657 l 1
 29 657 l 1
457 657 m 1
 457 686 l 1
 571 686 l 1
 571 657 l 1
 457 657 l 1
29 629 m 1
 29 657 l 1
 200 657 l 1
 200 629 l 1
 29 629 l 1
457 629 m 1
 457 657 l 1
 543 657 l 1
 543 629 l 1
 457 629 l 1
57 600 m 1
 57 629 l 1
 229 629 l 1
 229 600 l 1
 57 600 l 1
429 600 m 1
 429 629 l 1
 543 629 l 1
 543 600 l 1
 429 600 l 1
57 571 m 1
 57 600 l 1
 229 600 l 1
 229 571 l 1
 57 571 l 1
429 571 m 1
 429 600 l 1
 514 600 l 1
 514 571 l 1
 429 571 l 1
86 543 m 1
 86 571 l 1
 257 571 l 1
 257 543 l 1
 86 543 l 1
400 543 m 1
 400 571 l 1
 514 571 l 1
 514 543 l 1
 400 543 l 1
114 514 m 1
 114 543 l 1
 257 543 l 1
 257 514 l 1
 114 514 l 1
400 514 m 1
 400 543 l 1
 486 543 l 1
 486 514 l 1
 400 514 l 1
114 486 m 1
 114 514 l 1
 286 514 l 1
 286 486 l 1
 114 486 l 1
371 486 m 1
 371 514 l 1
 486 514 l 1
 486 486 l 1
 371 486 l 1
143 457 m 1
 143 486 l 1
 286 486 l 1
 286 457 l 1
 143 457 l 1
371 457 m 1
 371 486 l 1
 457 486 l 1
 457 457 l 1
 371 457 l 1
143 429 m 1
 143 457 l 1
 314 457 l 1
 314 429 l 1
 143 429 l 1
343 429 m 1
 343 457 l 1
 429 457 l 1
 429 429 l 1
 343 429 l 1
171 400 m 1
 171 429 l 1
 314 429 l 1
 314 400 l 1
 171 400 l 1
343 400 m 1
 343 429 l 1
 429 429 l 1
 429 400 l 1
 343 400 l 1
171 371 m 1
 171 400 l 1
 400 400 l 1
 400 371 l 1
 171 371 l 1
200 343 m 1
 200 371 l 1
 400 371 l 1
 400 343 l 1
 200 343 l 1
200 314 m 1
 200 343 l 1
 371 343 l 1
 371 314 l 1
 200 314 l 1
229 286 m 1
 229 314 l 1
 371 314 l 1
 371 286 l 1
 229 286 l 1
229 257 m 1
 229 286 l 1
 371 286 l 1
 371 257 l 1
 229 257 l 1
229 229 m 1
 229 257 l 1
 371 257 l 1
 371 229 l 1
 229 229 l 1
229 200 m 1
 229 229 l 1
 371 229 l 1
 371 200 l 1
 229 200 l 1
229 171 m 1
 229 200 l 1
 371 200 l 1
 371 171 l 1
 229 171 l 1
229 143 m 1
 229 171 l 1
 371 171 l 1
 371 143 l 1
 229 143 l 1
229 114 m 1
 229 143 l 1
 371 143 l 1
 371 114 l 1
 229 114 l 1
229 86 m 1
 229 114 l 1
 371 114 l 1
 371 86 l 1
 229 86 l 1
229 57 m 1
 229 86 l 1
 371 86 l 1
 371 57 l 1
 229 57 l 1
229 29 m 1
 229 57 l 1
 371 57 l 1
 371 29 l 1
 229 29 l 1
229 0 m 1
 229 29 l 1
 371 29 l 1
 371 0 l 1
 229 0 l 1
EndSplineSet
EndChar

StartChar: Z
Encoding: 90 90 59
Width: 571
Flags: HW
LayerCount: 2
Back
Fore
SplineSet
57 686 m 1
 57 714 l 1
 514 714 l 1
 514 686 l 1
 57 686 l 1
57 657 m 1
 57 686 l 1
 514 686 l 1
 514 657 l 1
 57 657 l 1
57 629 m 1
 57 657 l 1
 514 657 l 1
 514 629 l 1
 57 629 l 1
343 600 m 1
 343 629 l 1
 514 629 l 1
 514 600 l 1
 343 600 l 1
314 571 m 1
 314 600 l 1
 486 600 l 1
 486 571 l 1
 314 571 l 1
314 543 m 1
 314 571 l 1
 486 571 l 1
 486 543 l 1
 314 543 l 1
286 514 m 1
 286 543 l 1
 457 543 l 1
 457 514 l 1
 286 514 l 1
286 486 m 1
 286 514 l 1
 429 514 l 1
 429 486 l 1
 286 486 l 1
257 457 m 1
 257 486 l 1
 429 486 l 1
 429 457 l 1
 257 457 l 1
229 429 m 1
 229 457 l 1
 400 457 l 1
 400 429 l 1
 229 429 l 1
229 400 m 1
 229 429 l 1
 400 429 l 1
 400 400 l 1
 229 400 l 1
200 371 m 1
 200 400 l 1
 371 400 l 1
 371 371 l 1
 200 371 l 1
200 343 m 1
 200 371 l 1
 343 371 l 1
 343 343 l 1
 200 343 l 1
171 314 m 1
 171 343 l 1
 343 343 l 1
 343 314 l 1
 171 314 l 1
143 286 m 1
 143 314 l 1
 314 314 l 1
 314 286 l 1
 143 286 l 1
143 257 m 1
 143 286 l 1
 314 286 l 1
 314 257 l 1
 143 257 l 1
114 229 m 1
 114 257 l 1
 286 257 l 1
 286 229 l 1
 114 229 l 1
114 200 m 1
 114 229 l 1
 257 229 l 1
 257 200 l 1
 114 200 l 1
86 171 m 1
 86 200 l 1
 257 200 l 1
 257 171 l 1
 86 171 l 1
57 143 m 1
 57 171 l 1
 229 171 l 1
 229 143 l 1
 57 143 l 1
57 114 m 1
 57 143 l 1
 229 143 l 1
 229 114 l 1
 57 114 l 1
29 86 m 1
 29 114 l 1
 200 114 l 1
 200 86 l 1
 29 86 l 1
29 57 m 1
 29 86 l 1
 514 86 l 1
 514 57 l 1
 29 57 l 1
29 29 m 1
 29 57 l 1
 514 57 l 1
 514 29 l 1
 29 29 l 1
29 0 m 1
 29 29 l 1
 514 29 l 1
 514 0 l 1
 29 0 l 1
EndSplineSet
EndChar

StartChar: bracketleft
Encoding: 91 91 60
Width: 571
Flags: HW
LayerCount: 2
Back
Fore
SplineSet
171 714 m 1
 171 743 l 1
 543 743 l 1
 543 714 l 1
 171 714 l 1
171 686 m 1
 171 714 l 1
 543 714 l 1
 543 686 l 1
 171 686 l 1
171 657 m 1
 171 686 l 1
 543 686 l 1
 543 657 l 1
 171 657 l 1
171 629 m 1
 171 657 l 1
 314 657 l 1
 314 629 l 1
 171 629 l 1
171 600 m 1
 171 629 l 1
 314 629 l 1
 314 600 l 1
 171 600 l 1
171 571 m 1
 171 600 l 1
 314 600 l 1
 314 571 l 1
 171 571 l 1
171 543 m 1
 171 571 l 1
 314 571 l 1
 314 543 l 1
 171 543 l 1
171 514 m 1
 171 543 l 1
 314 543 l 1
 314 514 l 1
 171 514 l 1
171 486 m 1
 171 514 l 1
 314 514 l 1
 314 486 l 1
 171 486 l 1
171 457 m 1
 171 486 l 1
 314 486 l 1
 314 457 l 1
 171 457 l 1
171 429 m 1
 171 457 l 1
 314 457 l 1
 314 429 l 1
 171 429 l 1
171 400 m 1
 171 429 l 1
 314 429 l 1
 314 400 l 1
 171 400 l 1
171 371 m 1
 171 400 l 1
 314 400 l 1
 314 371 l 1
 171 371 l 1
171 343 m 1
 171 371 l 1
 314 371 l 1
 314 343 l 1
 171 343 l 1
171 314 m 1
 171 343 l 1
 314 343 l 1
 314 314 l 1
 171 314 l 1
171 286 m 1
 171 314 l 1
 314 314 l 1
 314 286 l 1
 171 286 l 1
171 257 m 1
 171 286 l 1
 314 286 l 1
 314 257 l 1
 171 257 l 1
171 229 m 1
 171 257 l 1
 314 257 l 1
 314 229 l 1
 171 229 l 1
171 200 m 1
 171 229 l 1
 314 229 l 1
 314 200 l 1
 171 200 l 1
171 171 m 1
 171 200 l 1
 314 200 l 1
 314 171 l 1
 171 171 l 1
171 143 m 1
 171 171 l 1
 314 171 l 1
 314 143 l 1
 171 143 l 1
171 114 m 1
 171 143 l 1
 314 143 l 1
 314 114 l 1
 171 114 l 1
171 86 m 1
 171 114 l 1
 314 114 l 1
 314 86 l 1
 171 86 l 1
171 57 m 1
 171 86 l 1
 314 86 l 1
 314 57 l 1
 171 57 l 1
171 29 m 1
 171 57 l 1
 314 57 l 1
 314 29 l 1
 171 29 l 1
171 0 m 1
 171 29 l 1
 314 29 l 1
 314 0 l 1
 171 0 l 1
171 -29 m 1
 171 0 l 1
 314 0 l 1
 314 -29 l 1
 171 -29 l 1
171 -57 m 1
 171 -29 l 1
 314 -29 l 1
 314 -57 l 1
 171 -57 l 1
171 -86 m 1
 171 -57 l 1
 314 -57 l 1
 314 -86 l 1
 171 -86 l 1
171 -114 m 1
 171 -86 l 1
 543 -86 l 1
 543 -114 l 1
 171 -114 l 1
171 -143 m 1
 171 -114 l 1
 543 -114 l 1
 543 -143 l 1
 171 -143 l 1
171 -171 m 1
 171 -143 l 1
 543 -143 l 1
 543 -171 l 1
 171 -171 l 1
EndSplineSet
EndChar

StartChar: backslash
Encoding: 92 92 61
Width: 571
Flags: HW
LayerCount: 2
Back
Fore
SplineSet
0 714 m 1
 0 743 l 1
 143 743 l 1
 143 714 l 1
 0 714 l 1
29 686 m 1
 29 714 l 1
 143 714 l 1
 143 686 l 1
 29 686 l 1
29 657 m 1
 29 686 l 1
 171 686 l 1
 171 657 l 1
 29 657 l 1
57 629 m 1
 57 657 l 1
 171 657 l 1
 171 629 l 1
 57 629 l 1
57 600 m 1
 57 629 l 1
 200 629 l 1
 200 600 l 1
 57 600 l 1
86 571 m 1
 86 600 l 1
 200 600 l 1
 200 571 l 1
 86 571 l 1
86 543 m 1
 86 571 l 1
 229 571 l 1
 229 543 l 1
 86 543 l 1
114 514 m 1
 114 543 l 1
 229 543 l 1
 229 514 l 1
 114 514 l 1
114 486 m 1
 114 514 l 1
 257 514 l 1
 257 486 l 1
 114 486 l 1
143 457 m 1
 143 486 l 1
 257 486 l 1
 257 457 l 1
 143 457 l 1
143 429 m 1
 143 457 l 1
 286 457 l 1
 286 429 l 1
 143 429 l 1
171 400 m 1
 171 429 l 1
 286 429 l 1
 286 400 l 1
 171 400 l 1
171 371 m 1
 171 400 l 1
 286 400 l 1
 286 371 l 1
 171 371 l 1
200 343 m 1
 200 371 l 1
 314 371 l 1
 314 343 l 1
 200 343 l 1
200 314 m 1
 200 343 l 1
 314 343 l 1
 314 314 l 1
 200 314 l 1
229 286 m 1
 229 314 l 1
 343 314 l 1
 343 286 l 1
 229 286 l 1
229 257 m 1
 229 286 l 1
 343 286 l 1
 343 257 l 1
 229 257 l 1
229 229 m 1
 229 257 l 1
 371 257 l 1
 371 229 l 1
 229 229 l 1
257 200 m 1
 257 229 l 1
 371 229 l 1
 371 200 l 1
 257 200 l 1
257 171 m 1
 257 200 l 1
 400 200 l 1
 400 171 l 1
 257 171 l 1
286 143 m 1
 286 171 l 1
 400 171 l 1
 400 143 l 1
 286 143 l 1
286 114 m 1
 286 143 l 1
 429 143 l 1
 429 114 l 1
 286 114 l 1
314 86 m 1
 314 114 l 1
 429 114 l 1
 429 86 l 1
 314 86 l 1
314 57 m 1
 314 86 l 1
 457 86 l 1
 457 57 l 1
 314 57 l 1
343 29 m 1
 343 57 l 1
 457 57 l 1
 457 29 l 1
 343 29 l 1
343 0 m 1
 343 29 l 1
 486 29 l 1
 486 0 l 1
 343 0 l 1
371 -29 m 1
 371 0 l 1
 486 0 l 1
 486 -29 l 1
 371 -29 l 1
371 -57 m 1
 371 -29 l 1
 514 -29 l 1
 514 -57 l 1
 371 -57 l 1
400 -86 m 1
 400 -57 l 1
 514 -57 l 1
 514 -86 l 1
 400 -86 l 1
400 -114 m 1
 400 -86 l 1
 543 -86 l 1
 543 -114 l 1
 400 -114 l 1
429 -143 m 1
 429 -114 l 1
 543 -114 l 1
 543 -143 l 1
 429 -143 l 1
429 -171 m 1
 429 -143 l 1
 571 -143 l 1
 571 -171 l 1
 429 -171 l 1
EndSplineSet
EndChar

StartChar: bracketright
Encoding: 93 93 62
Width: 571
Flags: HW
LayerCount: 2
Back
Fore
SplineSet
29 714 m 1
 29 743 l 1
 400 743 l 1
 400 714 l 1
 29 714 l 1
29 686 m 1
 29 714 l 1
 400 714 l 1
 400 686 l 1
 29 686 l 1
29 657 m 1
 29 686 l 1
 400 686 l 1
 400 657 l 1
 29 657 l 1
257 629 m 1
 257 657 l 1
 400 657 l 1
 400 629 l 1
 257 629 l 1
257 600 m 1
 257 629 l 1
 400 629 l 1
 400 600 l 1
 257 600 l 1
257 571 m 1
 257 600 l 1
 400 600 l 1
 400 571 l 1
 257 571 l 1
257 543 m 1
 257 571 l 1
 400 571 l 1
 400 543 l 1
 257 543 l 1
257 514 m 1
 257 543 l 1
 400 543 l 1
 400 514 l 1
 257 514 l 1
257 486 m 1
 257 514 l 1
 400 514 l 1
 400 486 l 1
 257 486 l 1
257 457 m 1
 257 486 l 1
 400 486 l 1
 400 457 l 1
 257 457 l 1
257 429 m 1
 257 457 l 1
 400 457 l 1
 400 429 l 1
 257 429 l 1
257 400 m 1
 257 429 l 1
 400 429 l 1
 400 400 l 1
 257 400 l 1
257 371 m 1
 257 400 l 1
 400 400 l 1
 400 371 l 1
 257 371 l 1
257 343 m 1
 257 371 l 1
 400 371 l 1
 400 343 l 1
 257 343 l 1
257 314 m 1
 257 343 l 1
 400 343 l 1
 400 314 l 1
 257 314 l 1
257 286 m 1
 257 314 l 1
 400 314 l 1
 400 286 l 1
 257 286 l 1
257 257 m 1
 257 286 l 1
 400 286 l 1
 400 257 l 1
 257 257 l 1
257 229 m 1
 257 257 l 1
 400 257 l 1
 400 229 l 1
 257 229 l 1
257 200 m 1
 257 229 l 1
 400 229 l 1
 400 200 l 1
 257 200 l 1
257 171 m 1
 257 200 l 1
 400 200 l 1
 400 171 l 1
 257 171 l 1
257 143 m 1
 257 171 l 1
 400 171 l 1
 400 143 l 1
 257 143 l 1
257 114 m 1
 257 143 l 1
 400 143 l 1
 400 114 l 1
 257 114 l 1
257 86 m 1
 257 114 l 1
 400 114 l 1
 400 86 l 1
 257 86 l 1
257 57 m 1
 257 86 l 1
 400 86 l 1
 400 57 l 1
 257 57 l 1
257 29 m 1
 257 57 l 1
 400 57 l 1
 400 29 l 1
 257 29 l 1
257 0 m 1
 257 29 l 1
 400 29 l 1
 400 0 l 1
 257 0 l 1
257 -29 m 1
 257 0 l 1
 400 0 l 1
 400 -29 l 1
 257 -29 l 1
257 -57 m 1
 257 -29 l 1
 400 -29 l 1
 400 -57 l 1
 257 -57 l 1
257 -86 m 1
 257 -57 l 1
 400 -57 l 1
 400 -86 l 1
 257 -86 l 1
29 -114 m 1
 29 -86 l 1
 400 -86 l 1
 400 -114 l 1
 29 -114 l 1
29 -143 m 1
 29 -114 l 1
 400 -114 l 1
 400 -143 l 1
 29 -143 l 1
29 -171 m 1
 29 -143 l 1
 400 -143 l 1
 400 -171 l 1
 29 -171 l 1
EndSplineSet
EndChar

StartChar: asciicircum
Encoding: 94 94 63
Width: 571
Flags: HW
LayerCount: 2
Back
Fore
SplineSet
286 686 m 1
 286 714 l 1
 314 714 l 1
 314 686 l 1
 286 686 l 1
257 657 m 1
 257 686 l 1
 314 686 l 1
 314 657 l 1
 257 657 l 1
257 629 m 1
 257 657 l 1
 314 657 l 1
 314 629 l 1
 257 629 l 1
229 600 m 1
 229 629 l 1
 343 629 l 1
 343 600 l 1
 229 600 l 1
229 571 m 1
 229 600 l 1
 343 600 l 1
 343 571 l 1
 229 571 l 1
229 543 m 1
 229 571 l 1
 343 571 l 1
 343 543 l 1
 229 543 l 1
200 514 m 1
 200 543 l 1
 371 543 l 1
 371 514 l 1
 200 514 l 1
200 486 m 1
 200 514 l 1
 371 514 l 1
 371 486 l 1
 200 486 l 1
171 457 m 1
 171 486 l 1
 400 486 l 1
 400 457 l 1
 171 457 l 1
171 429 m 1
 171 457 l 1
 400 457 l 1
 400 429 l 1
 171 429 l 1
143 400 m 1
 143 429 l 1
 429 429 l 1
 429 400 l 1
 143 400 l 1
143 371 m 1
 143 400 l 1
 257 400 l 1
 257 371 l 1
 143 371 l 1
314 371 m 1
 314 400 l 1
 429 400 l 1
 429 371 l 1
 314 371 l 1
143 343 m 1
 143 371 l 1
 257 371 l 1
 257 343 l 1
 143 343 l 1
314 343 m 1
 314 371 l 1
 429 371 l 1
 429 343 l 1
 314 343 l 1
114 314 m 1
 114 343 l 1
 229 343 l 1
 229 314 l 1
 114 314 l 1
343 314 m 1
 343 343 l 1
 457 343 l 1
 457 314 l 1
 343 314 l 1
114 286 m 1
 114 314 l 1
 229 314 l 1
 229 286 l 1
 114 286 l 1
343 286 m 1
 343 314 l 1
 457 314 l 1
 457 286 l 1
 343 286 l 1
86 257 m 1
 86 286 l 1
 229 286 l 1
 229 257 l 1
 86 257 l 1
343 257 m 1
 343 286 l 1
 486 286 l 1
 486 257 l 1
 343 257 l 1
86 229 m 1
 86 257 l 1
 200 257 l 1
 200 229 l 1
 86 229 l 1
371 229 m 1
 371 257 l 1
 486 257 l 1
 486 229 l 1
 371 229 l 1
57 200 m 1
 57 229 l 1
 200 229 l 1
 200 200 l 1
 57 200 l 1
371 200 m 1
 371 229 l 1
 514 229 l 1
 514 200 l 1
 371 200 l 1
57 171 m 1
 57 200 l 1
 171 200 l 1
 171 171 l 1
 57 171 l 1
400 171 m 1
 400 200 l 1
 514 200 l 1
 514 171 l 1
 400 171 l 1
57 143 m 1
 57 171 l 1
 171 171 l 1
 171 143 l 1
 57 143 l 1
400 143 m 1
 400 171 l 1
 514 171 l 1
 514 143 l 1
 400 143 l 1
29 114 m 1
 29 143 l 1
 171 143 l 1
 171 114 l 1
 29 114 l 1
400 114 m 1
 400 143 l 1
 543 143 l 1
 543 114 l 1
 400 114 l 1
EndSplineSet
EndChar

StartChar: underscore
Encoding: 95 95 64
Width: 571
Flags: HW
LayerCount: 2
Back
Fore
SplineSet
0 -57 m 1
 0 -29 l 1
 571 -29 l 1
 571 -57 l 1
 0 -57 l 1
0 -86 m 1
 0 -57 l 1
 571 -57 l 1
 571 -86 l 1
 0 -86 l 1
0 -114 m 1
 0 -86 l 1
 571 -86 l 1
 571 -114 l 1
 0 -114 l 1
0 -143 m 1
 0 -114 l 1
 571 -114 l 1
 571 -143 l 1
 0 -143 l 1
EndSplineSet
EndChar

StartChar: grave
Encoding: 96 96 65
Width: 571
Flags: HW
LayerCount: 2
Back
Fore
SplineSet
171 714 m 1
 171 743 l 1
 314 743 l 1
 314 714 l 1
 171 714 l 1
200 686 m 1
 200 714 l 1
 343 714 l 1
 343 686 l 1
 200 686 l 1
229 657 m 1
 229 686 l 1
 343 686 l 1
 343 657 l 1
 229 657 l 1
257 629 m 1
 257 657 l 1
 371 657 l 1
 371 629 l 1
 257 629 l 1
286 600 m 1
 286 629 l 1
 400 629 l 1
 400 600 l 1
 286 600 l 1
EndSplineSet
EndChar

StartChar: a
Encoding: 97 97 66
Width: 571
Flags: HW
LayerCount: 2
Back
Fore
SplineSet
143 486 m 1
 143 514 l 1
 371 514 l 1
 371 486 l 1
 143 486 l 1
86 457 m 1
 86 486 l 1
 429 486 l 1
 429 457 l 1
 86 457 l 1
86 429 m 1
 86 457 l 1
 457 457 l 1
 457 429 l 1
 86 429 l 1
86 400 m 1
 86 429 l 1
 143 429 l 1
 143 400 l 1
 86 400 l 1
286 400 m 1
 286 429 l 1
 486 429 l 1
 486 400 l 1
 286 400 l 1
86 371 m 1
 86 400 l 1
 114 400 l 1
 114 371 l 1
 86 371 l 1
343 371 m 1
 343 400 l 1
 486 400 l 1
 486 371 l 1
 343 371 l 1
343 343 m 1
 343 371 l 1
 486 371 l 1
 486 343 l 1
 343 343 l 1
343 314 m 1
 343 343 l 1
 486 343 l 1
 486 314 l 1
 343 314 l 1
143 286 m 1
 143 314 l 1
 486 314 l 1
 486 286 l 1
 143 286 l 1
86 257 m 1
 86 286 l 1
 486 286 l 1
 486 257 l 1
 86 257 l 1
57 229 m 1
 57 257 l 1
 486 257 l 1
 486 229 l 1
 57 229 l 1
29 200 m 1
 29 229 l 1
 200 229 l 1
 200 200 l 1
 29 200 l 1
343 200 m 1
 343 229 l 1
 486 229 l 1
 486 200 l 1
 343 200 l 1
29 171 m 1
 29 200 l 1
 171 200 l 1
 171 171 l 1
 29 171 l 1
343 171 m 1
 343 200 l 1
 486 200 l 1
 486 171 l 1
 343 171 l 1
29 143 m 1
 29 171 l 1
 171 171 l 1
 171 143 l 1
 29 143 l 1
343 143 m 1
 343 171 l 1
 486 171 l 1
 486 143 l 1
 343 143 l 1
29 114 m 1
 29 143 l 1
 200 143 l 1
 200 114 l 1
 29 114 l 1
286 114 m 1
 286 143 l 1
 486 143 l 1
 486 114 l 1
 286 114 l 1
29 86 m 1
 29 114 l 1
 543 114 l 1
 543 86 l 1
 29 86 l 1
57 57 m 1
 57 86 l 1
 543 86 l 1
 543 57 l 1
 57 57 l 1
86 29 m 1
 86 57 l 1
 314 57 l 1
 314 29 l 1
 86 29 l 1
371 29 m 1
 371 57 l 1
 543 57 l 1
 543 29 l 1
 371 29 l 1
114 0 m 1
 114 29 l 1
 286 29 l 1
 286 0 l 1
 114 0 l 1
400 0 m 1
 400 29 l 1
 543 29 l 1
 543 0 l 1
 400 0 l 1
EndSplineSet
EndChar

StartChar: b
Encoding: 98 98 67
Width: 571
Flags: HW
LayerCount: 2
Back
Fore
SplineSet
57 714 m 1
 57 743 l 1
 200 743 l 1
 200 714 l 1
 57 714 l 1
57 686 m 1
 57 714 l 1
 200 714 l 1
 200 686 l 1
 57 686 l 1
57 657 m 1
 57 686 l 1
 200 686 l 1
 200 657 l 1
 57 657 l 1
57 629 m 1
 57 657 l 1
 200 657 l 1
 200 629 l 1
 57 629 l 1
57 600 m 1
 57 629 l 1
 200 629 l 1
 200 600 l 1
 57 600 l 1
57 571 m 1
 57 600 l 1
 200 600 l 1
 200 571 l 1
 57 571 l 1
57 543 m 1
 57 571 l 1
 200 571 l 1
 200 543 l 1
 57 543 l 1
57 514 m 1
 57 543 l 1
 200 543 l 1
 200 514 l 1
 57 514 l 1
57 486 m 1
 57 514 l 1
 200 514 l 1
 200 486 l 1
 57 486 l 1
286 486 m 1
 286 514 l 1
 429 514 l 1
 429 486 l 1
 286 486 l 1
57 457 m 1
 57 486 l 1
 200 486 l 1
 200 457 l 1
 57 457 l 1
257 457 m 1
 257 486 l 1
 457 486 l 1
 457 457 l 1
 257 457 l 1
57 429 m 1
 57 457 l 1
 200 457 l 1
 200 429 l 1
 57 429 l 1
229 429 m 1
 229 457 l 1
 486 457 l 1
 486 429 l 1
 229 429 l 1
57 400 m 1
 57 429 l 1
 514 429 l 1
 514 400 l 1
 57 400 l 1
57 371 m 1
 57 400 l 1
 514 400 l 1
 514 371 l 1
 57 371 l 1
57 343 m 1
 57 371 l 1
 257 371 l 1
 257 343 l 1
 57 343 l 1
371 343 m 1
 371 371 l 1
 543 371 l 1
 543 343 l 1
 371 343 l 1
57 314 m 1
 57 343 l 1
 229 343 l 1
 229 314 l 1
 57 314 l 1
371 314 m 1
 371 343 l 1
 543 343 l 1
 543 314 l 1
 371 314 l 1
57 286 m 1
 57 314 l 1
 200 314 l 1
 200 286 l 1
 57 286 l 1
400 286 m 1
 400 314 l 1
 543 314 l 1
 543 286 l 1
 400 286 l 1
57 257 m 1
 57 286 l 1
 200 286 l 1
 200 257 l 1
 57 257 l 1
400 257 m 1
 400 286 l 1
 543 286 l 1
 543 257 l 1
 400 257 l 1
57 229 m 1
 57 257 l 1
 200 257 l 1
 200 229 l 1
 57 229 l 1
400 229 m 1
 400 257 l 1
 543 257 l 1
 543 229 l 1
 400 229 l 1
57 200 m 1
 57 229 l 1
 200 229 l 1
 200 200 l 1
 57 200 l 1
400 200 m 1
 400 229 l 1
 543 229 l 1
 543 200 l 1
 400 200 l 1
57 171 m 1
 57 200 l 1
 200 200 l 1
 200 171 l 1
 57 171 l 1
400 171 m 1
 400 200 l 1
 543 200 l 1
 543 171 l 1
 400 171 l 1
57 143 m 1
 57 171 l 1
 200 171 l 1
 200 143 l 1
 57 143 l 1
371 143 m 1
 371 171 l 1
 514 171 l 1
 514 143 l 1
 371 143 l 1
57 114 m 1
 57 143 l 1
 229 143 l 1
 229 114 l 1
 57 114 l 1
343 114 m 1
 343 143 l 1
 514 143 l 1
 514 114 l 1
 343 114 l 1
57 86 m 1
 57 114 l 1
 514 114 l 1
 514 86 l 1
 57 86 l 1
57 57 m 1
 57 86 l 1
 486 86 l 1
 486 57 l 1
 57 57 l 1
57 29 m 1
 57 57 l 1
 457 57 l 1
 457 29 l 1
 57 29 l 1
57 0 m 1
 57 29 l 1
 171 29 l 1
 171 0 l 1
 57 0 l 1
257 0 m 1
 257 29 l 1
 400 29 l 1
 400 0 l 1
 257 0 l 1
EndSplineSet
EndChar

StartChar: c
Encoding: 99 99 68
Width: 571
Flags: HW
LayerCount: 2
Back
Fore
SplineSet
229 486 m 1
 229 514 l 1
 543 514 l 1
 543 486 l 1
 229 486 l 1
171 457 m 1
 171 486 l 1
 543 486 l 1
 543 457 l 1
 171 457 l 1
143 429 m 1
 143 457 l 1
 543 457 l 1
 543 429 l 1
 143 429 l 1
114 400 m 1
 114 429 l 1
 286 429 l 1
 286 400 l 1
 114 400 l 1
486 400 m 1
 486 429 l 1
 543 429 l 1
 543 400 l 1
 486 400 l 1
86 371 m 1
 86 400 l 1
 229 400 l 1
 229 371 l 1
 86 371 l 1
86 343 m 1
 86 371 l 1
 229 371 l 1
 229 343 l 1
 86 343 l 1
57 314 m 1
 57 343 l 1
 200 343 l 1
 200 314 l 1
 57 314 l 1
57 286 m 1
 57 314 l 1
 200 314 l 1
 200 286 l 1
 57 286 l 1
57 257 m 1
 57 286 l 1
 200 286 l 1
 200 257 l 1
 57 257 l 1
57 229 m 1
 57 257 l 1
 200 257 l 1
 200 229 l 1
 57 229 l 1
57 200 m 1
 57 229 l 1
 200 229 l 1
 200 200 l 1
 57 200 l 1
57 171 m 1
 57 200 l 1
 229 200 l 1
 229 171 l 1
 57 171 l 1
86 143 m 1
 86 171 l 1
 257 171 l 1
 257 143 l 1
 86 143 l 1
86 114 m 1
 86 143 l 1
 314 143 l 1
 314 114 l 1
 86 114 l 1
486 114 m 1
 486 143 l 1
 543 143 l 1
 543 114 l 1
 486 114 l 1
114 86 m 1
 114 114 l 1
 543 114 l 1
 543 86 l 1
 114 86 l 1
143 57 m 1
 143 86 l 1
 543 86 l 1
 543 57 l 1
 143 57 l 1
171 29 m 1
 171 57 l 1
 543 57 l 1
 543 29 l 1
 171 29 l 1
229 0 m 1
 229 29 l 1
 486 29 l 1
 486 0 l 1
 229 0 l 1
EndSplineSet
EndChar

StartChar: d
Encoding: 100 100 69
Width: 571
Flags: HW
LayerCount: 2
Back
Fore
SplineSet
400 714 m 1
 400 743 l 1
 543 743 l 1
 543 714 l 1
 400 714 l 1
400 686 m 1
 400 714 l 1
 543 714 l 1
 543 686 l 1
 400 686 l 1
400 657 m 1
 400 686 l 1
 543 686 l 1
 543 657 l 1
 400 657 l 1
400 629 m 1
 400 657 l 1
 543 657 l 1
 543 629 l 1
 400 629 l 1
400 600 m 1
 400 629 l 1
 543 629 l 1
 543 600 l 1
 400 600 l 1
400 571 m 1
 400 600 l 1
 543 600 l 1
 543 571 l 1
 400 571 l 1
400 543 m 1
 400 571 l 1
 543 571 l 1
 543 543 l 1
 400 543 l 1
400 514 m 1
 400 543 l 1
 543 543 l 1
 543 514 l 1
 400 514 l 1
200 486 m 1
 200 514 l 1
 343 514 l 1
 343 486 l 1
 200 486 l 1
400 486 m 1
 400 514 l 1
 543 514 l 1
 543 486 l 1
 400 486 l 1
143 457 m 1
 143 486 l 1
 371 486 l 1
 371 457 l 1
 143 457 l 1
400 457 m 1
 400 486 l 1
 543 486 l 1
 543 457 l 1
 400 457 l 1
114 429 m 1
 114 457 l 1
 543 457 l 1
 543 429 l 1
 114 429 l 1
86 400 m 1
 86 429 l 1
 543 429 l 1
 543 400 l 1
 86 400 l 1
86 371 m 1
 86 400 l 1
 257 400 l 1
 257 371 l 1
 86 371 l 1
371 371 m 1
 371 400 l 1
 543 400 l 1
 543 371 l 1
 371 371 l 1
86 343 m 1
 86 371 l 1
 229 371 l 1
 229 343 l 1
 86 343 l 1
400 343 m 1
 400 371 l 1
 543 371 l 1
 543 343 l 1
 400 343 l 1
57 314 m 1
 57 343 l 1
 200 343 l 1
 200 314 l 1
 57 314 l 1
400 314 m 1
 400 343 l 1
 543 343 l 1
 543 314 l 1
 400 314 l 1
57 286 m 1
 57 314 l 1
 200 314 l 1
 200 286 l 1
 57 286 l 1
400 286 m 1
 400 314 l 1
 543 314 l 1
 543 286 l 1
 400 286 l 1
57 257 m 1
 57 286 l 1
 200 286 l 1
 200 257 l 1
 57 257 l 1
400 257 m 1
 400 286 l 1
 543 286 l 1
 543 257 l 1
 400 257 l 1
57 229 m 1
 57 257 l 1
 200 257 l 1
 200 229 l 1
 57 229 l 1
400 229 m 1
 400 257 l 1
 543 257 l 1
 543 229 l 1
 400 229 l 1
57 200 m 1
 57 229 l 1
 200 229 l 1
 200 200 l 1
 57 200 l 1
400 200 m 1
 400 229 l 1
 543 229 l 1
 543 200 l 1
 400 200 l 1
57 171 m 1
 57 200 l 1
 229 200 l 1
 229 171 l 1
 57 171 l 1
371 171 m 1
 371 200 l 1
 543 200 l 1
 543 171 l 1
 371 171 l 1
57 143 m 1
 57 171 l 1
 229 171 l 1
 229 143 l 1
 57 143 l 1
343 143 m 1
 343 171 l 1
 543 171 l 1
 543 143 l 1
 343 143 l 1
86 114 m 1
 86 143 l 1
 543 143 l 1
 543 114 l 1
 86 114 l 1
86 86 m 1
 86 114 l 1
 543 114 l 1
 543 86 l 1
 86 86 l 1
114 57 m 1
 114 86 l 1
 371 86 l 1
 371 57 l 1
 114 57 l 1
400 57 m 1
 400 86 l 1
 543 86 l 1
 543 57 l 1
 400 57 l 1
143 29 m 1
 143 57 l 1
 343 57 l 1
 343 29 l 1
 143 29 l 1
400 29 m 1
 400 57 l 1
 543 57 l 1
 543 29 l 1
 400 29 l 1
171 0 m 1
 171 29 l 1
 314 29 l 1
 314 0 l 1
 171 0 l 1
400 0 m 1
 400 29 l 1
 543 29 l 1
 543 0 l 1
 400 0 l 1
EndSplineSet
EndChar

StartChar: e
Encoding: 101 101 70
Width: 571
Flags: HW
LayerCount: 2
Back
Fore
SplineSet
200 486 m 1
 200 514 l 1
 400 514 l 1
 400 486 l 1
 200 486 l 1
143 457 m 1
 143 486 l 1
 457 486 l 1
 457 457 l 1
 143 457 l 1
114 429 m 1
 114 457 l 1
 486 457 l 1
 486 429 l 1
 114 429 l 1
86 400 m 1
 86 429 l 1
 229 429 l 1
 229 400 l 1
 86 400 l 1
371 400 m 1
 371 429 l 1
 514 429 l 1
 514 400 l 1
 371 400 l 1
57 371 m 1
 57 400 l 1
 200 400 l 1
 200 371 l 1
 57 371 l 1
400 371 m 1
 400 400 l 1
 514 400 l 1
 514 371 l 1
 400 371 l 1
57 343 m 1
 57 371 l 1
 200 371 l 1
 200 343 l 1
 57 343 l 1
400 343 m 1
 400 371 l 1
 543 371 l 1
 543 343 l 1
 400 343 l 1
29 314 m 1
 29 343 l 1
 171 343 l 1
 171 314 l 1
 29 314 l 1
400 314 m 1
 400 343 l 1
 543 343 l 1
 543 314 l 1
 400 314 l 1
29 286 m 1
 29 314 l 1
 543 314 l 1
 543 286 l 1
 29 286 l 1
29 257 m 1
 29 286 l 1
 543 286 l 1
 543 257 l 1
 29 257 l 1
29 229 m 1
 29 257 l 1
 543 257 l 1
 543 229 l 1
 29 229 l 1
29 200 m 1
 29 229 l 1
 171 229 l 1
 171 200 l 1
 29 200 l 1
29 171 m 1
 29 200 l 1
 171 200 l 1
 171 171 l 1
 29 171 l 1
57 143 m 1
 57 171 l 1
 200 171 l 1
 200 143 l 1
 57 143 l 1
57 114 m 1
 57 143 l 1
 257 143 l 1
 257 114 l 1
 57 114 l 1
486 114 m 1
 486 143 l 1
 543 143 l 1
 543 114 l 1
 486 114 l 1
86 86 m 1
 86 114 l 1
 543 114 l 1
 543 86 l 1
 86 86 l 1
114 57 m 1
 114 86 l 1
 543 86 l 1
 543 57 l 1
 114 57 l 1
143 29 m 1
 143 57 l 1
 543 57 l 1
 543 29 l 1
 143 29 l 1
200 0 m 1
 200 29 l 1
 457 29 l 1
 457 0 l 1
 200 0 l 1
EndSplineSet
EndChar

StartChar: f
Encoding: 102 102 71
Width: 571
Flags: HW
LayerCount: 2
Back
Fore
SplineSet
286 714 m 1
 286 743 l 1
 543 743 l 1
 543 714 l 1
 286 714 l 1
229 686 m 1
 229 714 l 1
 571 714 l 1
 571 686 l 1
 229 686 l 1
200 657 m 1
 200 686 l 1
 571 686 l 1
 571 657 l 1
 200 657 l 1
171 629 m 1
 171 657 l 1
 343 657 l 1
 343 629 l 1
 171 629 l 1
514 629 m 1
 514 657 l 1
 571 657 l 1
 571 629 l 1
 514 629 l 1
171 600 m 1
 171 629 l 1
 314 629 l 1
 314 600 l 1
 171 600 l 1
171 571 m 1
 171 600 l 1
 314 600 l 1
 314 571 l 1
 171 571 l 1
171 543 m 1
 171 571 l 1
 314 571 l 1
 314 543 l 1
 171 543 l 1
171 514 m 1
 171 543 l 1
 314 543 l 1
 314 514 l 1
 171 514 l 1
86 486 m 1
 86 514 l 1
 514 514 l 1
 514 486 l 1
 86 486 l 1
86 457 m 1
 86 486 l 1
 514 486 l 1
 514 457 l 1
 86 457 l 1
86 429 m 1
 86 457 l 1
 514 457 l 1
 514 429 l 1
 86 429 l 1
171 400 m 1
 171 429 l 1
 314 429 l 1
 314 400 l 1
 171 400 l 1
171 371 m 1
 171 400 l 1
 314 400 l 1
 314 371 l 1
 171 371 l 1
171 343 m 1
 171 371 l 1
 314 371 l 1
 314 343 l 1
 171 343 l 1
171 314 m 1
 171 343 l 1
 314 343 l 1
 314 314 l 1
 171 314 l 1
171 286 m 1
 171 314 l 1
 314 314 l 1
 314 286 l 1
 171 286 l 1
171 257 m 1
 171 286 l 1
 314 286 l 1
 314 257 l 1
 171 257 l 1
171 229 m 1
 171 257 l 1
 314 257 l 1
 314 229 l 1
 171 229 l 1
171 200 m 1
 171 229 l 1
 314 229 l 1
 314 200 l 1
 171 200 l 1
171 171 m 1
 171 200 l 1
 314 200 l 1
 314 171 l 1
 171 171 l 1
171 143 m 1
 171 171 l 1
 314 171 l 1
 314 143 l 1
 171 143 l 1
171 114 m 1
 171 143 l 1
 314 143 l 1
 314 114 l 1
 171 114 l 1
171 86 m 1
 171 114 l 1
 314 114 l 1
 314 86 l 1
 171 86 l 1
171 57 m 1
 171 86 l 1
 314 86 l 1
 314 57 l 1
 171 57 l 1
171 29 m 1
 171 57 l 1
 314 57 l 1
 314 29 l 1
 171 29 l 1
171 0 m 1
 171 29 l 1
 314 29 l 1
 314 0 l 1
 171 0 l 1
EndSplineSet
EndChar

StartChar: g
Encoding: 103 103 72
Width: 571
Flags: HW
LayerCount: 2
Back
Fore
SplineSet
200 486 m 1
 200 514 l 1
 343 514 l 1
 343 486 l 1
 200 486 l 1
429 486 m 1
 429 514 l 1
 543 514 l 1
 543 486 l 1
 429 486 l 1
143 457 m 1
 143 486 l 1
 371 486 l 1
 371 457 l 1
 143 457 l 1
429 457 m 1
 429 486 l 1
 543 486 l 1
 543 457 l 1
 429 457 l 1
114 429 m 1
 114 457 l 1
 543 457 l 1
 543 429 l 1
 114 429 l 1
86 400 m 1
 86 429 l 1
 543 429 l 1
 543 400 l 1
 86 400 l 1
86 371 m 1
 86 400 l 1
 257 400 l 1
 257 371 l 1
 86 371 l 1
343 371 m 1
 343 400 l 1
 543 400 l 1
 543 371 l 1
 343 371 l 1
57 343 m 1
 57 371 l 1
 229 371 l 1
 229 343 l 1
 57 343 l 1
400 343 m 1
 400 371 l 1
 543 371 l 1
 543 343 l 1
 400 343 l 1
57 314 m 1
 57 343 l 1
 200 343 l 1
 200 314 l 1
 57 314 l 1
400 314 m 1
 400 343 l 1
 543 343 l 1
 543 314 l 1
 400 314 l 1
57 286 m 1
 57 314 l 1
 200 314 l 1
 200 286 l 1
 57 286 l 1
400 286 m 1
 400 314 l 1
 543 314 l 1
 543 286 l 1
 400 286 l 1
57 257 m 1
 57 286 l 1
 200 286 l 1
 200 257 l 1
 57 257 l 1
400 257 m 1
 400 286 l 1
 543 286 l 1
 543 257 l 1
 400 257 l 1
57 229 m 1
 57 257 l 1
 200 257 l 1
 200 229 l 1
 57 229 l 1
400 229 m 1
 400 257 l 1
 543 257 l 1
 543 229 l 1
 400 229 l 1
57 200 m 1
 57 229 l 1
 200 229 l 1
 200 200 l 1
 57 200 l 1
400 200 m 1
 400 229 l 1
 543 229 l 1
 543 200 l 1
 400 200 l 1
57 171 m 1
 57 200 l 1
 229 200 l 1
 229 171 l 1
 57 171 l 1
371 171 m 1
 371 200 l 1
 543 200 l 1
 543 171 l 1
 371 171 l 1
57 143 m 1
 57 171 l 1
 229 171 l 1
 229 143 l 1
 57 143 l 1
343 143 m 1
 343 171 l 1
 543 171 l 1
 543 143 l 1
 343 143 l 1
86 114 m 1
 86 143 l 1
 543 143 l 1
 543 114 l 1
 86 114 l 1
86 86 m 1
 86 114 l 1
 371 114 l 1
 371 86 l 1
 86 86 l 1
400 86 m 1
 400 114 l 1
 543 114 l 1
 543 86 l 1
 400 86 l 1
114 57 m 1
 114 86 l 1
 371 86 l 1
 371 57 l 1
 114 57 l 1
400 57 m 1
 400 86 l 1
 543 86 l 1
 543 57 l 1
 400 57 l 1
143 29 m 1
 143 57 l 1
 343 57 l 1
 343 29 l 1
 143 29 l 1
400 29 m 1
 400 57 l 1
 543 57 l 1
 543 29 l 1
 400 29 l 1
171 0 m 1
 171 29 l 1
 314 29 l 1
 314 0 l 1
 171 0 l 1
400 0 m 1
 400 29 l 1
 543 29 l 1
 543 0 l 1
 400 0 l 1
400 -29 m 1
 400 0 l 1
 543 0 l 1
 543 -29 l 1
 400 -29 l 1
371 -57 m 1
 371 -29 l 1
 514 -29 l 1
 514 -57 l 1
 371 -57 l 1
114 -86 m 1
 114 -57 l 1
 171 -57 l 1
 171 -86 l 1
 114 -86 l 1
343 -86 m 1
 343 -57 l 1
 514 -57 l 1
 514 -86 l 1
 343 -86 l 1
114 -114 m 1
 114 -86 l 1
 514 -86 l 1
 514 -114 l 1
 114 -114 l 1
114 -143 m 1
 114 -114 l 1
 486 -114 l 1
 486 -143 l 1
 114 -143 l 1
114 -171 m 1
 114 -143 l 1
 457 -143 l 1
 457 -171 l 1
 114 -171 l 1
200 -200 m 1
 200 -171 l 1
 400 -171 l 1
 400 -200 l 1
 200 -200 l 1
EndSplineSet
EndChar

StartChar: h
Encoding: 104 104 73
Width: 571
Flags: HW
LayerCount: 2
Back
Fore
SplineSet
57 714 m 1
 57 743 l 1
 200 743 l 1
 200 714 l 1
 57 714 l 1
57 686 m 1
 57 714 l 1
 200 714 l 1
 200 686 l 1
 57 686 l 1
57 657 m 1
 57 686 l 1
 200 686 l 1
 200 657 l 1
 57 657 l 1
57 629 m 1
 57 657 l 1
 200 657 l 1
 200 629 l 1
 57 629 l 1
57 600 m 1
 57 629 l 1
 200 629 l 1
 200 600 l 1
 57 600 l 1
57 571 m 1
 57 600 l 1
 200 600 l 1
 200 571 l 1
 57 571 l 1
57 543 m 1
 57 571 l 1
 200 571 l 1
 200 543 l 1
 57 543 l 1
57 514 m 1
 57 543 l 1
 200 543 l 1
 200 514 l 1
 57 514 l 1
57 486 m 1
 57 514 l 1
 200 514 l 1
 200 486 l 1
 57 486 l 1
286 486 m 1
 286 514 l 1
 429 514 l 1
 429 486 l 1
 286 486 l 1
57 457 m 1
 57 486 l 1
 200 486 l 1
 200 457 l 1
 57 457 l 1
257 457 m 1
 257 486 l 1
 457 486 l 1
 457 457 l 1
 257 457 l 1
57 429 m 1
 57 457 l 1
 200 457 l 1
 200 429 l 1
 57 429 l 1
229 429 m 1
 229 457 l 1
 486 457 l 1
 486 429 l 1
 229 429 l 1
57 400 m 1
 57 429 l 1
 514 429 l 1
 514 400 l 1
 57 400 l 1
57 371 m 1
 57 400 l 1
 514 400 l 1
 514 371 l 1
 57 371 l 1
57 343 m 1
 57 371 l 1
 257 371 l 1
 257 343 l 1
 57 343 l 1
371 343 m 1
 371 371 l 1
 514 371 l 1
 514 343 l 1
 371 343 l 1
57 314 m 1
 57 343 l 1
 229 343 l 1
 229 314 l 1
 57 314 l 1
371 314 m 1
 371 343 l 1
 514 343 l 1
 514 314 l 1
 371 314 l 1
57 286 m 1
 57 314 l 1
 200 314 l 1
 200 286 l 1
 57 286 l 1
371 286 m 1
 371 314 l 1
 514 314 l 1
 514 286 l 1
 371 286 l 1
57 257 m 1
 57 286 l 1
 200 286 l 1
 200 257 l 1
 57 257 l 1
371 257 m 1
 371 286 l 1
 514 286 l 1
 514 257 l 1
 371 257 l 1
57 229 m 1
 57 257 l 1
 200 257 l 1
 200 229 l 1
 57 229 l 1
371 229 m 1
 371 257 l 1
 514 257 l 1
 514 229 l 1
 371 229 l 1
57 200 m 1
 57 229 l 1
 200 229 l 1
 200 200 l 1
 57 200 l 1
371 200 m 1
 371 229 l 1
 514 229 l 1
 514 200 l 1
 371 200 l 1
57 171 m 1
 57 200 l 1
 200 200 l 1
 200 171 l 1
 57 171 l 1
371 171 m 1
 371 200 l 1
 514 200 l 1
 514 171 l 1
 371 171 l 1
57 143 m 1
 57 171 l 1
 200 171 l 1
 200 143 l 1
 57 143 l 1
371 143 m 1
 371 171 l 1
 514 171 l 1
 514 143 l 1
 371 143 l 1
57 114 m 1
 57 143 l 1
 200 143 l 1
 200 114 l 1
 57 114 l 1
371 114 m 1
 371 143 l 1
 514 143 l 1
 514 114 l 1
 371 114 l 1
57 86 m 1
 57 114 l 1
 200 114 l 1
 200 86 l 1
 57 86 l 1
371 86 m 1
 371 114 l 1
 514 114 l 1
 514 86 l 1
 371 86 l 1
57 57 m 1
 57 86 l 1
 200 86 l 1
 200 57 l 1
 57 57 l 1
371 57 m 1
 371 86 l 1
 514 86 l 1
 514 57 l 1
 371 57 l 1
57 29 m 1
 57 57 l 1
 200 57 l 1
 200 29 l 1
 57 29 l 1
371 29 m 1
 371 57 l 1
 514 57 l 1
 514 29 l 1
 371 29 l 1
57 0 m 1
 57 29 l 1
 200 29 l 1
 200 0 l 1
 57 0 l 1
371 0 m 1
 371 29 l 1
 514 29 l 1
 514 0 l 1
 371 0 l 1
EndSplineSet
EndChar

StartChar: i
Encoding: 105 105 74
Width: 571
Flags: HW
LayerCount: 2
Back
Fore
SplineSet
286 714 m 1
 286 743 l 1
 429 743 l 1
 429 714 l 1
 286 714 l 1
286 686 m 1
 286 714 l 1
 429 714 l 1
 429 686 l 1
 286 686 l 1
286 657 m 1
 286 686 l 1
 429 686 l 1
 429 657 l 1
 286 657 l 1
286 629 m 1
 286 657 l 1
 429 657 l 1
 429 629 l 1
 286 629 l 1
286 600 m 1
 286 629 l 1
 429 629 l 1
 429 600 l 1
 286 600 l 1
86 486 m 1
 86 514 l 1
 429 514 l 1
 429 486 l 1
 86 486 l 1
86 457 m 1
 86 486 l 1
 429 486 l 1
 429 457 l 1
 86 457 l 1
86 429 m 1
 86 457 l 1
 429 457 l 1
 429 429 l 1
 86 429 l 1
286 400 m 1
 286 429 l 1
 429 429 l 1
 429 400 l 1
 286 400 l 1
286 371 m 1
 286 400 l 1
 429 400 l 1
 429 371 l 1
 286 371 l 1
286 343 m 1
 286 371 l 1
 429 371 l 1
 429 343 l 1
 286 343 l 1
286 314 m 1
 286 343 l 1
 429 343 l 1
 429 314 l 1
 286 314 l 1
286 286 m 1
 286 314 l 1
 429 314 l 1
 429 286 l 1
 286 286 l 1
286 257 m 1
 286 286 l 1
 429 286 l 1
 429 257 l 1
 286 257 l 1
286 229 m 1
 286 257 l 1
 429 257 l 1
 429 229 l 1
 286 229 l 1
286 200 m 1
 286 229 l 1
 429 229 l 1
 429 200 l 1
 286 200 l 1
286 171 m 1
 286 200 l 1
 429 200 l 1
 429 171 l 1
 286 171 l 1
286 143 m 1
 286 171 l 1
 429 171 l 1
 429 143 l 1
 286 143 l 1
286 114 m 1
 286 143 l 1
 429 143 l 1
 429 114 l 1
 286 114 l 1
286 86 m 1
 286 114 l 1
 429 114 l 1
 429 86 l 1
 286 86 l 1
286 57 m 1
 286 86 l 1
 429 86 l 1
 429 57 l 1
 286 57 l 1
286 29 m 1
 286 57 l 1
 429 57 l 1
 429 29 l 1
 286 29 l 1
286 0 m 1
 286 29 l 1
 429 29 l 1
 429 0 l 1
 286 0 l 1
EndSplineSet
EndChar

StartChar: j
Encoding: 106 106 75
Width: 571
Flags: HW
LayerCount: 2
Back
Fore
SplineSet
286 714 m 1
 286 743 l 1
 429 743 l 1
 429 714 l 1
 286 714 l 1
286 686 m 1
 286 714 l 1
 429 714 l 1
 429 686 l 1
 286 686 l 1
286 657 m 1
 286 686 l 1
 429 686 l 1
 429 657 l 1
 286 657 l 1
286 629 m 1
 286 657 l 1
 429 657 l 1
 429 629 l 1
 286 629 l 1
286 600 m 1
 286 629 l 1
 429 629 l 1
 429 600 l 1
 286 600 l 1
114 486 m 1
 114 514 l 1
 429 514 l 1
 429 486 l 1
 114 486 l 1
114 457 m 1
 114 486 l 1
 429 486 l 1
 429 457 l 1
 114 457 l 1
114 429 m 1
 114 457 l 1
 429 457 l 1
 429 429 l 1
 114 429 l 1
286 400 m 1
 286 429 l 1
 429 429 l 1
 429 400 l 1
 286 400 l 1
286 371 m 1
 286 400 l 1
 429 400 l 1
 429 371 l 1
 286 371 l 1
286 343 m 1
 286 371 l 1
 429 371 l 1
 429 343 l 1
 286 343 l 1
286 314 m 1
 286 343 l 1
 429 343 l 1
 429 314 l 1
 286 314 l 1
286 286 m 1
 286 314 l 1
 429 314 l 1
 429 286 l 1
 286 286 l 1
286 257 m 1
 286 286 l 1
 429 286 l 1
 429 257 l 1
 286 257 l 1
286 229 m 1
 286 257 l 1
 429 257 l 1
 429 229 l 1
 286 229 l 1
286 200 m 1
 286 229 l 1
 429 229 l 1
 429 200 l 1
 286 200 l 1
286 171 m 1
 286 200 l 1
 429 200 l 1
 429 171 l 1
 286 171 l 1
286 143 m 1
 286 171 l 1
 429 171 l 1
 429 143 l 1
 286 143 l 1
286 114 m 1
 286 143 l 1
 429 143 l 1
 429 114 l 1
 286 114 l 1
286 86 m 1
 286 114 l 1
 429 114 l 1
 429 86 l 1
 286 86 l 1
286 57 m 1
 286 86 l 1
 429 86 l 1
 429 57 l 1
 286 57 l 1
286 29 m 1
 286 57 l 1
 429 57 l 1
 429 29 l 1
 286 29 l 1
286 0 m 1
 286 29 l 1
 429 29 l 1
 429 0 l 1
 286 0 l 1
286 -29 m 1
 286 0 l 1
 429 0 l 1
 429 -29 l 1
 286 -29 l 1
286 -57 m 1
 286 -29 l 1
 429 -29 l 1
 429 -57 l 1
 286 -57 l 1
286 -86 m 1
 286 -57 l 1
 429 -57 l 1
 429 -86 l 1
 286 -86 l 1
57 -114 m 1
 57 -86 l 1
 114 -86 l 1
 114 -114 l 1
 57 -114 l 1
257 -114 m 1
 257 -86 l 1
 400 -86 l 1
 400 -114 l 1
 257 -114 l 1
57 -143 m 1
 57 -114 l 1
 400 -114 l 1
 400 -143 l 1
 57 -143 l 1
57 -171 m 1
 57 -143 l 1
 371 -143 l 1
 371 -171 l 1
 57 -171 l 1
86 -200 m 1
 86 -171 l 1
 314 -171 l 1
 314 -200 l 1
 86 -200 l 1
EndSplineSet
EndChar

StartChar: k
Encoding: 107 107 76
Width: 571
Flags: HW
LayerCount: 2
Back
Fore
SplineSet
86 714 m 1
 86 743 l 1
 229 743 l 1
 229 714 l 1
 86 714 l 1
86 686 m 1
 86 714 l 1
 229 714 l 1
 229 686 l 1
 86 686 l 1
86 657 m 1
 86 686 l 1
 229 686 l 1
 229 657 l 1
 86 657 l 1
86 629 m 1
 86 657 l 1
 229 657 l 1
 229 629 l 1
 86 629 l 1
86 600 m 1
 86 629 l 1
 229 629 l 1
 229 600 l 1
 86 600 l 1
86 571 m 1
 86 600 l 1
 229 600 l 1
 229 571 l 1
 86 571 l 1
86 543 m 1
 86 571 l 1
 229 571 l 1
 229 543 l 1
 86 543 l 1
86 514 m 1
 86 543 l 1
 229 543 l 1
 229 514 l 1
 86 514 l 1
86 486 m 1
 86 514 l 1
 229 514 l 1
 229 486 l 1
 86 486 l 1
400 486 m 1
 400 514 l 1
 514 514 l 1
 514 486 l 1
 400 486 l 1
86 457 m 1
 86 486 l 1
 229 486 l 1
 229 457 l 1
 86 457 l 1
371 457 m 1
 371 486 l 1
 486 486 l 1
 486 457 l 1
 371 457 l 1
86 429 m 1
 86 457 l 1
 229 457 l 1
 229 429 l 1
 86 429 l 1
371 429 m 1
 371 457 l 1
 457 457 l 1
 457 429 l 1
 371 429 l 1
86 400 m 1
 86 429 l 1
 229 429 l 1
 229 400 l 1
 86 400 l 1
343 400 m 1
 343 429 l 1
 457 429 l 1
 457 400 l 1
 343 400 l 1
86 371 m 1
 86 400 l 1
 229 400 l 1
 229 371 l 1
 86 371 l 1
314 371 m 1
 314 400 l 1
 429 400 l 1
 429 371 l 1
 314 371 l 1
86 343 m 1
 86 371 l 1
 229 371 l 1
 229 343 l 1
 86 343 l 1
314 343 m 1
 314 371 l 1
 400 371 l 1
 400 343 l 1
 314 343 l 1
86 314 m 1
 86 343 l 1
 229 343 l 1
 229 314 l 1
 86 314 l 1
286 314 m 1
 286 343 l 1
 400 343 l 1
 400 314 l 1
 286 314 l 1
86 286 m 1
 86 314 l 1
 229 314 l 1
 229 286 l 1
 86 286 l 1
257 286 m 1
 257 314 l 1
 371 314 l 1
 371 286 l 1
 257 286 l 1
86 257 m 1
 86 286 l 1
 400 286 l 1
 400 257 l 1
 86 257 l 1
86 229 m 1
 86 257 l 1
 229 257 l 1
 229 229 l 1
 86 229 l 1
257 229 m 1
 257 257 l 1
 429 257 l 1
 429 229 l 1
 257 229 l 1
86 200 m 1
 86 229 l 1
 229 229 l 1
 229 200 l 1
 86 200 l 1
257 200 m 1
 257 229 l 1
 429 229 l 1
 429 200 l 1
 257 200 l 1
86 171 m 1
 86 200 l 1
 229 200 l 1
 229 171 l 1
 86 171 l 1
286 171 m 1
 286 200 l 1
 457 200 l 1
 457 171 l 1
 286 171 l 1
86 143 m 1
 86 171 l 1
 229 171 l 1
 229 143 l 1
 86 143 l 1
314 143 m 1
 314 171 l 1
 486 171 l 1
 486 143 l 1
 314 143 l 1
86 114 m 1
 86 143 l 1
 229 143 l 1
 229 114 l 1
 86 114 l 1
314 114 m 1
 314 143 l 1
 486 143 l 1
 486 114 l 1
 314 114 l 1
86 86 m 1
 86 114 l 1
 229 114 l 1
 229 86 l 1
 86 86 l 1
343 86 m 1
 343 114 l 1
 514 114 l 1
 514 86 l 1
 343 86 l 1
86 57 m 1
 86 86 l 1
 229 86 l 1
 229 57 l 1
 86 57 l 1
371 57 m 1
 371 86 l 1
 543 86 l 1
 543 57 l 1
 371 57 l 1
86 29 m 1
 86 57 l 1
 229 57 l 1
 229 29 l 1
 86 29 l 1
371 29 m 1
 371 57 l 1
 543 57 l 1
 543 29 l 1
 371 29 l 1
86 0 m 1
 86 29 l 1
 229 29 l 1
 229 0 l 1
 86 0 l 1
400 0 m 1
 400 29 l 1
 571 29 l 1
 571 0 l 1
 400 0 l 1
EndSplineSet
EndChar

StartChar: l
Encoding: 108 108 77
Width: 571
Flags: HW
LayerCount: 2
Back
Fore
SplineSet
29 714 m 1
 29 743 l 1
 371 743 l 1
 371 714 l 1
 29 714 l 1
29 686 m 1
 29 714 l 1
 371 714 l 1
 371 686 l 1
 29 686 l 1
29 657 m 1
 29 686 l 1
 371 686 l 1
 371 657 l 1
 29 657 l 1
229 629 m 1
 229 657 l 1
 371 657 l 1
 371 629 l 1
 229 629 l 1
229 600 m 1
 229 629 l 1
 371 629 l 1
 371 600 l 1
 229 600 l 1
229 571 m 1
 229 600 l 1
 371 600 l 1
 371 571 l 1
 229 571 l 1
229 543 m 1
 229 571 l 1
 371 571 l 1
 371 543 l 1
 229 543 l 1
229 514 m 1
 229 543 l 1
 371 543 l 1
 371 514 l 1
 229 514 l 1
229 486 m 1
 229 514 l 1
 371 514 l 1
 371 486 l 1
 229 486 l 1
229 457 m 1
 229 486 l 1
 371 486 l 1
 371 457 l 1
 229 457 l 1
229 429 m 1
 229 457 l 1
 371 457 l 1
 371 429 l 1
 229 429 l 1
229 400 m 1
 229 429 l 1
 371 429 l 1
 371 400 l 1
 229 400 l 1
229 371 m 1
 229 400 l 1
 371 400 l 1
 371 371 l 1
 229 371 l 1
229 343 m 1
 229 371 l 1
 371 371 l 1
 371 343 l 1
 229 343 l 1
229 314 m 1
 229 343 l 1
 371 343 l 1
 371 314 l 1
 229 314 l 1
229 286 m 1
 229 314 l 1
 371 314 l 1
 371 286 l 1
 229 286 l 1
229 257 m 1
 229 286 l 1
 371 286 l 1
 371 257 l 1
 229 257 l 1
229 229 m 1
 229 257 l 1
 371 257 l 1
 371 229 l 1
 229 229 l 1
229 200 m 1
 229 229 l 1
 371 229 l 1
 371 200 l 1
 229 200 l 1
229 171 m 1
 229 200 l 1
 371 200 l 1
 371 171 l 1
 229 171 l 1
229 143 m 1
 229 171 l 1
 371 171 l 1
 371 143 l 1
 229 143 l 1
229 114 m 1
 229 143 l 1
 371 143 l 1
 371 114 l 1
 229 114 l 1
229 86 m 1
 229 114 l 1
 371 114 l 1
 371 86 l 1
 229 86 l 1
229 57 m 1
 229 86 l 1
 371 86 l 1
 371 57 l 1
 229 57 l 1
229 29 m 1
 229 57 l 1
 371 57 l 1
 371 29 l 1
 229 29 l 1
229 0 m 1
 229 29 l 1
 371 29 l 1
 371 0 l 1
 229 0 l 1
EndSplineSet
EndChar

StartChar: m
Encoding: 109 109 78
Width: 571
Flags: HW
LayerCount: 2
Back
Fore
SplineSet
29 486 m 1
 29 514 l 1
 171 514 l 1
 171 486 l 1
 29 486 l 1
229 486 m 1
 229 514 l 1
 343 514 l 1
 343 486 l 1
 229 486 l 1
429 486 m 1
 429 514 l 1
 543 514 l 1
 543 486 l 1
 429 486 l 1
29 457 m 1
 29 486 l 1
 171 486 l 1
 171 457 l 1
 29 457 l 1
200 457 m 1
 200 486 l 1
 343 486 l 1
 343 457 l 1
 200 457 l 1
400 457 m 1
 400 486 l 1
 543 486 l 1
 543 457 l 1
 400 457 l 1
29 429 m 1
 29 457 l 1
 171 457 l 1
 171 429 l 1
 29 429 l 1
200 429 m 1
 200 457 l 1
 371 457 l 1
 371 429 l 1
 200 429 l 1
400 429 m 1
 400 457 l 1
 571 457 l 1
 571 429 l 1
 400 429 l 1
29 400 m 1
 29 429 l 1
 571 429 l 1
 571 400 l 1
 29 400 l 1
29 371 m 1
 29 400 l 1
 571 400 l 1
 571 371 l 1
 29 371 l 1
29 343 m 1
 29 371 l 1
 200 371 l 1
 200 343 l 1
 29 343 l 1
229 343 m 1
 229 371 l 1
 371 371 l 1
 371 343 l 1
 229 343 l 1
429 343 m 1
 429 371 l 1
 571 371 l 1
 571 343 l 1
 429 343 l 1
29 314 m 1
 29 343 l 1
 171 343 l 1
 171 314 l 1
 29 314 l 1
229 314 m 1
 229 343 l 1
 371 343 l 1
 371 314 l 1
 229 314 l 1
429 314 m 1
 429 343 l 1
 571 343 l 1
 571 314 l 1
 429 314 l 1
29 286 m 1
 29 314 l 1
 171 314 l 1
 171 286 l 1
 29 286 l 1
229 286 m 1
 229 314 l 1
 371 314 l 1
 371 286 l 1
 229 286 l 1
429 286 m 1
 429 314 l 1
 571 314 l 1
 571 286 l 1
 429 286 l 1
29 257 m 1
 29 286 l 1
 171 286 l 1
 171 257 l 1
 29 257 l 1
229 257 m 1
 229 286 l 1
 371 286 l 1
 371 257 l 1
 229 257 l 1
429 257 m 1
 429 286 l 1
 571 286 l 1
 571 257 l 1
 429 257 l 1
29 229 m 1
 29 257 l 1
 171 257 l 1
 171 229 l 1
 29 229 l 1
229 229 m 1
 229 257 l 1
 371 257 l 1
 371 229 l 1
 229 229 l 1
429 229 m 1
 429 257 l 1
 571 257 l 1
 571 229 l 1
 429 229 l 1
29 200 m 1
 29 229 l 1
 171 229 l 1
 171 200 l 1
 29 200 l 1
229 200 m 1
 229 229 l 1
 371 229 l 1
 371 200 l 1
 229 200 l 1
429 200 m 1
 429 229 l 1
 571 229 l 1
 571 200 l 1
 429 200 l 1
29 171 m 1
 29 200 l 1
 171 200 l 1
 171 171 l 1
 29 171 l 1
229 171 m 1
 229 200 l 1
 371 200 l 1
 371 171 l 1
 229 171 l 1
429 171 m 1
 429 200 l 1
 571 200 l 1
 571 171 l 1
 429 171 l 1
29 143 m 1
 29 171 l 1
 171 171 l 1
 171 143 l 1
 29 143 l 1
229 143 m 1
 229 171 l 1
 371 171 l 1
 371 143 l 1
 229 143 l 1
429 143 m 1
 429 171 l 1
 571 171 l 1
 571 143 l 1
 429 143 l 1
29 114 m 1
 29 143 l 1
 171 143 l 1
 171 114 l 1
 29 114 l 1
229 114 m 1
 229 143 l 1
 371 143 l 1
 371 114 l 1
 229 114 l 1
429 114 m 1
 429 143 l 1
 571 143 l 1
 571 114 l 1
 429 114 l 1
29 86 m 1
 29 114 l 1
 171 114 l 1
 171 86 l 1
 29 86 l 1
229 86 m 1
 229 114 l 1
 371 114 l 1
 371 86 l 1
 229 86 l 1
429 86 m 1
 429 114 l 1
 571 114 l 1
 571 86 l 1
 429 86 l 1
29 57 m 1
 29 86 l 1
 171 86 l 1
 171 57 l 1
 29 57 l 1
229 57 m 1
 229 86 l 1
 371 86 l 1
 371 57 l 1
 229 57 l 1
429 57 m 1
 429 86 l 1
 571 86 l 1
 571 57 l 1
 429 57 l 1
29 29 m 1
 29 57 l 1
 171 57 l 1
 171 29 l 1
 29 29 l 1
229 29 m 1
 229 57 l 1
 371 57 l 1
 371 29 l 1
 229 29 l 1
429 29 m 1
 429 57 l 1
 571 57 l 1
 571 29 l 1
 429 29 l 1
29 0 m 1
 29 29 l 1
 171 29 l 1
 171 0 l 1
 29 0 l 1
229 0 m 1
 229 29 l 1
 371 29 l 1
 371 0 l 1
 229 0 l 1
429 0 m 1
 429 29 l 1
 571 29 l 1
 571 0 l 1
 429 0 l 1
EndSplineSet
EndChar

StartChar: n
Encoding: 110 110 79
Width: 571
Flags: HW
LayerCount: 2
Back
Fore
SplineSet
57 486 m 1
 57 514 l 1
 200 514 l 1
 200 486 l 1
 57 486 l 1
286 486 m 1
 286 514 l 1
 429 514 l 1
 429 486 l 1
 286 486 l 1
57 457 m 1
 57 486 l 1
 200 486 l 1
 200 457 l 1
 57 457 l 1
257 457 m 1
 257 486 l 1
 457 486 l 1
 457 457 l 1
 257 457 l 1
57 429 m 1
 57 457 l 1
 200 457 l 1
 200 429 l 1
 57 429 l 1
229 429 m 1
 229 457 l 1
 486 457 l 1
 486 429 l 1
 229 429 l 1
57 400 m 1
 57 429 l 1
 514 429 l 1
 514 400 l 1
 57 400 l 1
57 371 m 1
 57 400 l 1
 514 400 l 1
 514 371 l 1
 57 371 l 1
57 343 m 1
 57 371 l 1
 257 371 l 1
 257 343 l 1
 57 343 l 1
371 343 m 1
 371 371 l 1
 514 371 l 1
 514 343 l 1
 371 343 l 1
57 314 m 1
 57 343 l 1
 229 343 l 1
 229 314 l 1
 57 314 l 1
371 314 m 1
 371 343 l 1
 514 343 l 1
 514 314 l 1
 371 314 l 1
57 286 m 1
 57 314 l 1
 200 314 l 1
 200 286 l 1
 57 286 l 1
371 286 m 1
 371 314 l 1
 514 314 l 1
 514 286 l 1
 371 286 l 1
57 257 m 1
 57 286 l 1
 200 286 l 1
 200 257 l 1
 57 257 l 1
371 257 m 1
 371 286 l 1
 514 286 l 1
 514 257 l 1
 371 257 l 1
57 229 m 1
 57 257 l 1
 200 257 l 1
 200 229 l 1
 57 229 l 1
371 229 m 1
 371 257 l 1
 514 257 l 1
 514 229 l 1
 371 229 l 1
57 200 m 1
 57 229 l 1
 200 229 l 1
 200 200 l 1
 57 200 l 1
371 200 m 1
 371 229 l 1
 514 229 l 1
 514 200 l 1
 371 200 l 1
57 171 m 1
 57 200 l 1
 200 200 l 1
 200 171 l 1
 57 171 l 1
371 171 m 1
 371 200 l 1
 514 200 l 1
 514 171 l 1
 371 171 l 1
57 143 m 1
 57 171 l 1
 200 171 l 1
 200 143 l 1
 57 143 l 1
371 143 m 1
 371 171 l 1
 514 171 l 1
 514 143 l 1
 371 143 l 1
57 114 m 1
 57 143 l 1
 200 143 l 1
 200 114 l 1
 57 114 l 1
371 114 m 1
 371 143 l 1
 514 143 l 1
 514 114 l 1
 371 114 l 1
57 86 m 1
 57 114 l 1
 200 114 l 1
 200 86 l 1
 57 86 l 1
371 86 m 1
 371 114 l 1
 514 114 l 1
 514 86 l 1
 371 86 l 1
57 57 m 1
 57 86 l 1
 200 86 l 1
 200 57 l 1
 57 57 l 1
371 57 m 1
 371 86 l 1
 514 86 l 1
 514 57 l 1
 371 57 l 1
57 29 m 1
 57 57 l 1
 200 57 l 1
 200 29 l 1
 57 29 l 1
371 29 m 1
 371 57 l 1
 514 57 l 1
 514 29 l 1
 371 29 l 1
57 0 m 1
 57 29 l 1
 200 29 l 1
 200 0 l 1
 57 0 l 1
371 0 m 1
 371 29 l 1
 514 29 l 1
 514 0 l 1
 371 0 l 1
EndSplineSet
EndChar

StartChar: o
Encoding: 111 111 80
Width: 571
Flags: HW
LayerCount: 2
Back
Fore
SplineSet
200 486 m 1
 200 514 l 1
 400 514 l 1
 400 486 l 1
 200 486 l 1
143 457 m 1
 143 486 l 1
 457 486 l 1
 457 457 l 1
 143 457 l 1
114 429 m 1
 114 457 l 1
 486 457 l 1
 486 429 l 1
 114 429 l 1
86 400 m 1
 86 429 l 1
 229 429 l 1
 229 400 l 1
 86 400 l 1
371 400 m 1
 371 429 l 1
 514 429 l 1
 514 400 l 1
 371 400 l 1
57 371 m 1
 57 400 l 1
 200 400 l 1
 200 371 l 1
 57 371 l 1
400 371 m 1
 400 400 l 1
 543 400 l 1
 543 371 l 1
 400 371 l 1
57 343 m 1
 57 371 l 1
 200 371 l 1
 200 343 l 1
 57 343 l 1
400 343 m 1
 400 371 l 1
 543 371 l 1
 543 343 l 1
 400 343 l 1
29 314 m 1
 29 343 l 1
 171 343 l 1
 171 314 l 1
 29 314 l 1
429 314 m 1
 429 343 l 1
 571 343 l 1
 571 314 l 1
 429 314 l 1
29 286 m 1
 29 314 l 1
 171 314 l 1
 171 286 l 1
 29 286 l 1
429 286 m 1
 429 314 l 1
 571 314 l 1
 571 286 l 1
 429 286 l 1
29 257 m 1
 29 286 l 1
 171 286 l 1
 171 257 l 1
 29 257 l 1
429 257 m 1
 429 286 l 1
 571 286 l 1
 571 257 l 1
 429 257 l 1
29 229 m 1
 29 257 l 1
 171 257 l 1
 171 229 l 1
 29 229 l 1
429 229 m 1
 429 257 l 1
 571 257 l 1
 571 229 l 1
 429 229 l 1
29 200 m 1
 29 229 l 1
 171 229 l 1
 171 200 l 1
 29 200 l 1
429 200 m 1
 429 229 l 1
 571 229 l 1
 571 200 l 1
 429 200 l 1
29 171 m 1
 29 200 l 1
 171 200 l 1
 171 171 l 1
 29 171 l 1
429 171 m 1
 429 200 l 1
 571 200 l 1
 571 171 l 1
 429 171 l 1
57 143 m 1
 57 171 l 1
 200 171 l 1
 200 143 l 1
 57 143 l 1
400 143 m 1
 400 171 l 1
 543 171 l 1
 543 143 l 1
 400 143 l 1
57 114 m 1
 57 143 l 1
 200 143 l 1
 200 114 l 1
 57 114 l 1
400 114 m 1
 400 143 l 1
 543 143 l 1
 543 114 l 1
 400 114 l 1
86 86 m 1
 86 114 l 1
 229 114 l 1
 229 86 l 1
 86 86 l 1
371 86 m 1
 371 114 l 1
 514 114 l 1
 514 86 l 1
 371 86 l 1
114 57 m 1
 114 86 l 1
 486 86 l 1
 486 57 l 1
 114 57 l 1
143 29 m 1
 143 57 l 1
 457 57 l 1
 457 29 l 1
 143 29 l 1
200 0 m 1
 200 29 l 1
 400 29 l 1
 400 0 l 1
 200 0 l 1
EndSplineSet
EndChar

StartChar: p
Encoding: 112 112 81
Width: 571
Flags: HW
LayerCount: 2
Back
Fore
SplineSet
57 486 m 1
 57 514 l 1
 200 514 l 1
 200 486 l 1
 57 486 l 1
286 486 m 1
 286 514 l 1
 429 514 l 1
 429 486 l 1
 286 486 l 1
57 457 m 1
 57 486 l 1
 200 486 l 1
 200 457 l 1
 57 457 l 1
257 457 m 1
 257 486 l 1
 457 486 l 1
 457 457 l 1
 257 457 l 1
57 429 m 1
 57 457 l 1
 200 457 l 1
 200 429 l 1
 57 429 l 1
229 429 m 1
 229 457 l 1
 486 457 l 1
 486 429 l 1
 229 429 l 1
57 400 m 1
 57 429 l 1
 514 429 l 1
 514 400 l 1
 57 400 l 1
57 371 m 1
 57 400 l 1
 514 400 l 1
 514 371 l 1
 57 371 l 1
57 343 m 1
 57 371 l 1
 257 371 l 1
 257 343 l 1
 57 343 l 1
371 343 m 1
 371 371 l 1
 543 371 l 1
 543 343 l 1
 371 343 l 1
57 314 m 1
 57 343 l 1
 229 343 l 1
 229 314 l 1
 57 314 l 1
371 314 m 1
 371 343 l 1
 543 343 l 1
 543 314 l 1
 371 314 l 1
57 286 m 1
 57 314 l 1
 200 314 l 1
 200 286 l 1
 57 286 l 1
400 286 m 1
 400 314 l 1
 543 314 l 1
 543 286 l 1
 400 286 l 1
57 257 m 1
 57 286 l 1
 200 286 l 1
 200 257 l 1
 57 257 l 1
400 257 m 1
 400 286 l 1
 543 286 l 1
 543 257 l 1
 400 257 l 1
57 229 m 1
 57 257 l 1
 200 257 l 1
 200 229 l 1
 57 229 l 1
400 229 m 1
 400 257 l 1
 543 257 l 1
 543 229 l 1
 400 229 l 1
57 200 m 1
 57 229 l 1
 200 229 l 1
 200 200 l 1
 57 200 l 1
400 200 m 1
 400 229 l 1
 543 229 l 1
 543 200 l 1
 400 200 l 1
57 171 m 1
 57 200 l 1
 200 200 l 1
 200 171 l 1
 57 171 l 1
400 171 m 1
 400 200 l 1
 543 200 l 1
 543 171 l 1
 400 171 l 1
57 143 m 1
 57 171 l 1
 200 171 l 1
 200 143 l 1
 57 143 l 1
371 143 m 1
 371 171 l 1
 514 171 l 1
 514 143 l 1
 371 143 l 1
57 114 m 1
 57 143 l 1
 229 143 l 1
 229 114 l 1
 57 114 l 1
343 114 m 1
 343 143 l 1
 514 143 l 1
 514 114 l 1
 343 114 l 1
57 86 m 1
 57 114 l 1
 514 114 l 1
 514 86 l 1
 57 86 l 1
57 57 m 1
 57 86 l 1
 486 86 l 1
 486 57 l 1
 57 57 l 1
57 29 m 1
 57 57 l 1
 200 57 l 1
 200 29 l 1
 57 29 l 1
229 29 m 1
 229 57 l 1
 457 57 l 1
 457 29 l 1
 229 29 l 1
57 0 m 1
 57 29 l 1
 200 29 l 1
 200 0 l 1
 57 0 l 1
257 0 m 1
 257 29 l 1
 400 29 l 1
 400 0 l 1
 257 0 l 1
57 -29 m 1
 57 0 l 1
 200 0 l 1
 200 -29 l 1
 57 -29 l 1
57 -57 m 1
 57 -29 l 1
 200 -29 l 1
 200 -57 l 1
 57 -57 l 1
57 -86 m 1
 57 -57 l 1
 200 -57 l 1
 200 -86 l 1
 57 -86 l 1
57 -114 m 1
 57 -86 l 1
 200 -86 l 1
 200 -114 l 1
 57 -114 l 1
57 -143 m 1
 57 -114 l 1
 200 -114 l 1
 200 -143 l 1
 57 -143 l 1
57 -171 m 1
 57 -143 l 1
 200 -143 l 1
 200 -171 l 1
 57 -171 l 1
57 -200 m 1
 57 -171 l 1
 200 -171 l 1
 200 -200 l 1
 57 -200 l 1
EndSplineSet
EndChar

StartChar: q
Encoding: 113 113 82
Width: 571
Flags: HW
LayerCount: 2
Back
Fore
SplineSet
200 486 m 1
 200 514 l 1
 343 514 l 1
 343 486 l 1
 200 486 l 1
429 486 m 1
 429 514 l 1
 543 514 l 1
 543 486 l 1
 429 486 l 1
143 457 m 1
 143 486 l 1
 400 486 l 1
 400 457 l 1
 143 457 l 1
429 457 m 1
 429 486 l 1
 543 486 l 1
 543 457 l 1
 429 457 l 1
114 429 m 1
 114 457 l 1
 543 457 l 1
 543 429 l 1
 114 429 l 1
86 400 m 1
 86 429 l 1
 543 429 l 1
 543 400 l 1
 86 400 l 1
86 371 m 1
 86 400 l 1
 257 400 l 1
 257 371 l 1
 86 371 l 1
371 371 m 1
 371 400 l 1
 543 400 l 1
 543 371 l 1
 371 371 l 1
86 343 m 1
 86 371 l 1
 229 371 l 1
 229 343 l 1
 86 343 l 1
400 343 m 1
 400 371 l 1
 543 371 l 1
 543 343 l 1
 400 343 l 1
57 314 m 1
 57 343 l 1
 200 343 l 1
 200 314 l 1
 57 314 l 1
400 314 m 1
 400 343 l 1
 543 343 l 1
 543 314 l 1
 400 314 l 1
57 286 m 1
 57 314 l 1
 200 314 l 1
 200 286 l 1
 57 286 l 1
400 286 m 1
 400 314 l 1
 543 314 l 1
 543 286 l 1
 400 286 l 1
57 257 m 1
 57 286 l 1
 200 286 l 1
 200 257 l 1
 57 257 l 1
400 257 m 1
 400 286 l 1
 543 286 l 1
 543 257 l 1
 400 257 l 1
57 229 m 1
 57 257 l 1
 200 257 l 1
 200 229 l 1
 57 229 l 1
400 229 m 1
 400 257 l 1
 543 257 l 1
 543 229 l 1
 400 229 l 1
57 200 m 1
 57 229 l 1
 200 229 l 1
 200 200 l 1
 57 200 l 1
400 200 m 1
 400 229 l 1
 543 229 l 1
 543 200 l 1
 400 200 l 1
57 171 m 1
 57 200 l 1
 229 200 l 1
 229 171 l 1
 57 171 l 1
371 171 m 1
 371 200 l 1
 543 200 l 1
 543 171 l 1
 371 171 l 1
57 143 m 1
 57 171 l 1
 229 171 l 1
 229 143 l 1
 57 143 l 1
343 143 m 1
 343 171 l 1
 543 171 l 1
 543 143 l 1
 343 143 l 1
86 114 m 1
 86 143 l 1
 543 143 l 1
 543 114 l 1
 86 114 l 1
86 86 m 1
 86 114 l 1
 543 114 l 1
 543 86 l 1
 86 86 l 1
114 57 m 1
 114 86 l 1
 371 86 l 1
 371 57 l 1
 114 57 l 1
400 57 m 1
 400 86 l 1
 543 86 l 1
 543 57 l 1
 400 57 l 1
143 29 m 1
 143 57 l 1
 343 57 l 1
 343 29 l 1
 143 29 l 1
400 29 m 1
 400 57 l 1
 543 57 l 1
 543 29 l 1
 400 29 l 1
171 0 m 1
 171 29 l 1
 314 29 l 1
 314 0 l 1
 171 0 l 1
400 0 m 1
 400 29 l 1
 543 29 l 1
 543 0 l 1
 400 0 l 1
400 -29 m 1
 400 0 l 1
 543 0 l 1
 543 -29 l 1
 400 -29 l 1
400 -57 m 1
 400 -29 l 1
 543 -29 l 1
 543 -57 l 1
 400 -57 l 1
400 -86 m 1
 400 -57 l 1
 543 -57 l 1
 543 -86 l 1
 400 -86 l 1
400 -114 m 1
 400 -86 l 1
 543 -86 l 1
 543 -114 l 1
 400 -114 l 1
400 -143 m 1
 400 -114 l 1
 543 -114 l 1
 543 -143 l 1
 400 -143 l 1
400 -171 m 1
 400 -143 l 1
 543 -143 l 1
 543 -171 l 1
 400 -171 l 1
400 -200 m 1
 400 -171 l 1
 543 -171 l 1
 543 -200 l 1
 400 -200 l 1
EndSplineSet
EndChar

StartChar: r
Encoding: 114 114 83
Width: 571
Flags: HW
LayerCount: 2
Back
Fore
SplineSet
114 486 m 1
 114 514 l 1
 257 514 l 1
 257 486 l 1
 114 486 l 1
371 486 m 1
 371 514 l 1
 543 514 l 1
 543 486 l 1
 371 486 l 1
114 457 m 1
 114 486 l 1
 257 486 l 1
 257 457 l 1
 114 457 l 1
314 457 m 1
 314 486 l 1
 543 486 l 1
 543 457 l 1
 314 457 l 1
114 429 m 1
 114 457 l 1
 257 457 l 1
 257 429 l 1
 114 429 l 1
286 429 m 1
 286 457 l 1
 543 457 l 1
 543 429 l 1
 286 429 l 1
114 400 m 1
 114 429 l 1
 543 429 l 1
 543 400 l 1
 114 400 l 1
114 371 m 1
 114 400 l 1
 543 400 l 1
 543 371 l 1
 114 371 l 1
114 343 m 1
 114 371 l 1
 343 371 l 1
 343 343 l 1
 114 343 l 1
457 343 m 1
 457 371 l 1
 543 371 l 1
 543 343 l 1
 457 343 l 1
114 314 m 1
 114 343 l 1
 314 343 l 1
 314 314 l 1
 114 314 l 1
457 314 m 1
 457 343 l 1
 543 343 l 1
 543 314 l 1
 457 314 l 1
114 286 m 1
 114 314 l 1
 286 314 l 1
 286 286 l 1
 114 286 l 1
114 257 m 1
 114 286 l 1
 257 286 l 1
 257 257 l 1
 114 257 l 1
114 229 m 1
 114 257 l 1
 257 257 l 1
 257 229 l 1
 114 229 l 1
114 200 m 1
 114 229 l 1
 257 229 l 1
 257 200 l 1
 114 200 l 1
114 171 m 1
 114 200 l 1
 257 200 l 1
 257 171 l 1
 114 171 l 1
114 143 m 1
 114 171 l 1
 257 171 l 1
 257 143 l 1
 114 143 l 1
114 114 m 1
 114 143 l 1
 257 143 l 1
 257 114 l 1
 114 114 l 1
114 86 m 1
 114 114 l 1
 257 114 l 1
 257 86 l 1
 114 86 l 1
114 57 m 1
 114 86 l 1
 257 86 l 1
 257 57 l 1
 114 57 l 1
114 29 m 1
 114 57 l 1
 257 57 l 1
 257 29 l 1
 114 29 l 1
114 0 m 1
 114 29 l 1
 257 29 l 1
 257 0 l 1
 114 0 l 1
EndSplineSet
EndChar

StartChar: s
Encoding: 115 115 84
Width: 571
Flags: HW
LayerCount: 2
Back
Fore
SplineSet
200 486 m 1
 200 514 l 1
 457 514 l 1
 457 486 l 1
 200 486 l 1
114 457 m 1
 114 486 l 1
 486 486 l 1
 486 457 l 1
 114 457 l 1
86 429 m 1
 86 457 l 1
 486 457 l 1
 486 429 l 1
 86 429 l 1
86 400 m 1
 86 429 l 1
 229 429 l 1
 229 400 l 1
 86 400 l 1
429 400 m 1
 429 429 l 1
 486 429 l 1
 486 400 l 1
 429 400 l 1
57 371 m 1
 57 400 l 1
 200 400 l 1
 200 371 l 1
 57 371 l 1
57 343 m 1
 57 371 l 1
 257 371 l 1
 257 343 l 1
 57 343 l 1
57 314 m 1
 57 343 l 1
 314 343 l 1
 314 314 l 1
 57 314 l 1
86 286 m 1
 86 314 l 1
 400 314 l 1
 400 286 l 1
 86 286 l 1
114 257 m 1
 114 286 l 1
 457 286 l 1
 457 257 l 1
 114 257 l 1
143 229 m 1
 143 257 l 1
 486 257 l 1
 486 229 l 1
 143 229 l 1
229 200 m 1
 229 229 l 1
 514 229 l 1
 514 200 l 1
 229 200 l 1
286 171 m 1
 286 200 l 1
 514 200 l 1
 514 171 l 1
 286 171 l 1
371 143 m 1
 371 171 l 1
 514 171 l 1
 514 143 l 1
 371 143 l 1
371 114 m 1
 371 143 l 1
 514 143 l 1
 514 114 l 1
 371 114 l 1
57 86 m 1
 57 114 l 1
 114 114 l 1
 114 86 l 1
 57 86 l 1
343 86 m 1
 343 114 l 1
 514 114 l 1
 514 86 l 1
 343 86 l 1
57 57 m 1
 57 86 l 1
 486 86 l 1
 486 57 l 1
 57 57 l 1
57 29 m 1
 57 57 l 1
 457 57 l 1
 457 29 l 1
 57 29 l 1
114 0 m 1
 114 29 l 1
 371 29 l 1
 371 0 l 1
 114 0 l 1
EndSplineSet
EndChar

StartChar: t
Encoding: 116 116 85
Width: 571
Flags: HW
LayerCount: 2
Back
Fore
SplineSet
229 629 m 1
 229 657 l 1
 314 657 l 1
 314 629 l 1
 229 629 l 1
171 600 m 1
 171 629 l 1
 314 629 l 1
 314 600 l 1
 171 600 l 1
171 571 m 1
 171 600 l 1
 314 600 l 1
 314 571 l 1
 171 571 l 1
171 543 m 1
 171 571 l 1
 314 571 l 1
 314 543 l 1
 171 543 l 1
171 514 m 1
 171 543 l 1
 314 543 l 1
 314 514 l 1
 171 514 l 1
57 486 m 1
 57 514 l 1
 514 514 l 1
 514 486 l 1
 57 486 l 1
57 457 m 1
 57 486 l 1
 514 486 l 1
 514 457 l 1
 57 457 l 1
57 429 m 1
 57 457 l 1
 514 457 l 1
 514 429 l 1
 57 429 l 1
171 400 m 1
 171 429 l 1
 314 429 l 1
 314 400 l 1
 171 400 l 1
171 371 m 1
 171 400 l 1
 314 400 l 1
 314 371 l 1
 171 371 l 1
171 343 m 1
 171 371 l 1
 314 371 l 1
 314 343 l 1
 171 343 l 1
171 314 m 1
 171 343 l 1
 314 343 l 1
 314 314 l 1
 171 314 l 1
171 286 m 1
 171 314 l 1
 314 314 l 1
 314 286 l 1
 171 286 l 1
171 257 m 1
 171 286 l 1
 314 286 l 1
 314 257 l 1
 171 257 l 1
171 229 m 1
 171 257 l 1
 314 257 l 1
 314 229 l 1
 171 229 l 1
171 200 m 1
 171 229 l 1
 314 229 l 1
 314 200 l 1
 171 200 l 1
171 171 m 1
 171 200 l 1
 314 200 l 1
 314 171 l 1
 171 171 l 1
171 143 m 1
 171 171 l 1
 314 171 l 1
 314 143 l 1
 171 143 l 1
171 114 m 1
 171 143 l 1
 343 143 l 1
 343 114 l 1
 171 114 l 1
486 114 m 1
 486 143 l 1
 514 143 l 1
 514 114 l 1
 486 114 l 1
200 86 m 1
 200 114 l 1
 514 114 l 1
 514 86 l 1
 200 86 l 1
200 57 m 1
 200 86 l 1
 514 86 l 1
 514 57 l 1
 200 57 l 1
229 29 m 1
 229 57 l 1
 514 57 l 1
 514 29 l 1
 229 29 l 1
286 0 m 1
 286 29 l 1
 457 29 l 1
 457 0 l 1
 286 0 l 1
EndSplineSet
EndChar

StartChar: u
Encoding: 117 117 86
Width: 571
Flags: HW
LayerCount: 2
Back
Fore
SplineSet
57 486 m 1
 57 514 l 1
 200 514 l 1
 200 486 l 1
 57 486 l 1
371 486 m 1
 371 514 l 1
 514 514 l 1
 514 486 l 1
 371 486 l 1
57 457 m 1
 57 486 l 1
 200 486 l 1
 200 457 l 1
 57 457 l 1
371 457 m 1
 371 486 l 1
 514 486 l 1
 514 457 l 1
 371 457 l 1
57 429 m 1
 57 457 l 1
 200 457 l 1
 200 429 l 1
 57 429 l 1
371 429 m 1
 371 457 l 1
 514 457 l 1
 514 429 l 1
 371 429 l 1
57 400 m 1
 57 429 l 1
 200 429 l 1
 200 400 l 1
 57 400 l 1
371 400 m 1
 371 429 l 1
 514 429 l 1
 514 400 l 1
 371 400 l 1
57 371 m 1
 57 400 l 1
 200 400 l 1
 200 371 l 1
 57 371 l 1
371 371 m 1
 371 400 l 1
 514 400 l 1
 514 371 l 1
 371 371 l 1
57 343 m 1
 57 371 l 1
 200 371 l 1
 200 343 l 1
 57 343 l 1
371 343 m 1
 371 371 l 1
 514 371 l 1
 514 343 l 1
 371 343 l 1
57 314 m 1
 57 343 l 1
 200 343 l 1
 200 314 l 1
 57 314 l 1
371 314 m 1
 371 343 l 1
 514 343 l 1
 514 314 l 1
 371 314 l 1
57 286 m 1
 57 314 l 1
 200 314 l 1
 200 286 l 1
 57 286 l 1
371 286 m 1
 371 314 l 1
 514 314 l 1
 514 286 l 1
 371 286 l 1
57 257 m 1
 57 286 l 1
 200 286 l 1
 200 257 l 1
 57 257 l 1
371 257 m 1
 371 286 l 1
 514 286 l 1
 514 257 l 1
 371 257 l 1
57 229 m 1
 57 257 l 1
 200 257 l 1
 200 229 l 1
 57 229 l 1
371 229 m 1
 371 257 l 1
 514 257 l 1
 514 229 l 1
 371 229 l 1
57 200 m 1
 57 229 l 1
 200 229 l 1
 200 200 l 1
 57 200 l 1
371 200 m 1
 371 229 l 1
 514 229 l 1
 514 200 l 1
 371 200 l 1
57 171 m 1
 57 200 l 1
 200 200 l 1
 200 171 l 1
 57 171 l 1
343 171 m 1
 343 200 l 1
 514 200 l 1
 514 171 l 1
 343 171 l 1
57 143 m 1
 57 171 l 1
 200 171 l 1
 200 143 l 1
 57 143 l 1
314 143 m 1
 314 171 l 1
 514 171 l 1
 514 143 l 1
 314 143 l 1
57 114 m 1
 57 143 l 1
 514 143 l 1
 514 114 l 1
 57 114 l 1
57 86 m 1
 57 114 l 1
 514 114 l 1
 514 86 l 1
 57 86 l 1
86 57 m 1
 86 86 l 1
 343 86 l 1
 343 57 l 1
 86 57 l 1
371 57 m 1
 371 86 l 1
 514 86 l 1
 514 57 l 1
 371 57 l 1
86 29 m 1
 86 57 l 1
 314 57 l 1
 314 29 l 1
 86 29 l 1
371 29 m 1
 371 57 l 1
 514 57 l 1
 514 29 l 1
 371 29 l 1
143 0 m 1
 143 29 l 1
 286 29 l 1
 286 0 l 1
 143 0 l 1
371 0 m 1
 371 29 l 1
 514 29 l 1
 514 0 l 1
 371 0 l 1
EndSplineSet
EndChar

StartChar: v
Encoding: 118 118 87
Width: 571
Flags: HW
LayerCount: 2
Back
Fore
SplineSet
29 486 m 1
 29 514 l 1
 171 514 l 1
 171 486 l 1
 29 486 l 1
457 486 m 1
 457 514 l 1
 571 514 l 1
 571 486 l 1
 457 486 l 1
29 457 m 1
 29 486 l 1
 200 486 l 1
 200 457 l 1
 29 457 l 1
457 457 m 1
 457 486 l 1
 543 486 l 1
 543 457 l 1
 457 457 l 1
57 429 m 1
 57 457 l 1
 200 457 l 1
 200 429 l 1
 57 429 l 1
457 429 m 1
 457 457 l 1
 543 457 l 1
 543 429 l 1
 457 429 l 1
57 400 m 1
 57 429 l 1
 229 429 l 1
 229 400 l 1
 57 400 l 1
429 400 m 1
 429 429 l 1
 514 429 l 1
 514 400 l 1
 429 400 l 1
86 371 m 1
 86 400 l 1
 229 400 l 1
 229 371 l 1
 86 371 l 1
429 371 m 1
 429 400 l 1
 514 400 l 1
 514 371 l 1
 429 371 l 1
86 343 m 1
 86 371 l 1
 229 371 l 1
 229 343 l 1
 86 343 l 1
400 343 m 1
 400 371 l 1
 514 371 l 1
 514 343 l 1
 400 343 l 1
86 314 m 1
 86 343 l 1
 257 343 l 1
 257 314 l 1
 86 314 l 1
400 314 m 1
 400 343 l 1
 486 343 l 1
 486 314 l 1
 400 314 l 1
114 286 m 1
 114 314 l 1
 257 314 l 1
 257 286 l 1
 114 286 l 1
400 286 m 1
 400 314 l 1
 486 314 l 1
 486 286 l 1
 400 286 l 1
114 257 m 1
 114 286 l 1
 286 286 l 1
 286 257 l 1
 114 257 l 1
371 257 m 1
 371 286 l 1
 457 286 l 1
 457 257 l 1
 371 257 l 1
143 229 m 1
 143 257 l 1
 286 257 l 1
 286 229 l 1
 143 229 l 1
371 229 m 1
 371 257 l 1
 457 257 l 1
 457 229 l 1
 371 229 l 1
143 200 m 1
 143 229 l 1
 286 229 l 1
 286 200 l 1
 143 200 l 1
343 200 m 1
 343 229 l 1
 457 229 l 1
 457 200 l 1
 343 200 l 1
143 171 m 1
 143 200 l 1
 314 200 l 1
 314 171 l 1
 143 171 l 1
343 171 m 1
 343 200 l 1
 429 200 l 1
 429 171 l 1
 343 171 l 1
171 143 m 1
 171 171 l 1
 314 171 l 1
 314 143 l 1
 171 143 l 1
343 143 m 1
 343 171 l 1
 429 171 l 1
 429 143 l 1
 343 143 l 1
171 114 m 1
 171 143 l 1
 400 143 l 1
 400 114 l 1
 171 114 l 1
200 86 m 1
 200 114 l 1
 400 114 l 1
 400 86 l 1
 200 86 l 1
200 57 m 1
 200 86 l 1
 400 86 l 1
 400 57 l 1
 200 57 l 1
200 29 m 1
 200 57 l 1
 371 57 l 1
 371 29 l 1
 200 29 l 1
229 0 m 1
 229 29 l 1
 371 29 l 1
 371 0 l 1
 229 0 l 1
EndSplineSet
EndChar

StartChar: w
Encoding: 119 119 88
Width: 571
Flags: HW
LayerCount: 2
Back
Fore
SplineSet
0 486 m 1
 0 514 l 1
 143 514 l 1
 143 486 l 1
 0 486 l 1
486 486 m 1
 486 514 l 1
 571 514 l 1
 571 486 l 1
 486 486 l 1
0 457 m 1
 0 486 l 1
 143 486 l 1
 143 457 l 1
 0 457 l 1
486 457 m 1
 486 486 l 1
 571 486 l 1
 571 457 l 1
 486 457 l 1
0 429 m 1
 0 457 l 1
 143 457 l 1
 143 429 l 1
 0 429 l 1
229 429 m 1
 229 457 l 1
 371 457 l 1
 371 429 l 1
 229 429 l 1
486 429 m 1
 486 457 l 1
 571 457 l 1
 571 429 l 1
 486 429 l 1
29 400 m 1
 29 429 l 1
 171 429 l 1
 171 400 l 1
 29 400 l 1
229 400 m 1
 229 429 l 1
 371 429 l 1
 371 400 l 1
 229 400 l 1
457 400 m 1
 457 429 l 1
 543 429 l 1
 543 400 l 1
 457 400 l 1
29 371 m 1
 29 400 l 1
 171 400 l 1
 171 371 l 1
 29 371 l 1
229 371 m 1
 229 400 l 1
 371 400 l 1
 371 371 l 1
 229 371 l 1
457 371 m 1
 457 400 l 1
 543 400 l 1
 543 371 l 1
 457 371 l 1
29 343 m 1
 29 371 l 1
 171 371 l 1
 171 343 l 1
 29 343 l 1
229 343 m 1
 229 371 l 1
 400 371 l 1
 400 343 l 1
 229 343 l 1
457 343 m 1
 457 371 l 1
 543 371 l 1
 543 343 l 1
 457 343 l 1
29 314 m 1
 29 343 l 1
 171 343 l 1
 171 314 l 1
 29 314 l 1
200 314 m 1
 200 343 l 1
 400 343 l 1
 400 314 l 1
 200 314 l 1
457 314 m 1
 457 343 l 1
 543 343 l 1
 543 314 l 1
 457 314 l 1
29 286 m 1
 29 314 l 1
 171 314 l 1
 171 286 l 1
 29 286 l 1
200 286 m 1
 200 314 l 1
 400 314 l 1
 400 286 l 1
 200 286 l 1
457 286 m 1
 457 314 l 1
 543 314 l 1
 543 286 l 1
 457 286 l 1
29 257 m 1
 29 286 l 1
 171 286 l 1
 171 257 l 1
 29 257 l 1
200 257 m 1
 200 286 l 1
 400 286 l 1
 400 257 l 1
 200 257 l 1
457 257 m 1
 457 286 l 1
 543 286 l 1
 543 257 l 1
 457 257 l 1
57 229 m 1
 57 257 l 1
 286 257 l 1
 286 229 l 1
 57 229 l 1
314 229 m 1
 314 257 l 1
 514 257 l 1
 514 229 l 1
 314 229 l 1
57 200 m 1
 57 229 l 1
 257 229 l 1
 257 200 l 1
 57 200 l 1
314 200 m 1
 314 229 l 1
 514 229 l 1
 514 200 l 1
 314 200 l 1
57 171 m 1
 57 200 l 1
 257 200 l 1
 257 171 l 1
 57 171 l 1
314 171 m 1
 314 200 l 1
 514 200 l 1
 514 171 l 1
 314 171 l 1
57 143 m 1
 57 171 l 1
 257 171 l 1
 257 143 l 1
 57 143 l 1
314 143 m 1
 314 171 l 1
 514 171 l 1
 514 143 l 1
 314 143 l 1
57 114 m 1
 57 143 l 1
 229 143 l 1
 229 114 l 1
 57 114 l 1
343 114 m 1
 343 143 l 1
 514 143 l 1
 514 114 l 1
 343 114 l 1
57 86 m 1
 57 114 l 1
 229 114 l 1
 229 86 l 1
 57 86 l 1
343 86 m 1
 343 114 l 1
 514 114 l 1
 514 86 l 1
 343 86 l 1
86 57 m 1
 86 86 l 1
 229 86 l 1
 229 57 l 1
 86 57 l 1
343 57 m 1
 343 86 l 1
 486 86 l 1
 486 57 l 1
 343 57 l 1
86 29 m 1
 86 57 l 1
 229 57 l 1
 229 29 l 1
 86 29 l 1
371 29 m 1
 371 57 l 1
 486 57 l 1
 486 29 l 1
 371 29 l 1
86 0 m 1
 86 29 l 1
 200 29 l 1
 200 0 l 1
 86 0 l 1
371 0 m 1
 371 29 l 1
 486 29 l 1
 486 0 l 1
 371 0 l 1
EndSplineSet
EndChar

StartChar: x
Encoding: 120 120 89
Width: 571
Flags: HW
LayerCount: 2
Back
Fore
SplineSet
29 486 m 1
 29 514 l 1
 229 514 l 1
 229 486 l 1
 29 486 l 1
429 486 m 1
 429 514 l 1
 543 514 l 1
 543 486 l 1
 429 486 l 1
57 457 m 1
 57 486 l 1
 229 486 l 1
 229 457 l 1
 57 457 l 1
400 457 m 1
 400 486 l 1
 514 486 l 1
 514 457 l 1
 400 457 l 1
86 429 m 1
 86 457 l 1
 257 457 l 1
 257 429 l 1
 86 429 l 1
371 429 m 1
 371 457 l 1
 486 457 l 1
 486 429 l 1
 371 429 l 1
114 400 m 1
 114 429 l 1
 286 429 l 1
 286 400 l 1
 114 400 l 1
371 400 m 1
 371 429 l 1
 457 429 l 1
 457 400 l 1
 371 400 l 1
114 371 m 1
 114 400 l 1
 314 400 l 1
 314 371 l 1
 114 371 l 1
343 371 m 1
 343 400 l 1
 457 400 l 1
 457 371 l 1
 343 371 l 1
143 343 m 1
 143 371 l 1
 429 371 l 1
 429 343 l 1
 143 343 l 1
171 314 m 1
 171 343 l 1
 400 343 l 1
 400 314 l 1
 171 314 l 1
200 286 m 1
 200 314 l 1
 371 314 l 1
 371 286 l 1
 200 286 l 1
200 257 m 1
 200 286 l 1
 371 286 l 1
 371 257 l 1
 200 257 l 1
200 229 m 1
 200 257 l 1
 400 257 l 1
 400 229 l 1
 200 229 l 1
200 200 m 1
 200 229 l 1
 429 229 l 1
 429 200 l 1
 200 200 l 1
171 171 m 1
 171 200 l 1
 429 200 l 1
 429 171 l 1
 171 171 l 1
143 143 m 1
 143 171 l 1
 257 171 l 1
 257 143 l 1
 143 143 l 1
286 143 m 1
 286 171 l 1
 457 171 l 1
 457 143 l 1
 286 143 l 1
114 114 m 1
 114 143 l 1
 229 143 l 1
 229 114 l 1
 114 114 l 1
314 114 m 1
 314 143 l 1
 486 143 l 1
 486 114 l 1
 314 114 l 1
114 86 m 1
 114 114 l 1
 200 114 l 1
 200 86 l 1
 114 86 l 1
314 86 m 1
 314 114 l 1
 514 114 l 1
 514 86 l 1
 314 86 l 1
86 57 m 1
 86 86 l 1
 200 86 l 1
 200 57 l 1
 86 57 l 1
343 57 m 1
 343 86 l 1
 514 86 l 1
 514 57 l 1
 343 57 l 1
57 29 m 1
 57 57 l 1
 171 57 l 1
 171 29 l 1
 57 29 l 1
371 29 m 1
 371 57 l 1
 543 57 l 1
 543 29 l 1
 371 29 l 1
29 0 m 1
 29 29 l 1
 143 29 l 1
 143 0 l 1
 29 0 l 1
400 0 m 1
 400 29 l 1
 571 29 l 1
 571 0 l 1
 400 0 l 1
EndSplineSet
EndChar

StartChar: y
Encoding: 121 121 90
Width: 571
Flags: HW
LayerCount: 2
Back
Fore
SplineSet
29 486 m 1
 29 514 l 1
 200 514 l 1
 200 486 l 1
 29 486 l 1
457 486 m 1
 457 514 l 1
 571 514 l 1
 571 486 l 1
 457 486 l 1
57 457 m 1
 57 486 l 1
 200 486 l 1
 200 457 l 1
 57 457 l 1
457 457 m 1
 457 486 l 1
 543 486 l 1
 543 457 l 1
 457 457 l 1
57 429 m 1
 57 457 l 1
 200 457 l 1
 200 429 l 1
 57 429 l 1
429 429 m 1
 429 457 l 1
 543 457 l 1
 543 429 l 1
 429 429 l 1
57 400 m 1
 57 429 l 1
 229 429 l 1
 229 400 l 1
 57 400 l 1
429 400 m 1
 429 429 l 1
 514 429 l 1
 514 400 l 1
 429 400 l 1
86 371 m 1
 86 400 l 1
 229 400 l 1
 229 371 l 1
 86 371 l 1
429 371 m 1
 429 400 l 1
 514 400 l 1
 514 371 l 1
 429 371 l 1
86 343 m 1
 86 371 l 1
 257 371 l 1
 257 343 l 1
 86 343 l 1
400 343 m 1
 400 371 l 1
 486 371 l 1
 486 343 l 1
 400 343 l 1
114 314 m 1
 114 343 l 1
 257 343 l 1
 257 314 l 1
 114 314 l 1
400 314 m 1
 400 343 l 1
 486 343 l 1
 486 314 l 1
 400 314 l 1
114 286 m 1
 114 314 l 1
 286 314 l 1
 286 286 l 1
 114 286 l 1
371 286 m 1
 371 314 l 1
 486 314 l 1
 486 286 l 1
 371 286 l 1
143 257 m 1
 143 286 l 1
 286 286 l 1
 286 257 l 1
 143 257 l 1
371 257 m 1
 371 286 l 1
 457 286 l 1
 457 257 l 1
 371 257 l 1
143 229 m 1
 143 257 l 1
 314 257 l 1
 314 229 l 1
 143 229 l 1
343 229 m 1
 343 257 l 1
 457 257 l 1
 457 229 l 1
 343 229 l 1
171 200 m 1
 171 229 l 1
 314 229 l 1
 314 200 l 1
 171 200 l 1
343 200 m 1
 343 229 l 1
 429 229 l 1
 429 200 l 1
 343 200 l 1
171 171 m 1
 171 200 l 1
 314 200 l 1
 314 171 l 1
 171 171 l 1
343 171 m 1
 343 200 l 1
 429 200 l 1
 429 171 l 1
 343 171 l 1
171 143 m 1
 171 171 l 1
 400 171 l 1
 400 143 l 1
 171 143 l 1
200 114 m 1
 200 143 l 1
 400 143 l 1
 400 114 l 1
 200 114 l 1
200 86 m 1
 200 114 l 1
 400 114 l 1
 400 86 l 1
 200 86 l 1
229 57 m 1
 229 86 l 1
 371 86 l 1
 371 57 l 1
 229 57 l 1
229 29 m 1
 229 57 l 1
 371 57 l 1
 371 29 l 1
 229 29 l 1
229 0 m 1
 229 29 l 1
 343 29 l 1
 343 0 l 1
 229 0 l 1
229 -29 m 1
 229 0 l 1
 343 0 l 1
 343 -29 l 1
 229 -29 l 1
200 -57 m 1
 200 -29 l 1
 314 -29 l 1
 314 -57 l 1
 200 -57 l 1
200 -86 m 1
 200 -57 l 1
 314 -57 l 1
 314 -86 l 1
 200 -86 l 1
171 -114 m 1
 171 -86 l 1
 286 -86 l 1
 286 -114 l 1
 171 -114 l 1
57 -143 m 1
 57 -114 l 1
 286 -114 l 1
 286 -143 l 1
 57 -143 l 1
57 -171 m 1
 57 -143 l 1
 257 -143 l 1
 257 -171 l 1
 57 -171 l 1
57 -200 m 1
 57 -171 l 1
 200 -171 l 1
 200 -200 l 1
 57 -200 l 1
EndSplineSet
EndChar

StartChar: z
Encoding: 122 122 91
Width: 571
Flags: HW
LayerCount: 2
Back
Fore
SplineSet
57 486 m 1
 57 514 l 1
 543 514 l 1
 543 486 l 1
 57 486 l 1
57 457 m 1
 57 486 l 1
 543 486 l 1
 543 457 l 1
 57 457 l 1
57 429 m 1
 57 457 l 1
 543 457 l 1
 543 429 l 1
 57 429 l 1
343 400 m 1
 343 429 l 1
 543 429 l 1
 543 400 l 1
 343 400 l 1
314 371 m 1
 314 400 l 1
 514 400 l 1
 514 371 l 1
 314 371 l 1
286 343 m 1
 286 371 l 1
 486 371 l 1
 486 343 l 1
 286 343 l 1
257 314 m 1
 257 343 l 1
 457 343 l 1
 457 314 l 1
 257 314 l 1
229 286 m 1
 229 314 l 1
 429 314 l 1
 429 286 l 1
 229 286 l 1
200 257 m 1
 200 286 l 1
 400 286 l 1
 400 257 l 1
 200 257 l 1
171 229 m 1
 171 257 l 1
 371 257 l 1
 371 229 l 1
 171 229 l 1
143 200 m 1
 143 229 l 1
 343 229 l 1
 343 200 l 1
 143 200 l 1
114 171 m 1
 114 200 l 1
 314 200 l 1
 314 171 l 1
 114 171 l 1
86 143 m 1
 86 171 l 1
 286 171 l 1
 286 143 l 1
 86 143 l 1
86 114 m 1
 86 143 l 1
 257 143 l 1
 257 114 l 1
 86 114 l 1
57 86 m 1
 57 114 l 1
 543 114 l 1
 543 86 l 1
 57 86 l 1
57 57 m 1
 57 86 l 1
 543 86 l 1
 543 57 l 1
 57 57 l 1
57 29 m 1
 57 57 l 1
 543 57 l 1
 543 29 l 1
 57 29 l 1
57 0 m 1
 57 29 l 1
 543 29 l 1
 543 0 l 1
 57 0 l 1
EndSplineSet
EndChar

StartChar: braceleft
Encoding: 123 123 92
Width: 571
Flags: HW
LayerCount: 2
Back
Fore
SplineSet
314 714 m 1
 314 743 l 1
 514 743 l 1
 514 714 l 1
 314 714 l 1
257 686 m 1
 257 714 l 1
 514 714 l 1
 514 686 l 1
 257 686 l 1
229 657 m 1
 229 686 l 1
 514 686 l 1
 514 657 l 1
 229 657 l 1
229 629 m 1
 229 657 l 1
 371 657 l 1
 371 629 l 1
 229 629 l 1
229 600 m 1
 229 629 l 1
 371 629 l 1
 371 600 l 1
 229 600 l 1
229 571 m 1
 229 600 l 1
 371 600 l 1
 371 571 l 1
 229 571 l 1
229 543 m 1
 229 571 l 1
 371 571 l 1
 371 543 l 1
 229 543 l 1
229 514 m 1
 229 543 l 1
 371 543 l 1
 371 514 l 1
 229 514 l 1
257 486 m 1
 257 514 l 1
 400 514 l 1
 400 486 l 1
 257 486 l 1
257 457 m 1
 257 486 l 1
 400 486 l 1
 400 457 l 1
 257 457 l 1
257 429 m 1
 257 457 l 1
 400 457 l 1
 400 429 l 1
 257 429 l 1
257 400 m 1
 257 429 l 1
 400 429 l 1
 400 400 l 1
 257 400 l 1
257 371 m 1
 257 400 l 1
 400 400 l 1
 400 371 l 1
 257 371 l 1
257 343 m 1
 257 371 l 1
 371 371 l 1
 371 343 l 1
 257 343 l 1
229 314 m 1
 229 343 l 1
 343 343 l 1
 343 314 l 1
 229 314 l 1
86 286 m 1
 86 314 l 1
 314 314 l 1
 314 286 l 1
 86 286 l 1
86 257 m 1
 86 286 l 1
 314 286 l 1
 314 257 l 1
 86 257 l 1
86 229 m 1
 86 257 l 1
 343 257 l 1
 343 229 l 1
 86 229 l 1
229 200 m 1
 229 229 l 1
 371 229 l 1
 371 200 l 1
 229 200 l 1
257 171 m 1
 257 200 l 1
 400 200 l 1
 400 171 l 1
 257 171 l 1
257 143 m 1
 257 171 l 1
 400 171 l 1
 400 143 l 1
 257 143 l 1
257 114 m 1
 257 143 l 1
 400 143 l 1
 400 114 l 1
 257 114 l 1
257 86 m 1
 257 114 l 1
 400 114 l 1
 400 86 l 1
 257 86 l 1
257 57 m 1
 257 86 l 1
 400 86 l 1
 400 57 l 1
 257 57 l 1
229 29 m 1
 229 57 l 1
 400 57 l 1
 400 29 l 1
 229 29 l 1
229 0 m 1
 229 29 l 1
 371 29 l 1
 371 0 l 1
 229 0 l 1
229 -29 m 1
 229 0 l 1
 371 0 l 1
 371 -29 l 1
 229 -29 l 1
229 -57 m 1
 229 -29 l 1
 371 -29 l 1
 371 -57 l 1
 229 -57 l 1
229 -86 m 1
 229 -57 l 1
 371 -57 l 1
 371 -86 l 1
 229 -86 l 1
229 -114 m 1
 229 -86 l 1
 514 -86 l 1
 514 -114 l 1
 229 -114 l 1
257 -143 m 1
 257 -114 l 1
 514 -114 l 1
 514 -143 l 1
 257 -143 l 1
314 -171 m 1
 314 -143 l 1
 514 -143 l 1
 514 -171 l 1
 314 -171 l 1
EndSplineSet
EndChar

StartChar: bar
Encoding: 124 124 93
Width: 571
Flags: HW
LayerCount: 2
Back
Fore
SplineSet
229 714 m 1
 229 743 l 1
 343 743 l 1
 343 714 l 1
 229 714 l 1
229 686 m 1
 229 714 l 1
 343 714 l 1
 343 686 l 1
 229 686 l 1
229 657 m 1
 229 686 l 1
 343 686 l 1
 343 657 l 1
 229 657 l 1
229 629 m 1
 229 657 l 1
 343 657 l 1
 343 629 l 1
 229 629 l 1
229 600 m 1
 229 629 l 1
 343 629 l 1
 343 600 l 1
 229 600 l 1
229 571 m 1
 229 600 l 1
 343 600 l 1
 343 571 l 1
 229 571 l 1
229 543 m 1
 229 571 l 1
 343 571 l 1
 343 543 l 1
 229 543 l 1
229 514 m 1
 229 543 l 1
 343 543 l 1
 343 514 l 1
 229 514 l 1
229 486 m 1
 229 514 l 1
 343 514 l 1
 343 486 l 1
 229 486 l 1
229 457 m 1
 229 486 l 1
 343 486 l 1
 343 457 l 1
 229 457 l 1
229 429 m 1
 229 457 l 1
 343 457 l 1
 343 429 l 1
 229 429 l 1
229 400 m 1
 229 429 l 1
 343 429 l 1
 343 400 l 1
 229 400 l 1
229 371 m 1
 229 400 l 1
 343 400 l 1
 343 371 l 1
 229 371 l 1
229 343 m 1
 229 371 l 1
 343 371 l 1
 343 343 l 1
 229 343 l 1
229 314 m 1
 229 343 l 1
 343 343 l 1
 343 314 l 1
 229 314 l 1
229 286 m 1
 229 314 l 1
 343 314 l 1
 343 286 l 1
 229 286 l 1
229 257 m 1
 229 286 l 1
 343 286 l 1
 343 257 l 1
 229 257 l 1
229 229 m 1
 229 257 l 1
 343 257 l 1
 343 229 l 1
 229 229 l 1
229 200 m 1
 229 229 l 1
 343 229 l 1
 343 200 l 1
 229 200 l 1
229 171 m 1
 229 200 l 1
 343 200 l 1
 343 171 l 1
 229 171 l 1
229 143 m 1
 229 171 l 1
 343 171 l 1
 343 143 l 1
 229 143 l 1
229 114 m 1
 229 143 l 1
 343 143 l 1
 343 114 l 1
 229 114 l 1
229 86 m 1
 229 114 l 1
 343 114 l 1
 343 86 l 1
 229 86 l 1
229 57 m 1
 229 86 l 1
 343 86 l 1
 343 57 l 1
 229 57 l 1
229 29 m 1
 229 57 l 1
 343 57 l 1
 343 29 l 1
 229 29 l 1
229 0 m 1
 229 29 l 1
 343 29 l 1
 343 0 l 1
 229 0 l 1
229 -29 m 1
 229 0 l 1
 343 0 l 1
 343 -29 l 1
 229 -29 l 1
229 -57 m 1
 229 -29 l 1
 343 -29 l 1
 343 -57 l 1
 229 -57 l 1
229 -86 m 1
 229 -57 l 1
 343 -57 l 1
 343 -86 l 1
 229 -86 l 1
229 -114 m 1
 229 -86 l 1
 343 -86 l 1
 343 -114 l 1
 229 -114 l 1
229 -143 m 1
 229 -114 l 1
 343 -114 l 1
 343 -143 l 1
 229 -143 l 1
229 -171 m 1
 229 -143 l 1
 343 -143 l 1
 343 -171 l 1
 229 -171 l 1
EndSplineSet
EndChar

StartChar: braceright
Encoding: 125 125 94
Width: 571
Flags: HW
LayerCount: 2
Back
Fore
SplineSet
57 714 m 1
 57 743 l 1
 257 743 l 1
 257 714 l 1
 57 714 l 1
57 686 m 1
 57 714 l 1
 314 714 l 1
 314 686 l 1
 57 686 l 1
57 657 m 1
 57 686 l 1
 343 686 l 1
 343 657 l 1
 57 657 l 1
200 629 m 1
 200 657 l 1
 343 657 l 1
 343 629 l 1
 200 629 l 1
200 600 m 1
 200 629 l 1
 343 629 l 1
 343 600 l 1
 200 600 l 1
200 571 m 1
 200 600 l 1
 343 600 l 1
 343 571 l 1
 200 571 l 1
200 543 m 1
 200 571 l 1
 343 571 l 1
 343 543 l 1
 200 543 l 1
200 514 m 1
 200 543 l 1
 343 543 l 1
 343 514 l 1
 200 514 l 1
171 486 m 1
 171 514 l 1
 314 514 l 1
 314 486 l 1
 171 486 l 1
171 457 m 1
 171 486 l 1
 314 486 l 1
 314 457 l 1
 171 457 l 1
171 429 m 1
 171 457 l 1
 314 457 l 1
 314 429 l 1
 171 429 l 1
171 400 m 1
 171 429 l 1
 314 429 l 1
 314 400 l 1
 171 400 l 1
171 371 m 1
 171 400 l 1
 314 400 l 1
 314 371 l 1
 171 371 l 1
200 343 m 1
 200 371 l 1
 314 371 l 1
 314 343 l 1
 200 343 l 1
229 314 m 1
 229 343 l 1
 343 343 l 1
 343 314 l 1
 229 314 l 1
257 286 m 1
 257 314 l 1
 486 314 l 1
 486 286 l 1
 257 286 l 1
257 257 m 1
 257 286 l 1
 486 286 l 1
 486 257 l 1
 257 257 l 1
229 229 m 1
 229 257 l 1
 486 257 l 1
 486 229 l 1
 229 229 l 1
200 200 m 1
 200 229 l 1
 343 229 l 1
 343 200 l 1
 200 200 l 1
171 171 m 1
 171 200 l 1
 314 200 l 1
 314 171 l 1
 171 171 l 1
171 143 m 1
 171 171 l 1
 314 171 l 1
 314 143 l 1
 171 143 l 1
171 114 m 1
 171 143 l 1
 314 143 l 1
 314 114 l 1
 171 114 l 1
171 86 m 1
 171 114 l 1
 314 114 l 1
 314 86 l 1
 171 86 l 1
171 57 m 1
 171 86 l 1
 314 86 l 1
 314 57 l 1
 171 57 l 1
200 29 m 1
 200 57 l 1
 343 57 l 1
 343 29 l 1
 200 29 l 1
200 0 m 1
 200 29 l 1
 343 29 l 1
 343 0 l 1
 200 0 l 1
200 -29 m 1
 200 0 l 1
 343 0 l 1
 343 -29 l 1
 200 -29 l 1
200 -57 m 1
 200 -29 l 1
 343 -29 l 1
 343 -57 l 1
 200 -57 l 1
200 -86 m 1
 200 -57 l 1
 343 -57 l 1
 343 -86 l 1
 200 -86 l 1
57 -114 m 1
 57 -86 l 1
 343 -86 l 1
 343 -114 l 1
 57 -114 l 1
57 -143 m 1
 57 -114 l 1
 314 -114 l 1
 314 -143 l 1
 57 -143 l 1
57 -171 m 1
 57 -143 l 1
 257 -143 l 1
 257 -171 l 1
 57 -171 l 1
EndSplineSet
EndChar

StartChar: asciitilde
Encoding: 126 126 95
Width: 571
Flags: HW
LayerCount: 2
Back
Fore
SplineSet
114 343 m 1
 114 371 l 1
 229 371 l 1
 229 343 l 1
 114 343 l 1
457 343 m 1
 457 371 l 1
 543 371 l 1
 543 343 l 1
 457 343 l 1
86 314 m 1
 86 343 l 1
 257 343 l 1
 257 314 l 1
 86 314 l 1
457 314 m 1
 457 343 l 1
 543 343 l 1
 543 314 l 1
 457 314 l 1
57 286 m 1
 57 314 l 1
 314 314 l 1
 314 286 l 1
 57 286 l 1
457 286 m 1
 457 314 l 1
 543 314 l 1
 543 286 l 1
 457 286 l 1
57 257 m 1
 57 286 l 1
 143 286 l 1
 143 257 l 1
 57 257 l 1
200 257 m 1
 200 286 l 1
 343 286 l 1
 343 257 l 1
 200 257 l 1
457 257 m 1
 457 286 l 1
 543 286 l 1
 543 257 l 1
 457 257 l 1
29 229 m 1
 29 257 l 1
 114 257 l 1
 114 229 l 1
 29 229 l 1
229 229 m 1
 229 257 l 1
 371 257 l 1
 371 229 l 1
 229 229 l 1
429 229 m 1
 429 257 l 1
 514 257 l 1
 514 229 l 1
 429 229 l 1
29 200 m 1
 29 229 l 1
 114 229 l 1
 114 200 l 1
 29 200 l 1
257 200 m 1
 257 229 l 1
 514 229 l 1
 514 200 l 1
 257 200 l 1
29 171 m 1
 29 200 l 1
 114 200 l 1
 114 171 l 1
 29 171 l 1
314 171 m 1
 314 200 l 1
 486 200 l 1
 486 171 l 1
 314 171 l 1
29 143 m 1
 29 171 l 1
 114 171 l 1
 114 143 l 1
 29 143 l 1
343 143 m 1
 343 171 l 1
 457 171 l 1
 457 143 l 1
 343 143 l 1
EndSplineSet
EndChar

StartChar: exclamdown
Encoding: 161 161 97
Width: 571
Flags: HW
LayerCount: 2
Back
Fore
SplineSet
229 486 m 1
 229 514 l 1
 371 514 l 1
 371 486 l 1
 229 486 l 1
229 457 m 1
 229 486 l 1
 371 486 l 1
 371 457 l 1
 229 457 l 1
229 429 m 1
 229 457 l 1
 371 457 l 1
 371 429 l 1
 229 429 l 1
229 400 m 1
 229 429 l 1
 371 429 l 1
 371 400 l 1
 229 400 l 1
229 371 m 1
 229 400 l 1
 371 400 l 1
 371 371 l 1
 229 371 l 1
257 257 m 1
 257 286 l 1
 343 286 l 1
 343 257 l 1
 257 257 l 1
257 229 m 1
 257 257 l 1
 343 257 l 1
 343 229 l 1
 257 229 l 1
257 200 m 1
 257 229 l 1
 343 229 l 1
 343 200 l 1
 257 200 l 1
257 171 m 1
 257 200 l 1
 343 200 l 1
 343 171 l 1
 257 171 l 1
257 143 m 1
 257 171 l 1
 343 171 l 1
 343 143 l 1
 257 143 l 1
257 114 m 1
 257 143 l 1
 343 143 l 1
 343 114 l 1
 257 114 l 1
229 86 m 1
 229 114 l 1
 371 114 l 1
 371 86 l 1
 229 86 l 1
229 57 m 1
 229 86 l 1
 371 86 l 1
 371 57 l 1
 229 57 l 1
229 29 m 1
 229 57 l 1
 371 57 l 1
 371 29 l 1
 229 29 l 1
229 0 m 1
 229 29 l 1
 371 29 l 1
 371 0 l 1
 229 0 l 1
229 -29 m 1
 229 0 l 1
 371 0 l 1
 371 -29 l 1
 229 -29 l 1
229 -57 m 1
 229 -29 l 1
 371 -29 l 1
 371 -57 l 1
 229 -57 l 1
229 -86 m 1
 229 -57 l 1
 371 -57 l 1
 371 -86 l 1
 229 -86 l 1
229 -114 m 1
 229 -86 l 1
 371 -86 l 1
 371 -114 l 1
 229 -114 l 1
229 -143 m 1
 229 -114 l 1
 371 -114 l 1
 371 -143 l 1
 229 -143 l 1
229 -171 m 1
 229 -143 l 1
 371 -143 l 1
 371 -171 l 1
 229 -171 l 1
229 -200 m 1
 229 -171 l 1
 371 -171 l 1
 371 -200 l 1
 229 -200 l 1
EndSplineSet
EndChar

